<svg width="345" height="476" viewBox="0 0 345 476" fill="none" xmlns="http://www.w3.org/2000/svg">
<rect x="0.5" y="0.5" width="344" height="91" rx="15.5" stroke="#17120F"/>
<path d="M43.5629 33.8564H42.0424V32.7754H43.5014C44.1459 32.7754 44.6674 32.6846 45.0658 32.5029C45.4643 32.3213 45.7543 32.0693 45.9359 31.7471C46.1176 31.4248 46.2084 31.0527 46.2084 30.6309C46.2084 30.2266 46.1088 29.8574 45.9096 29.5234C45.7104 29.1836 45.4027 28.9141 44.9867 28.7148C44.5707 28.5098 44.0346 28.4072 43.3783 28.4072C42.8861 28.4072 42.4408 28.501 42.0424 28.6885C41.644 28.8701 41.3275 29.125 41.0932 29.4531C40.8588 29.7754 40.7416 30.1475 40.7416 30.5693H39.0453C39.0453 30.0244 39.1596 29.5352 39.3881 29.1016C39.6166 28.6621 39.9301 28.29 40.3285 27.9854C40.727 27.6748 41.1869 27.4375 41.7084 27.2734C42.2357 27.1094 42.7924 27.0273 43.3783 27.0273C44.0639 27.0273 44.685 27.1064 45.2416 27.2646C45.7982 27.417 46.2758 27.6455 46.6742 27.9502C47.0727 28.2549 47.3773 28.6328 47.5883 29.084C47.7992 29.5352 47.9047 30.0596 47.9047 30.6572C47.9047 31.0967 47.8022 31.5098 47.5971 31.8965C47.392 32.2832 47.099 32.623 46.7182 32.916C46.3373 33.209 45.8803 33.4404 45.3471 33.6104C44.8139 33.7744 44.2191 33.8564 43.5629 33.8564ZM42.0424 33.1094H43.5629C44.2836 33.1094 44.9252 33.1826 45.4877 33.3291C46.0502 33.4756 46.5248 33.6895 46.9115 33.9707C47.2982 34.252 47.5912 34.6006 47.7904 35.0166C47.9955 35.4268 48.0981 35.8984 48.0981 36.4316C48.0981 37.0293 47.9809 37.5596 47.7465 38.0225C47.518 38.4854 47.1928 38.8779 46.7709 39.2002C46.349 39.5225 45.8481 39.7656 45.268 39.9297C44.6938 40.0938 44.0639 40.1758 43.3783 40.1758C42.8275 40.1758 42.2826 40.1055 41.7436 39.9648C41.2104 39.8184 40.727 39.5957 40.2934 39.2969C39.8598 38.9922 39.5111 38.6055 39.2475 38.1367C38.9897 37.668 38.8607 37.1055 38.8607 36.4492H40.557C40.557 36.877 40.6742 37.2695 40.9086 37.627C41.1488 37.9844 41.4799 38.2715 41.9018 38.4883C42.3236 38.6992 42.8158 38.8047 43.3783 38.8047C44.0229 38.8047 44.5678 38.7051 45.0131 38.5059C45.4643 38.3008 45.807 38.0225 46.0414 37.6709C46.2816 37.3135 46.4018 36.9121 46.4018 36.4668C46.4018 36.0742 46.3373 35.7344 46.2084 35.4473C46.0854 35.1543 45.9008 34.9141 45.6547 34.7266C45.4145 34.5391 45.1127 34.4014 44.7494 34.3135C44.392 34.2197 43.976 34.1729 43.5014 34.1729H42.0424V33.1094ZM55.2518 38.374V33.4785C55.2518 33.1035 55.1756 32.7783 55.0233 32.5029C54.8768 32.2217 54.6541 32.0049 54.3553 31.8525C54.0565 31.7002 53.6874 31.624 53.2479 31.624C52.8377 31.624 52.4774 31.6943 52.1668 31.835C51.8622 31.9756 51.6219 32.1602 51.4461 32.3887C51.2762 32.6172 51.1913 32.8633 51.1913 33.127H49.5653C49.5653 32.7871 49.6532 32.4502 49.829 32.1162C50.0047 31.7822 50.2567 31.4805 50.5848 31.2109C50.9188 30.9355 51.3172 30.7188 51.7801 30.5605C52.2489 30.3965 52.7704 30.3145 53.3446 30.3145C54.036 30.3145 54.6454 30.4316 55.1727 30.666C55.7059 30.9004 56.1219 31.2549 56.4207 31.7295C56.7254 32.1982 56.8778 32.7871 56.8778 33.4961V37.9258C56.8778 38.2422 56.9041 38.5791 56.9569 38.9365C57.0155 39.2939 57.1004 39.6016 57.2118 39.8594V40H55.5155C55.4334 39.8125 55.369 39.5635 55.3221 39.2529C55.2752 38.9365 55.2518 38.6436 55.2518 38.374ZM55.5331 34.2344L55.5506 35.377H53.9071C53.4442 35.377 53.0311 35.415 52.6678 35.4912C52.3045 35.5615 51.9999 35.6699 51.7538 35.8164C51.5077 35.9629 51.3202 36.1475 51.1913 36.3701C51.0624 36.5869 50.9979 36.8418 50.9979 37.1348C50.9979 37.4336 51.0653 37.7061 51.2 37.9521C51.3348 38.1982 51.537 38.3945 51.8065 38.541C52.0819 38.6816 52.4188 38.752 52.8172 38.752C53.3153 38.752 53.7547 38.6465 54.1356 38.4355C54.5165 38.2246 54.8182 37.9668 55.0409 37.6621C55.2694 37.3574 55.3924 37.0615 55.41 36.7744L56.1043 37.5566C56.0633 37.8027 55.952 38.0752 55.7704 38.374C55.5887 38.6729 55.3456 38.96 55.0409 39.2354C54.742 39.5049 54.3846 39.7305 53.9686 39.9121C53.5584 40.0879 53.0956 40.1758 52.5799 40.1758C51.9354 40.1758 51.37 40.0498 50.8836 39.7979C50.4032 39.5459 50.0282 39.209 49.7586 38.7871C49.495 38.3594 49.3631 37.8818 49.3631 37.3545C49.3631 36.8447 49.4627 36.3965 49.662 36.0098C49.8612 35.6172 50.1483 35.292 50.5233 35.0342C50.8983 34.7705 51.3495 34.5713 51.8768 34.4365C52.4041 34.3018 52.993 34.2344 53.6434 34.2344H55.5331ZM65.139 30.4902V31.835H60.7444V40H59.1184V30.4902H65.139ZM67.74 32.3184V43.6562H66.1052V30.4902H67.5993L67.74 32.3184ZM74.1472 35.166V35.3506C74.1472 36.042 74.0652 36.6836 73.9011 37.2754C73.737 37.8613 73.4968 38.3711 73.1804 38.8047C72.8699 39.2383 72.4861 39.5752 72.029 39.8154C71.572 40.0557 71.0476 40.1758 70.4558 40.1758C69.8523 40.1758 69.3191 40.0762 68.8562 39.877C68.3933 39.6777 68.0007 39.3877 67.6784 39.0068C67.3562 38.626 67.0984 38.1689 66.905 37.6357C66.7175 37.1025 66.5886 36.502 66.5183 35.834V34.8496C66.5886 34.1465 66.7204 33.5166 66.9138 32.96C67.1072 32.4033 67.362 31.9287 67.6784 31.5361C68.0007 31.1377 68.3904 30.8359 68.8474 30.6309C69.3044 30.4199 69.8318 30.3145 70.4294 30.3145C71.0271 30.3145 71.5574 30.4316 72.0202 30.666C72.4831 30.8945 72.8728 31.2227 73.1892 31.6504C73.5056 32.0781 73.7429 32.5908 73.9011 33.1885C74.0652 33.7803 74.1472 34.4395 74.1472 35.166ZM72.5124 35.3506V35.166C72.5124 34.6914 72.4626 34.2461 72.363 33.8301C72.2634 33.4082 72.1081 33.0391 71.8972 32.7227C71.6921 32.4004 71.4284 32.1484 71.1062 31.9668C70.7839 31.7793 70.4001 31.6855 69.9548 31.6855C69.5447 31.6855 69.1872 31.7559 68.8825 31.8965C68.5837 32.0371 68.3288 32.2275 68.1179 32.4678C67.907 32.7021 67.7341 32.9717 67.5993 33.2764C67.4704 33.5752 67.3738 33.8857 67.3093 34.208V36.4844C67.4265 36.8945 67.5906 37.2812 67.8015 37.6445C68.0124 38.002 68.2937 38.292 68.6452 38.5146C68.9968 38.7314 69.4392 38.8398 69.9724 38.8398C70.4118 38.8398 70.7898 38.749 71.1062 38.5674C71.4284 38.3799 71.6921 38.125 71.8972 37.8027C72.1081 37.4805 72.2634 37.1113 72.363 36.6953C72.4626 36.2734 72.5124 35.8252 72.5124 35.3506ZM78.3478 39.0156L80.9933 30.4902H82.7336L78.9191 41.4678C78.8312 41.7021 78.714 41.9541 78.5675 42.2236C78.4269 42.499 78.2453 42.7598 78.0226 43.0059C77.8 43.252 77.5304 43.4512 77.214 43.6035C76.9035 43.7617 76.5314 43.8408 76.0978 43.8408C75.9689 43.8408 75.8049 43.8232 75.6056 43.7881C75.4064 43.7529 75.2658 43.7236 75.1838 43.7002L75.175 42.3818C75.2218 42.3877 75.2951 42.3936 75.3947 42.3994C75.5002 42.4111 75.5734 42.417 75.6144 42.417C75.9836 42.417 76.297 42.3672 76.5549 42.2676C76.8127 42.1738 77.0295 42.0127 77.2052 41.7842C77.3869 41.5615 77.5422 41.2539 77.6711 40.8613L78.3478 39.0156ZM76.4054 30.4902L78.8752 37.873L79.297 39.5869L78.1281 40.1846L74.63 30.4902H76.4054ZM87.3121 35.4561H85.5631V34.4541H87.1803C87.6315 34.4541 87.9889 34.3984 88.2525 34.2871C88.5162 34.1699 88.7037 34.0088 88.815 33.8037C88.9264 33.5986 88.982 33.3584 88.982 33.083C88.982 32.8369 88.9176 32.6055 88.7887 32.3887C88.6656 32.166 88.4664 31.9873 88.191 31.8525C87.9156 31.7119 87.5465 31.6416 87.0836 31.6416C86.7086 31.6416 86.3688 31.709 86.0641 31.8438C85.7594 31.9727 85.5162 32.1514 85.3346 32.3799C85.1588 32.6025 85.0709 32.8545 85.0709 33.1357H83.4449C83.4449 32.5557 83.609 32.0576 83.9371 31.6416C84.2711 31.2197 84.7135 30.8945 85.2643 30.666C85.8209 30.4375 86.4273 30.3232 87.0836 30.3232C87.6344 30.3232 88.1266 30.3848 88.5602 30.5078C88.9996 30.625 89.3717 30.8008 89.6764 31.0352C89.9811 31.2637 90.2125 31.5508 90.3707 31.8965C90.5348 32.2363 90.6168 32.6318 90.6168 33.083C90.6168 33.4053 90.5406 33.71 90.3883 33.9971C90.2359 34.2842 90.0162 34.5391 89.7291 34.7617C89.442 34.9785 89.0934 35.1484 88.6832 35.2715C88.2789 35.3945 87.8219 35.4561 87.3121 35.4561ZM85.5631 34.8408H87.3121C87.8805 34.8408 88.3815 34.8965 88.815 35.0078C89.2486 35.1133 89.6119 35.2715 89.9049 35.4824C90.1979 35.6934 90.4176 35.9541 90.5641 36.2646C90.7164 36.5693 90.7926 36.9209 90.7926 37.3193C90.7926 37.7646 90.7018 38.166 90.5201 38.5234C90.3443 38.875 90.0924 39.1738 89.7643 39.4199C89.4361 39.666 89.0436 39.8535 88.5865 39.9824C88.1354 40.1113 87.6344 40.1758 87.0836 40.1758C86.4684 40.1758 85.8707 40.0703 85.2906 39.8594C84.7106 39.6484 84.233 39.3232 83.858 38.8838C83.483 38.4385 83.2955 37.873 83.2955 37.1875H84.9215C84.9215 37.4746 85.0123 37.7471 85.194 38.0049C85.3756 38.2627 85.6275 38.4707 85.9498 38.6289C86.2779 38.7871 86.6559 38.8662 87.0836 38.8662C87.5406 38.8662 87.9215 38.7959 88.2262 38.6553C88.5309 38.5146 88.7594 38.3271 88.9117 38.0928C89.0699 37.8584 89.149 37.6035 89.149 37.3281C89.149 36.9707 89.0787 36.6836 88.9381 36.4668C88.7975 36.25 88.5807 36.0918 88.2877 35.9922C88.0006 35.8867 87.6315 35.834 87.1803 35.834H85.5631V34.8408ZM94.2286 30.4902V40H92.6026V30.4902H94.2286ZM100.469 30.4902L95.96 35.9395H93.6836L93.4375 34.5156H95.3008L98.4913 30.4902H100.469ZM98.7198 40L95.2217 35.6934L96.2676 34.5156L100.785 40H98.7198ZM107.368 38.374V33.4785C107.368 33.1035 107.291 32.7783 107.139 32.5029C106.993 32.2217 106.77 32.0049 106.471 31.8525C106.172 31.7002 105.803 31.624 105.364 31.624C104.954 31.624 104.593 31.6943 104.283 31.835C103.978 31.9756 103.738 32.1602 103.562 32.3887C103.392 32.6172 103.307 32.8633 103.307 33.127H101.681C101.681 32.7871 101.769 32.4502 101.945 32.1162C102.121 31.7822 102.373 31.4805 102.701 31.2109C103.035 30.9355 103.433 30.7188 103.896 30.5605C104.365 30.3965 104.886 30.3145 105.46 30.3145C106.152 30.3145 106.761 30.4316 107.289 30.666C107.822 30.9004 108.238 31.2549 108.537 31.7295C108.841 32.1982 108.994 32.7871 108.994 33.4961V37.9258C108.994 38.2422 109.02 38.5791 109.073 38.9365C109.131 39.2939 109.216 39.6016 109.328 39.8594V40H107.631C107.549 39.8125 107.485 39.5635 107.438 39.2529C107.391 38.9365 107.368 38.6436 107.368 38.374ZM107.649 34.2344L107.666 35.377H106.023C105.56 35.377 105.147 35.415 104.784 35.4912C104.42 35.5615 104.116 35.6699 103.87 35.8164C103.624 35.9629 103.436 36.1475 103.307 36.3701C103.178 36.5869 103.114 36.8418 103.114 37.1348C103.114 37.4336 103.181 37.7061 103.316 37.9521C103.451 38.1982 103.653 38.3945 103.922 38.541C104.198 38.6816 104.535 38.752 104.933 38.752C105.431 38.752 105.871 38.6465 106.251 38.4355C106.632 38.2246 106.934 37.9668 107.157 37.6621C107.385 37.3574 107.508 37.0615 107.526 36.7744L108.22 37.5566C108.179 37.8027 108.068 38.0752 107.886 38.374C107.705 38.6729 107.461 38.96 107.157 39.2354C106.858 39.5049 106.5 39.7305 106.084 39.9121C105.674 40.0879 105.211 40.1758 104.696 40.1758C104.051 40.1758 103.486 40.0498 102.999 39.7979C102.519 39.5459 102.144 39.209 101.874 38.7871C101.611 38.3594 101.479 37.8818 101.479 37.3545C101.479 36.8447 101.579 36.3965 101.778 36.0098C101.977 35.6172 102.264 35.292 102.639 35.0342C103.014 34.7705 103.465 34.5713 103.993 34.4365C104.52 34.3018 105.109 34.2344 105.759 34.2344H107.649ZM121.473 30.4902V31.835H116.665V30.4902H121.473ZM116.903 30.4902V40H115.277V30.4902H116.903ZM122.914 30.4902V40H121.28V30.4902H122.914ZM124.654 35.3506V35.1484C124.654 34.4629 124.754 33.8271 124.953 33.2412C125.152 32.6494 125.439 32.1367 125.814 31.7031C126.189 31.2637 126.643 30.9238 127.177 30.6836C127.71 30.4375 128.307 30.3145 128.97 30.3145C129.638 30.3145 130.238 30.4375 130.771 30.6836C131.31 30.9238 131.767 31.2637 132.142 31.7031C132.523 32.1367 132.813 32.6494 133.013 33.2412C133.212 33.8271 133.311 34.4629 133.311 35.1484V35.3506C133.311 36.0361 133.212 36.6719 133.013 37.2578C132.813 37.8438 132.523 38.3564 132.142 38.7959C131.767 39.2295 131.313 39.5693 130.78 39.8154C130.253 40.0557 129.655 40.1758 128.987 40.1758C128.319 40.1758 127.719 40.0557 127.185 39.8154C126.652 39.5693 126.195 39.2295 125.814 38.7959C125.439 38.3564 125.152 37.8438 124.953 37.2578C124.754 36.6719 124.654 36.0361 124.654 35.3506ZM126.28 35.1484V35.3506C126.28 35.8252 126.336 36.2734 126.447 36.6953C126.558 37.1113 126.725 37.4805 126.948 37.8027C127.177 38.125 127.461 38.3799 127.801 38.5674C128.14 38.749 128.536 38.8398 128.987 38.8398C129.432 38.8398 129.822 38.749 130.156 38.5674C130.496 38.3799 130.777 38.125 131 37.8027C131.222 37.4805 131.389 37.1113 131.501 36.6953C131.618 36.2734 131.677 35.8252 131.677 35.3506V35.1484C131.677 34.6797 131.618 34.2373 131.501 33.8213C131.389 33.3994 131.22 33.0273 130.991 32.7051C130.768 32.377 130.487 32.1191 130.147 31.9316C129.813 31.7441 129.421 31.6504 128.97 31.6504C128.524 31.6504 128.132 31.7441 127.792 31.9316C127.458 32.1191 127.177 32.377 126.948 32.7051C126.725 33.0273 126.558 33.3994 126.447 33.8213C126.336 34.2373 126.28 34.6797 126.28 35.1484ZM136.835 35.4648H138.593L135.842 40H134.084L136.835 35.4648ZM138.198 30.4902H142.17V40H140.544V31.8086H138.198C137.735 31.8086 137.357 31.8877 137.064 32.0459C136.771 32.1982 136.557 32.3975 136.422 32.6436C136.287 32.8896 136.22 33.1445 136.22 33.4082C136.22 33.666 136.281 33.915 136.405 34.1553C136.528 34.3896 136.721 34.583 136.985 34.7354C137.248 34.8877 137.588 34.9639 138.004 34.9639H140.984V36.2998H138.004C137.459 36.2998 136.976 36.2266 136.554 36.0801C136.132 35.9336 135.775 35.7314 135.482 35.4736C135.189 35.21 134.966 34.9023 134.814 34.5508C134.661 34.1934 134.585 33.8066 134.585 33.3906C134.585 32.9746 134.664 32.5908 134.823 32.2393C134.987 31.8877 135.221 31.5801 135.526 31.3164C135.836 31.0527 136.214 30.8506 136.659 30.71C137.111 30.5635 137.623 30.4902 138.198 30.4902ZM148.155 38.8398C148.542 38.8398 148.899 38.7607 149.227 38.6025C149.555 38.4443 149.825 38.2275 150.036 37.9521C150.247 37.6709 150.367 37.3516 150.396 36.9941H151.943C151.914 37.5566 151.723 38.0811 151.372 38.5674C151.026 39.0479 150.572 39.4375 150.009 39.7363C149.447 40.0293 148.829 40.1758 148.155 40.1758C147.44 40.1758 146.816 40.0498 146.283 39.7979C145.756 39.5459 145.316 39.2002 144.965 38.7607C144.619 38.3213 144.358 37.8174 144.182 37.249C144.012 36.6748 143.927 36.0684 143.927 35.4297V35.0605C143.927 34.4219 144.012 33.8184 144.182 33.25C144.358 32.6758 144.619 32.1689 144.965 31.7295C145.316 31.29 145.756 30.9443 146.283 30.6924C146.816 30.4404 147.44 30.3145 148.155 30.3145C148.899 30.3145 149.549 30.4668 150.106 30.7715C150.663 31.0703 151.099 31.4805 151.416 32.002C151.738 32.5176 151.914 33.1035 151.943 33.7598H150.396C150.367 33.3672 150.256 33.0127 150.062 32.6963C149.875 32.3799 149.617 32.1279 149.289 31.9404C148.966 31.7471 148.589 31.6504 148.155 31.6504C147.657 31.6504 147.238 31.75 146.898 31.9492C146.564 32.1426 146.298 32.4062 146.098 32.7402C145.905 33.0684 145.764 33.4346 145.676 33.8389C145.594 34.2373 145.553 34.6445 145.553 35.0605V35.4297C145.553 35.8457 145.594 36.2559 145.676 36.6602C145.758 37.0645 145.896 37.4307 146.09 37.7588C146.289 38.0869 146.555 38.3506 146.889 38.5498C147.229 38.7432 147.651 38.8398 148.155 38.8398ZM159.782 34.6123V35.9307H154.755V34.6123H159.782ZM155.098 30.4902V40H153.472V30.4902H155.098ZM161.101 30.4902V40H159.466V30.4902H161.101ZM165.038 37.4248L169.423 30.4902H171.058V40H169.423V33.0654L165.038 40H163.42V30.4902H165.038V37.4248ZM177.104 30.4902V40H175.47V30.4902H177.104ZM180.295 30.4902V31.8086H172.341V30.4902H180.295ZM184.698 40.1758C184.036 40.1758 183.435 40.0645 182.896 39.8418C182.363 39.6133 181.903 39.2939 181.516 38.8838C181.135 38.4736 180.842 37.9873 180.637 37.4248C180.432 36.8623 180.33 36.2471 180.33 35.5791V35.21C180.33 34.4365 180.444 33.748 180.672 33.1445C180.901 32.5352 181.211 32.0195 181.604 31.5977C181.997 31.1758 182.442 30.8564 182.94 30.6396C183.438 30.4229 183.954 30.3145 184.487 30.3145C185.166 30.3145 185.752 30.4316 186.245 30.666C186.743 30.9004 187.15 31.2285 187.466 31.6504C187.783 32.0664 188.017 32.5586 188.169 33.127C188.322 33.6895 188.398 34.3047 188.398 34.9727V35.7021H181.296V34.375H186.772V34.252C186.748 33.8301 186.661 33.4199 186.508 33.0215C186.362 32.623 186.127 32.2949 185.805 32.0371C185.483 31.7793 185.043 31.6504 184.487 31.6504C184.118 31.6504 183.778 31.7295 183.467 31.8877C183.157 32.04 182.89 32.2686 182.667 32.5732C182.445 32.8779 182.272 33.25 182.149 33.6895C182.026 34.1289 181.964 34.6357 181.964 35.21V35.5791C181.964 36.0303 182.026 36.4551 182.149 36.8535C182.278 37.2461 182.462 37.5918 182.703 37.8906C182.949 38.1895 183.245 38.4238 183.59 38.5938C183.942 38.7637 184.34 38.8486 184.786 38.8486C185.36 38.8486 185.846 38.7314 186.245 38.4971C186.643 38.2627 186.992 37.9492 187.29 37.5566L188.275 38.3389C188.07 38.6494 187.809 38.9453 187.493 39.2266C187.176 39.5078 186.787 39.7363 186.324 39.9121C185.867 40.0879 185.325 40.1758 184.698 40.1758ZM196.211 30.4902V31.835H191.614V30.4902H196.211ZM197.643 30.4902V40H196.017V30.4902H197.643ZM191.219 30.4902H192.853L192.607 35.0781C192.566 35.7871 192.499 36.4141 192.405 36.959C192.317 37.498 192.194 37.9609 192.036 38.3477C191.884 38.7344 191.69 39.0508 191.456 39.2969C191.227 39.5371 190.952 39.7158 190.63 39.833C190.308 39.9443 189.935 40 189.514 40H189.004V38.5674L189.355 38.541C189.607 38.5234 189.821 38.4648 189.997 38.3652C190.179 38.2656 190.331 38.1191 190.454 37.9258C190.577 37.7266 190.677 37.4717 190.753 37.1611C190.835 36.8506 190.896 36.4814 190.937 36.0537C190.984 35.626 191.019 35.1279 191.043 34.5596L191.219 30.4902ZM201.159 33.7598H204.015C204.783 33.7598 205.43 33.8945 205.957 34.1641C206.485 34.4277 206.883 34.7939 207.153 35.2627C207.428 35.7256 207.566 36.2529 207.566 36.8447C207.566 37.2842 207.49 37.6973 207.337 38.084C207.185 38.4648 206.956 38.7988 206.652 39.0859C206.353 39.373 205.981 39.5986 205.535 39.7627C205.096 39.9209 204.589 40 204.015 40H199.972V30.4902H201.598V38.6641H204.015C204.484 38.6641 204.859 38.5791 205.14 38.4092C205.421 38.2393 205.623 38.0195 205.746 37.75C205.869 37.4805 205.931 37.1992 205.931 36.9062C205.931 36.6191 205.869 36.3379 205.746 36.0625C205.623 35.7871 205.421 35.5586 205.14 35.377C204.859 35.1895 204.484 35.0957 204.015 35.0957H201.159V33.7598ZM215.607 34.6123V35.9307H210.58V34.6123H215.607ZM210.923 30.4902V40H209.297V30.4902H210.923ZM216.926 30.4902V40H215.291V30.4902H216.926ZM218.674 35.3506V35.1484C218.674 34.4629 218.774 33.8271 218.973 33.2412C219.172 32.6494 219.459 32.1367 219.834 31.7031C220.209 31.2637 220.663 30.9238 221.196 30.6836C221.73 30.4375 222.327 30.3145 222.989 30.3145C223.657 30.3145 224.258 30.4375 224.791 30.6836C225.33 30.9238 225.787 31.2637 226.162 31.7031C226.543 32.1367 226.833 32.6494 227.032 33.2412C227.232 33.8271 227.331 34.4629 227.331 35.1484V35.3506C227.331 36.0361 227.232 36.6719 227.032 37.2578C226.833 37.8438 226.543 38.3564 226.162 38.7959C225.787 39.2295 225.333 39.5693 224.8 39.8154C224.273 40.0557 223.675 40.1758 223.007 40.1758C222.339 40.1758 221.738 40.0557 221.205 39.8154C220.672 39.5693 220.215 39.2295 219.834 38.7959C219.459 38.3564 219.172 37.8438 218.973 37.2578C218.774 36.6719 218.674 36.0361 218.674 35.3506ZM220.3 35.1484V35.3506C220.3 35.8252 220.356 36.2734 220.467 36.6953C220.578 37.1113 220.745 37.4805 220.968 37.8027C221.196 38.125 221.481 38.3799 221.821 38.5674C222.16 38.749 222.556 38.8398 223.007 38.8398C223.452 38.8398 223.842 38.749 224.176 38.5674C224.516 38.3799 224.797 38.125 225.02 37.8027C225.242 37.4805 225.409 37.1113 225.521 36.6953C225.638 36.2734 225.696 35.8252 225.696 35.3506V35.1484C225.696 34.6797 225.638 34.2373 225.521 33.8213C225.409 33.3994 225.239 33.0273 225.011 32.7051C224.788 32.377 224.507 32.1191 224.167 31.9316C223.833 31.7441 223.441 31.6504 222.989 31.6504C222.544 31.6504 222.152 31.7441 221.812 31.9316C221.478 32.1191 221.196 32.377 220.968 32.7051C220.745 33.0273 220.578 33.3994 220.467 33.8213C220.356 34.2373 220.3 34.6797 220.3 35.1484ZM230.688 37.4248L235.074 30.4902H236.709V40H235.074V33.0654L230.688 40H229.071V30.4902H230.688V37.4248ZM234.186 27.0449H235.505C235.505 27.502 235.399 27.9092 235.188 28.2666C234.977 28.6182 234.675 28.8936 234.283 29.0928C233.89 29.292 233.424 29.3916 232.885 29.3916C232.071 29.3916 231.426 29.1748 230.952 28.7412C230.483 28.3018 230.249 27.7363 230.249 27.0449H231.567C231.567 27.3906 231.667 27.6953 231.866 27.959C232.065 28.2227 232.405 28.3545 232.885 28.3545C233.354 28.3545 233.688 28.2227 233.887 27.959C234.087 27.6953 234.186 27.3906 234.186 27.0449ZM246.455 35.4561H244.706V34.4541H246.323C246.774 34.4541 247.131 34.3984 247.395 34.2871C247.659 34.1699 247.846 34.0088 247.958 33.8037C248.069 33.5986 248.125 33.3584 248.125 33.083C248.125 32.8369 248.06 32.6055 247.931 32.3887C247.808 32.166 247.609 31.9873 247.334 31.8525C247.058 31.7119 246.689 31.6416 246.226 31.6416C245.851 31.6416 245.511 31.709 245.207 31.8438C244.902 31.9727 244.659 32.1514 244.477 32.3799C244.301 32.6025 244.213 32.8545 244.213 33.1357H242.587C242.587 32.5557 242.751 32.0576 243.08 31.6416C243.414 31.2197 243.856 30.8945 244.407 30.666C244.963 30.4375 245.57 30.3232 246.226 30.3232C246.777 30.3232 247.269 30.3848 247.703 30.5078C248.142 30.625 248.514 30.8008 248.819 31.0352C249.124 31.2637 249.355 31.5508 249.513 31.8965C249.677 32.2363 249.759 32.6318 249.759 33.083C249.759 33.4053 249.683 33.71 249.531 33.9971C249.378 34.2842 249.159 34.5391 248.872 34.7617C248.585 34.9785 248.236 35.1484 247.826 35.2715C247.421 35.3945 246.964 35.4561 246.455 35.4561ZM244.706 34.8408H246.455C247.023 34.8408 247.524 34.8965 247.958 35.0078C248.391 35.1133 248.754 35.2715 249.047 35.4824C249.34 35.6934 249.56 35.9541 249.707 36.2646C249.859 36.5693 249.935 36.9209 249.935 37.3193C249.935 37.7646 249.844 38.166 249.663 38.5234C249.487 38.875 249.235 39.1738 248.907 39.4199C248.579 39.666 248.186 39.8535 247.729 39.9824C247.278 40.1113 246.777 40.1758 246.226 40.1758C245.611 40.1758 245.013 40.0703 244.433 39.8594C243.853 39.6484 243.376 39.3232 243.001 38.8838C242.626 38.4385 242.438 37.873 242.438 37.1875H244.064C244.064 37.4746 244.155 37.7471 244.336 38.0049C244.518 38.2627 244.77 38.4707 245.092 38.6289C245.42 38.7871 245.798 38.8662 246.226 38.8662C246.683 38.8662 247.064 38.7959 247.369 38.6553C247.673 38.5146 247.902 38.3271 248.054 38.0928C248.212 37.8584 248.292 37.6035 248.292 37.3281C248.292 36.9707 248.221 36.6836 248.081 36.4668C247.94 36.25 247.723 36.0918 247.43 35.9922C247.143 35.8867 246.774 35.834 246.323 35.834H244.706V34.8408ZM257.212 38.374V33.4785C257.212 33.1035 257.136 32.7783 256.983 32.5029C256.837 32.2217 256.614 32.0049 256.315 31.8525C256.017 31.7002 255.647 31.624 255.208 31.624C254.798 31.624 254.437 31.6943 254.127 31.835C253.822 31.9756 253.582 32.1602 253.406 32.3887C253.236 32.6172 253.151 32.8633 253.151 33.127H251.525C251.525 32.7871 251.613 32.4502 251.789 32.1162C251.965 31.7822 252.217 31.4805 252.545 31.2109C252.879 30.9355 253.277 30.7188 253.74 30.5605C254.209 30.3965 254.73 30.3145 255.305 30.3145C255.996 30.3145 256.605 30.4316 257.133 30.666C257.666 30.9004 258.082 31.2549 258.381 31.7295C258.686 32.1982 258.838 32.7871 258.838 33.4961V37.9258C258.838 38.2422 258.864 38.5791 258.917 38.9365C258.976 39.2939 259.061 39.6016 259.172 39.8594V40H257.476C257.394 39.8125 257.329 39.5635 257.282 39.2529C257.235 38.9365 257.212 38.6436 257.212 38.374ZM257.493 34.2344L257.511 35.377H255.867C255.404 35.377 254.991 35.415 254.628 35.4912C254.265 35.5615 253.96 35.6699 253.714 35.8164C253.468 35.9629 253.28 36.1475 253.151 36.3701C253.022 36.5869 252.958 36.8418 252.958 37.1348C252.958 37.4336 253.025 37.7061 253.16 37.9521C253.295 38.1982 253.497 38.3945 253.767 38.541C254.042 38.6816 254.379 38.752 254.777 38.752C255.275 38.752 255.715 38.6465 256.096 38.4355C256.477 38.2246 256.778 37.9668 257.001 37.6621C257.229 37.3574 257.353 37.0615 257.37 36.7744L258.064 37.5566C258.023 37.8027 257.912 38.0752 257.73 38.374C257.549 38.6729 257.306 38.96 257.001 39.2354C256.702 39.5049 256.345 39.7305 255.929 39.9121C255.519 40.0879 255.056 40.1758 254.54 40.1758C253.895 40.1758 253.33 40.0498 252.844 39.7979C252.363 39.5459 251.988 39.209 251.719 38.7871C251.455 38.3594 251.323 37.8818 251.323 37.3545C251.323 36.8447 251.423 36.3965 251.622 36.0098C251.821 35.6172 252.108 35.292 252.483 35.0342C252.858 34.7705 253.31 34.5713 253.837 34.4365C254.364 34.3018 254.953 34.2344 255.603 34.2344H257.493ZM267.292 30.4902V31.835H262.485V30.4902H267.292ZM262.722 30.4902V40H261.096V30.4902H262.722ZM268.734 30.4902V40H267.099V30.4902H268.734ZM272.662 37.4248L277.048 30.4902H278.682V40H277.048V33.0654L272.662 40H271.045V30.4902H272.662V37.4248ZM284.658 38.8398C285.045 38.8398 285.403 38.7607 285.731 38.6025C286.059 38.4443 286.328 38.2275 286.539 37.9521C286.75 37.6709 286.87 37.3516 286.9 36.9941H288.447C288.417 37.5566 288.227 38.0811 287.875 38.5674C287.53 39.0479 287.075 39.4375 286.513 39.7363C285.95 40.0293 285.332 40.1758 284.658 40.1758C283.944 40.1758 283.32 40.0498 282.786 39.7979C282.259 39.5459 281.82 39.2002 281.468 38.7607C281.122 38.3213 280.862 37.8174 280.686 37.249C280.516 36.6748 280.431 36.0684 280.431 35.4297V35.0605C280.431 34.4219 280.516 33.8184 280.686 33.25C280.862 32.6758 281.122 32.1689 281.468 31.7295C281.82 31.29 282.259 30.9443 282.786 30.6924C283.32 30.4404 283.944 30.3145 284.658 30.3145C285.403 30.3145 286.053 30.4668 286.61 30.7715C287.166 31.0703 287.603 31.4805 287.919 32.002C288.241 32.5176 288.417 33.1035 288.447 33.7598H286.9C286.87 33.3672 286.759 33.0127 286.566 32.6963C286.378 32.3799 286.12 32.1279 285.792 31.9404C285.47 31.7471 285.092 31.6504 284.658 31.6504C284.16 31.6504 283.741 31.75 283.402 31.9492C283.068 32.1426 282.801 32.4062 282.602 32.7402C282.408 33.0684 282.268 33.4346 282.18 33.8389C282.098 34.2373 282.057 34.6445 282.057 35.0605V35.4297C282.057 35.8457 282.098 36.2559 282.18 36.6602C282.262 37.0645 282.4 37.4307 282.593 37.7588C282.792 38.0869 283.059 38.3506 283.393 38.5498C283.733 38.7432 284.155 38.8398 284.658 38.8398ZM291.601 30.4902V40H289.975V30.4902H291.601ZM297.842 30.4902L293.333 35.9395H291.056L290.81 34.5156H292.674L295.864 30.4902H297.842ZM296.092 40L292.594 35.6934L293.64 34.5156L298.158 40H296.092ZM300.891 37.4248L305.277 30.4902H306.911V40H305.277V33.0654L300.891 40H299.274V30.4902H300.891V37.4248ZM116.402 59.8164H113.282L113.264 58.5156H115.813C116.317 58.5156 116.736 58.4658 117.07 58.3662C117.41 58.2666 117.664 58.1172 117.834 57.918C118.004 57.7188 118.089 57.4727 118.089 57.1797C118.089 56.9512 118.039 56.752 117.94 56.582C117.846 56.4062 117.702 56.2627 117.509 56.1514C117.316 56.0342 117.076 55.9492 116.788 55.8965C116.507 55.8379 116.176 55.8086 115.795 55.8086H113.712V64H112.086V54.4902H115.795C116.399 54.4902 116.941 54.543 117.421 54.6484C117.908 54.7539 118.321 54.915 118.661 55.1318C119.006 55.3428 119.27 55.6123 119.452 55.9404C119.633 56.2686 119.724 56.6553 119.724 57.1006C119.724 57.3877 119.665 57.6602 119.548 57.918C119.431 58.1758 119.258 58.4043 119.03 58.6035C118.801 58.8027 118.52 58.9668 118.186 59.0957C117.852 59.2188 117.468 59.2979 117.035 59.333L116.402 59.8164ZM116.402 64H112.693L113.501 62.6816H116.402C116.853 62.6816 117.228 62.626 117.527 62.5146C117.826 62.3975 118.048 62.2334 118.195 62.0225C118.347 61.8057 118.423 61.5479 118.423 61.249C118.423 60.9502 118.347 60.6953 118.195 60.4844C118.048 60.2676 117.826 60.1035 117.527 59.9922C117.228 59.875 116.853 59.8164 116.402 59.8164H113.932L113.95 58.5156H117.035L117.623 59.0078C118.145 59.0488 118.587 59.1777 118.951 59.3945C119.314 59.6113 119.589 59.8867 119.777 60.2207C119.964 60.5488 120.058 60.9062 120.058 61.293C120.058 61.7383 119.973 62.1309 119.803 62.4707C119.639 62.8105 119.399 63.0947 119.082 63.3232C118.766 63.5459 118.382 63.7158 117.931 63.833C117.48 63.9443 116.97 64 116.402 64ZM136.756 59.4121V59.5967C136.756 60.2646 136.683 60.8799 136.536 61.4424C136.39 61.999 136.17 62.4824 135.877 62.8926C135.59 63.3027 135.233 63.6221 134.805 63.8506C134.377 64.0732 133.882 64.1846 133.32 64.1846C132.857 64.1846 132.449 64.123 132.098 64C131.746 63.8711 131.448 63.6865 131.201 63.4463C130.961 63.2061 130.768 62.9189 130.621 62.585C130.481 62.2451 130.384 61.8643 130.331 61.4424V57.2236C130.384 56.7725 130.481 56.3682 130.621 56.0107C130.768 55.6533 130.961 55.3486 131.201 55.0967C131.448 54.8447 131.743 54.6514 132.089 54.5166C132.435 54.3818 132.839 54.3145 133.302 54.3145C133.759 54.3145 134.169 54.3965 134.532 54.5605C134.902 54.7188 135.224 54.9473 135.499 55.2461C135.781 55.5449 136.012 55.9053 136.194 56.3271C136.381 56.7432 136.522 57.2119 136.615 57.7334C136.709 58.2549 136.756 58.8145 136.756 59.4121ZM135.13 59.5967V59.4121C135.13 59.002 135.101 58.6123 135.042 58.2432C134.989 57.8682 134.905 57.5254 134.787 57.2148C134.676 56.8984 134.53 56.623 134.348 56.3887C134.166 56.1543 133.947 55.9727 133.689 55.8438C133.437 55.7148 133.147 55.6504 132.819 55.6504C132.467 55.6504 132.174 55.6943 131.94 55.7822C131.711 55.8701 131.532 55.9873 131.404 56.1338C131.275 56.2744 131.181 56.4238 131.122 56.582V62.0928C131.193 62.2217 131.295 62.3447 131.43 62.4619C131.565 62.5732 131.746 62.667 131.975 62.7432C132.203 62.8135 132.49 62.8486 132.836 62.8486C133.246 62.8486 133.595 62.7666 133.882 62.6025C134.175 62.4326 134.412 62.1982 134.594 61.8994C134.781 61.6006 134.916 61.2549 134.998 60.8623C135.086 60.4697 135.13 60.0479 135.13 59.5967ZM125.462 59.5967V59.4121C125.462 58.8145 125.509 58.2549 125.603 57.7334C125.697 57.2119 125.837 56.7432 126.025 56.3271C126.212 55.9053 126.444 55.5449 126.719 55.2461C127 54.9473 127.323 54.7188 127.686 54.5605C128.055 54.3965 128.468 54.3145 128.925 54.3145C129.376 54.3145 129.769 54.3818 130.103 54.5166C130.443 54.6514 130.73 54.8447 130.964 55.0967C131.198 55.3486 131.386 55.6533 131.527 56.0107C131.667 56.3682 131.767 56.7725 131.825 57.2236V61.2754C131.773 61.7207 131.676 62.1221 131.535 62.4795C131.395 62.8369 131.207 63.1445 130.973 63.4023C130.739 63.6543 130.448 63.8477 130.103 63.9824C129.763 64.1172 129.364 64.1846 128.907 64.1846C128.345 64.1846 127.85 64.0732 127.422 63.8506C126.994 63.6221 126.634 63.3027 126.341 62.8926C126.054 62.4824 125.834 61.999 125.682 61.4424C125.535 60.8799 125.462 60.2646 125.462 59.5967ZM127.097 59.4121V59.5967C127.097 60.0479 127.135 60.4697 127.211 60.8623C127.293 61.2549 127.419 61.6006 127.589 61.8994C127.765 62.1982 127.993 62.4326 128.275 62.6025C128.556 62.7666 128.902 62.8486 129.312 62.8486C129.663 62.8486 129.953 62.8047 130.182 62.7168C130.41 62.6289 130.592 62.5146 130.727 62.374C130.862 62.2334 130.964 62.0869 131.034 61.9346V56.582C130.976 56.4238 130.879 56.2744 130.744 56.1338C130.615 55.9873 130.437 55.8701 130.208 55.7822C129.98 55.6943 129.687 55.6504 129.329 55.6504C128.919 55.6504 128.571 55.75 128.283 55.9492C127.996 56.1484 127.765 56.4209 127.589 56.7666C127.419 57.1123 127.293 57.5137 127.211 57.9707C127.135 58.4219 127.097 58.9023 127.097 59.4121ZM130.226 67.6562V50.5H131.861V67.6562H130.226ZM138.012 59.3506V59.1484C138.012 58.4629 138.112 57.8271 138.311 57.2412C138.51 56.6494 138.798 56.1367 139.173 55.7031C139.548 55.2637 140.002 54.9238 140.535 54.6836C141.068 54.4375 141.666 54.3145 142.328 54.3145C142.996 54.3145 143.596 54.4375 144.13 54.6836C144.669 54.9238 145.126 55.2637 145.501 55.7031C145.882 56.1367 146.172 56.6494 146.371 57.2412C146.57 57.8271 146.67 58.4629 146.67 59.1484V59.3506C146.67 60.0361 146.57 60.6719 146.371 61.2578C146.172 61.8438 145.882 62.3564 145.501 62.7959C145.126 63.2295 144.672 63.5693 144.138 63.8154C143.611 64.0557 143.013 64.1758 142.345 64.1758C141.677 64.1758 141.077 64.0557 140.544 63.8154C140.01 63.5693 139.553 63.2295 139.173 62.7959C138.798 62.3564 138.51 61.8438 138.311 61.2578C138.112 60.6719 138.012 60.0361 138.012 59.3506ZM139.638 59.1484V59.3506C139.638 59.8252 139.694 60.2734 139.805 60.6953C139.917 61.1113 140.084 61.4805 140.306 61.8027C140.535 62.125 140.819 62.3799 141.159 62.5674C141.499 62.749 141.894 62.8398 142.345 62.8398C142.791 62.8398 143.18 62.749 143.514 62.5674C143.854 62.3799 144.135 62.125 144.358 61.8027C144.581 61.4805 144.748 61.1113 144.859 60.6953C144.976 60.2734 145.035 59.8252 145.035 59.3506V59.1484C145.035 58.6797 144.976 58.2373 144.859 57.8213C144.748 57.3994 144.578 57.0273 144.349 56.7051C144.127 56.377 143.845 56.1191 143.506 55.9316C143.172 55.7441 142.779 55.6504 142.328 55.6504C141.882 55.6504 141.49 55.7441 141.15 55.9316C140.816 56.1191 140.535 56.377 140.306 56.7051C140.084 57.0273 139.917 57.3994 139.805 57.8213C139.694 58.2373 139.638 58.6797 139.638 59.1484ZM149.895 56.3184V67.6562H148.26V54.4902H149.754L149.895 56.3184ZM156.302 59.166V59.3506C156.302 60.042 156.22 60.6836 156.056 61.2754C155.892 61.8613 155.651 62.3711 155.335 62.8047C155.025 63.2383 154.641 63.5752 154.184 63.8154C153.727 64.0557 153.202 64.1758 152.61 64.1758C152.007 64.1758 151.474 64.0762 151.011 63.877C150.548 63.6777 150.155 63.3877 149.833 63.0068C149.511 62.626 149.253 62.1689 149.06 61.6357C148.872 61.1025 148.743 60.502 148.673 59.834V58.8496C148.743 58.1465 148.875 57.5166 149.068 56.96C149.262 56.4033 149.517 55.9287 149.833 55.5361C150.155 55.1377 150.545 54.8359 151.002 54.6309C151.459 54.4199 151.986 54.3145 152.584 54.3145C153.182 54.3145 153.712 54.4316 154.175 54.666C154.638 54.8945 155.027 55.2227 155.344 55.6504C155.66 56.0781 155.898 56.5908 156.056 57.1885C156.22 57.7803 156.302 58.4395 156.302 59.166ZM154.667 59.3506V59.166C154.667 58.6914 154.617 58.2461 154.518 57.8301C154.418 57.4082 154.263 57.0391 154.052 56.7227C153.847 56.4004 153.583 56.1484 153.261 55.9668C152.939 55.7793 152.555 55.6855 152.109 55.6855C151.699 55.6855 151.342 55.7559 151.037 55.8965C150.738 56.0371 150.484 56.2275 150.273 56.4678C150.062 56.7021 149.889 56.9717 149.754 57.2764C149.625 57.5752 149.528 57.8857 149.464 58.208V60.4844C149.581 60.8945 149.745 61.2812 149.956 61.6445C150.167 62.002 150.448 62.292 150.8 62.5146C151.151 62.7314 151.594 62.8398 152.127 62.8398C152.567 62.8398 152.944 62.749 153.261 62.5674C153.583 62.3799 153.847 62.125 154.052 61.8027C154.263 61.4805 154.418 61.1113 154.518 60.6953C154.617 60.2734 154.667 59.8252 154.667 59.3506ZM163.403 61.8379L166.637 54.4902H168.202L163.965 64H162.84L158.622 54.4902H160.186L163.403 61.8379ZM159.711 54.4902V64H158.086V54.4902H159.711ZM167.042 64V54.4902H168.676V64H167.042ZM176.463 62.374V57.4785C176.463 57.1035 176.387 56.7783 176.234 56.5029C176.088 56.2217 175.865 56.0049 175.566 55.8525C175.268 55.7002 174.898 55.624 174.459 55.624C174.049 55.624 173.688 55.6943 173.378 55.835C173.073 55.9756 172.833 56.1602 172.657 56.3887C172.487 56.6172 172.402 56.8633 172.402 57.127H170.776C170.776 56.7871 170.864 56.4502 171.04 56.1162C171.216 55.7822 171.468 55.4805 171.796 55.2109C172.13 54.9355 172.528 54.7188 172.991 54.5605C173.46 54.3965 173.981 54.3145 174.556 54.3145C175.247 54.3145 175.856 54.4316 176.384 54.666C176.917 54.9004 177.333 55.2549 177.632 55.7295C177.937 56.1982 178.089 56.7871 178.089 57.4961V61.9258C178.089 62.2422 178.115 62.5791 178.168 62.9365C178.227 63.2939 178.312 63.6016 178.423 63.8594V64H176.727C176.645 63.8125 176.58 63.5635 176.533 63.2529C176.486 62.9365 176.463 62.6436 176.463 62.374ZM176.744 58.2344L176.762 59.377H175.118C174.655 59.377 174.242 59.415 173.879 59.4912C173.516 59.5615 173.211 59.6699 172.965 59.8164C172.719 59.9629 172.531 60.1475 172.402 60.3701C172.273 60.5869 172.209 60.8418 172.209 61.1348C172.209 61.4336 172.276 61.7061 172.411 61.9521C172.546 62.1982 172.748 62.3945 173.018 62.541C173.293 62.6816 173.63 62.752 174.028 62.752C174.526 62.752 174.966 62.6465 175.347 62.4355C175.728 62.2246 176.029 61.9668 176.252 61.6621C176.48 61.3574 176.604 61.0615 176.621 60.7744L177.315 61.5566C177.274 61.8027 177.163 62.0752 176.981 62.374C176.8 62.6729 176.557 62.96 176.252 63.2354C175.953 63.5049 175.596 63.7305 175.18 63.9121C174.77 64.0879 174.307 64.1758 173.791 64.1758C173.146 64.1758 172.581 64.0498 172.095 63.7979C171.614 63.5459 171.239 63.209 170.97 62.7871C170.706 62.3594 170.574 61.8818 170.574 61.3545C170.574 60.8447 170.674 60.3965 170.873 60.0098C171.072 59.6172 171.359 59.292 171.734 59.0342C172.109 58.7705 172.561 58.5713 173.088 58.4365C173.615 58.3018 174.204 58.2344 174.854 58.2344H176.744ZM183.942 54.4902V64H182.307V54.4902H183.942ZM187.132 54.4902V55.8086H179.178V54.4902H187.132ZM191.535 64.1758C190.873 64.1758 190.272 64.0645 189.733 63.8418C189.2 63.6133 188.74 63.2939 188.353 62.8838C187.973 62.4736 187.68 61.9873 187.474 61.4248C187.269 60.8623 187.167 60.2471 187.167 59.5791V59.21C187.167 58.4365 187.281 57.748 187.51 57.1445C187.738 56.5352 188.049 56.0195 188.441 55.5977C188.834 55.1758 189.279 54.8564 189.777 54.6396C190.275 54.4229 190.791 54.3145 191.324 54.3145C192.004 54.3145 192.59 54.4316 193.082 54.666C193.58 54.9004 193.987 55.2285 194.304 55.6504C194.62 56.0664 194.854 56.5586 195.007 57.127C195.159 57.6895 195.235 58.3047 195.235 58.9727V59.7021H188.134V58.375H193.609V58.252C193.586 57.8301 193.498 57.4199 193.346 57.0215C193.199 56.623 192.965 56.2949 192.642 56.0371C192.32 55.7793 191.881 55.6504 191.324 55.6504C190.955 55.6504 190.615 55.7295 190.305 55.8877C189.994 56.04 189.727 56.2686 189.505 56.5732C189.282 56.8779 189.109 57.25 188.986 57.6895C188.863 58.1289 188.802 58.6357 188.802 59.21V59.5791C188.802 60.0303 188.863 60.4551 188.986 60.8535C189.115 61.2461 189.3 61.5918 189.54 61.8906C189.786 62.1895 190.082 62.4238 190.428 62.5938C190.779 62.7637 191.178 62.8486 191.623 62.8486C192.197 62.8486 192.683 62.7314 193.082 62.4971C193.48 62.2627 193.829 61.9492 194.128 61.5566L195.112 62.3389C194.907 62.6494 194.646 62.9453 194.33 63.2266C194.014 63.5078 193.624 63.7363 193.161 63.9121C192.704 64.0879 192.162 64.1758 191.535 64.1758ZM202.063 51.2031L205.139 56.1074L208.216 51.2031H210.193L206.15 57.54L210.29 64H208.295L205.139 58.999L201.984 64H199.989L204.129 57.54L200.086 51.2031H202.063ZM212.346 51.2031H213.989L218.182 61.6357L222.365 51.2031H224.018L218.815 64H217.531L212.346 51.2031ZM211.81 51.2031H213.26L213.497 59.0078V64H211.81V51.2031ZM223.095 51.2031H224.545V64H222.858V59.0078L223.095 51.2031ZM234.845 62.6201V64H228.447V62.6201H234.845ZM228.781 51.2031V64H227.085V51.2031H228.781Z" fill="#17120F"/>
<path d="M173 92C173 91.7239 172.776 91.5 172.5 91.5C172.224 91.5 172 91.7239 172 92L173 92ZM172.146 124.354C172.342 124.549 172.658 124.549 172.854 124.354L176.036 121.172C176.231 120.976 176.231 120.66 176.036 120.464C175.84 120.269 175.524 120.269 175.328 120.464L172.5 123.293L169.672 120.464C169.476 120.269 169.16 120.269 168.964 120.464C168.769 120.66 168.769 120.976 168.964 121.172L172.146 124.354ZM172 92L172 124L173 124L173 92L172 92Z" fill="#17120F"/>
<rect x="0.5" y="124.5" width="344" height="95" rx="15.5" stroke="#17120F"/>
<path d="M87.7161 171.856H86.1956V170.775H87.6546C88.2991 170.775 88.8206 170.685 89.2191 170.503C89.6175 170.321 89.9075 170.069 90.0892 169.747C90.2708 169.425 90.3616 169.053 90.3616 168.631C90.3616 168.227 90.262 167.857 90.0628 167.523C89.8636 167.184 89.556 166.914 89.14 166.715C88.7239 166.51 88.1878 166.407 87.5316 166.407C87.0394 166.407 86.5941 166.501 86.1956 166.688C85.7972 166.87 85.4808 167.125 85.2464 167.453C85.012 167.775 84.8948 168.147 84.8948 168.569H83.1986C83.1986 168.024 83.3128 167.535 83.5413 167.102C83.7698 166.662 84.0833 166.29 84.4818 165.985C84.8802 165.675 85.3402 165.438 85.8616 165.273C86.389 165.109 86.9456 165.027 87.5316 165.027C88.2171 165.027 88.8382 165.106 89.3948 165.265C89.9515 165.417 90.429 165.646 90.8275 165.95C91.2259 166.255 91.5306 166.633 91.7415 167.084C91.9525 167.535 92.0579 168.06 92.0579 168.657C92.0579 169.097 91.9554 169.51 91.7503 169.896C91.5452 170.283 91.2523 170.623 90.8714 170.916C90.4905 171.209 90.0335 171.44 89.5003 171.61C88.9671 171.774 88.3724 171.856 87.7161 171.856ZM86.1956 171.109H87.7161C88.4368 171.109 89.0784 171.183 89.6409 171.329C90.2034 171.476 90.678 171.689 91.0648 171.971C91.4515 172.252 91.7445 172.601 91.9437 173.017C92.1488 173.427 92.2513 173.898 92.2513 174.432C92.2513 175.029 92.1341 175.56 91.8997 176.022C91.6712 176.485 91.346 176.878 90.9241 177.2C90.5023 177.522 90.0013 177.766 89.4212 177.93C88.847 178.094 88.2171 178.176 87.5316 178.176C86.9808 178.176 86.4359 178.105 85.8968 177.965C85.3636 177.818 84.8802 177.596 84.4466 177.297C84.013 176.992 83.6644 176.605 83.4007 176.137C83.1429 175.668 83.014 175.105 83.014 174.449H84.7103C84.7103 174.877 84.8275 175.27 85.0618 175.627C85.3021 175.984 85.6331 176.271 86.055 176.488C86.4769 176.699 86.9691 176.805 87.5316 176.805C88.1761 176.805 88.721 176.705 89.1663 176.506C89.6175 176.301 89.9603 176.022 90.1946 175.671C90.4349 175.313 90.555 174.912 90.555 174.467C90.555 174.074 90.4905 173.734 90.3616 173.447C90.2386 173.154 90.054 172.914 89.8079 172.727C89.5677 172.539 89.2659 172.401 88.9027 172.313C88.5452 172.22 88.1292 172.173 87.6546 172.173H86.1956V171.109ZM99.405 176.374V171.479C99.405 171.104 99.3289 170.778 99.1765 170.503C99.03 170.222 98.8074 170.005 98.5086 169.853C98.2097 169.7 97.8406 169.624 97.4011 169.624C96.991 169.624 96.6306 169.694 96.3201 169.835C96.0154 169.976 95.7752 170.16 95.5994 170.389C95.4295 170.617 95.3445 170.863 95.3445 171.127H93.7185C93.7185 170.787 93.8064 170.45 93.9822 170.116C94.158 169.782 94.4099 169.48 94.738 169.211C95.072 168.936 95.4705 168.719 95.9334 168.561C96.4021 168.396 96.9236 168.314 97.4978 168.314C98.1892 168.314 98.7986 168.432 99.3259 168.666C99.8591 168.9 100.275 169.255 100.574 169.729C100.879 170.198 101.031 170.787 101.031 171.496V175.926C101.031 176.242 101.057 176.579 101.11 176.937C101.169 177.294 101.254 177.602 101.365 177.859V178H99.6687C99.5867 177.812 99.5222 177.563 99.4754 177.253C99.4285 176.937 99.405 176.644 99.405 176.374ZM99.6863 172.234L99.7039 173.377H98.0603C97.5974 173.377 97.1843 173.415 96.8211 173.491C96.4578 173.562 96.1531 173.67 95.907 173.816C95.6609 173.963 95.4734 174.147 95.3445 174.37C95.2156 174.587 95.1511 174.842 95.1511 175.135C95.1511 175.434 95.2185 175.706 95.3533 175.952C95.488 176.198 95.6902 176.395 95.9597 176.541C96.2351 176.682 96.572 176.752 96.9705 176.752C97.4685 176.752 97.908 176.646 98.2888 176.436C98.6697 176.225 98.9714 175.967 99.1941 175.662C99.4226 175.357 99.5457 175.062 99.5632 174.774L100.258 175.557C100.217 175.803 100.105 176.075 99.9236 176.374C99.742 176.673 99.4988 176.96 99.1941 177.235C98.8953 177.505 98.5379 177.73 98.1218 177.912C97.7117 178.088 97.2488 178.176 96.7332 178.176C96.0886 178.176 95.5232 178.05 95.0369 177.798C94.5564 177.546 94.1814 177.209 93.9119 176.787C93.6482 176.359 93.5164 175.882 93.5164 175.354C93.5164 174.845 93.616 174.396 93.8152 174.01C94.0144 173.617 94.3015 173.292 94.6765 173.034C95.0515 172.771 95.5027 172.571 96.03 172.437C96.5574 172.302 97.1463 172.234 97.7966 172.234H99.6863ZM109.292 168.49V169.835H104.898V178H103.272V168.49H109.292ZM111.893 170.318V181.656H110.258V168.49H111.753L111.893 170.318ZM118.3 173.166V173.351C118.3 174.042 118.218 174.684 118.054 175.275C117.89 175.861 117.65 176.371 117.334 176.805C117.023 177.238 116.639 177.575 116.182 177.815C115.725 178.056 115.201 178.176 114.609 178.176C114.006 178.176 113.472 178.076 113.009 177.877C112.547 177.678 112.154 177.388 111.832 177.007C111.509 176.626 111.252 176.169 111.058 175.636C110.871 175.103 110.742 174.502 110.672 173.834V172.85C110.742 172.146 110.874 171.517 111.067 170.96C111.26 170.403 111.515 169.929 111.832 169.536C112.154 169.138 112.544 168.836 113.001 168.631C113.458 168.42 113.985 168.314 114.583 168.314C115.18 168.314 115.711 168.432 116.173 168.666C116.636 168.895 117.026 169.223 117.342 169.65C117.659 170.078 117.896 170.591 118.054 171.188C118.218 171.78 118.3 172.439 118.3 173.166ZM116.666 173.351V173.166C116.666 172.691 116.616 172.246 116.516 171.83C116.417 171.408 116.261 171.039 116.05 170.723C115.845 170.4 115.582 170.148 115.259 169.967C114.937 169.779 114.553 169.686 114.108 169.686C113.698 169.686 113.34 169.756 113.036 169.896C112.737 170.037 112.482 170.228 112.271 170.468C112.06 170.702 111.887 170.972 111.753 171.276C111.624 171.575 111.527 171.886 111.463 172.208V174.484C111.58 174.895 111.744 175.281 111.955 175.645C112.166 176.002 112.447 176.292 112.798 176.515C113.15 176.731 113.592 176.84 114.126 176.84C114.565 176.84 114.943 176.749 115.259 176.567C115.582 176.38 115.845 176.125 116.05 175.803C116.261 175.48 116.417 175.111 116.516 174.695C116.616 174.273 116.666 173.825 116.666 173.351ZM122.501 177.016L125.147 168.49H126.887L123.072 179.468C122.984 179.702 122.867 179.954 122.721 180.224C122.58 180.499 122.399 180.76 122.176 181.006C121.953 181.252 121.684 181.451 121.367 181.604C121.057 181.762 120.685 181.841 120.251 181.841C120.122 181.841 119.958 181.823 119.759 181.788C119.56 181.753 119.419 181.724 119.337 181.7L119.328 180.382C119.375 180.388 119.448 180.394 119.548 180.399C119.653 180.411 119.727 180.417 119.768 180.417C120.137 180.417 120.45 180.367 120.708 180.268C120.966 180.174 121.183 180.013 121.358 179.784C121.54 179.562 121.695 179.254 121.824 178.861L122.501 177.016ZM120.559 168.49L123.028 175.873L123.45 177.587L122.281 178.185L118.783 168.49H120.559ZM131.465 173.456H129.716V172.454H131.334C131.785 172.454 132.142 172.398 132.406 172.287C132.669 172.17 132.857 172.009 132.968 171.804C133.08 171.599 133.135 171.358 133.135 171.083C133.135 170.837 133.071 170.605 132.942 170.389C132.819 170.166 132.62 169.987 132.344 169.853C132.069 169.712 131.7 169.642 131.237 169.642C130.862 169.642 130.522 169.709 130.217 169.844C129.913 169.973 129.669 170.151 129.488 170.38C129.312 170.603 129.224 170.854 129.224 171.136H127.598C127.598 170.556 127.762 170.058 128.09 169.642C128.424 169.22 128.867 168.895 129.417 168.666C129.974 168.438 130.581 168.323 131.237 168.323C131.788 168.323 132.28 168.385 132.713 168.508C133.153 168.625 133.525 168.801 133.83 169.035C134.134 169.264 134.366 169.551 134.524 169.896C134.688 170.236 134.77 170.632 134.77 171.083C134.77 171.405 134.694 171.71 134.542 171.997C134.389 172.284 134.169 172.539 133.882 172.762C133.595 172.979 133.247 173.148 132.836 173.271C132.432 173.395 131.975 173.456 131.465 173.456ZM129.716 172.841H131.465C132.034 172.841 132.535 172.896 132.968 173.008C133.402 173.113 133.765 173.271 134.058 173.482C134.351 173.693 134.571 173.954 134.717 174.265C134.87 174.569 134.946 174.921 134.946 175.319C134.946 175.765 134.855 176.166 134.673 176.523C134.498 176.875 134.246 177.174 133.917 177.42C133.589 177.666 133.197 177.854 132.74 177.982C132.289 178.111 131.788 178.176 131.237 178.176C130.622 178.176 130.024 178.07 129.444 177.859C128.864 177.648 128.386 177.323 128.011 176.884C127.636 176.438 127.449 175.873 127.449 175.188H129.075C129.075 175.475 129.166 175.747 129.347 176.005C129.529 176.263 129.781 176.471 130.103 176.629C130.431 176.787 130.809 176.866 131.237 176.866C131.694 176.866 132.075 176.796 132.379 176.655C132.684 176.515 132.913 176.327 133.065 176.093C133.223 175.858 133.302 175.604 133.302 175.328C133.302 174.971 133.232 174.684 133.091 174.467C132.951 174.25 132.734 174.092 132.441 173.992C132.154 173.887 131.785 173.834 131.334 173.834H129.716V172.841ZM138.382 168.49V178H136.756V168.49H138.382ZM144.622 168.49L140.113 173.939H137.837L137.591 172.516H139.454L142.644 168.49H144.622ZM142.873 178L139.375 173.693L140.421 172.516L144.938 178H142.873ZM151.521 176.374V171.479C151.521 171.104 151.445 170.778 151.292 170.503C151.146 170.222 150.923 170.005 150.624 169.853C150.326 169.7 149.956 169.624 149.517 169.624C149.107 169.624 148.746 169.694 148.436 169.835C148.131 169.976 147.891 170.16 147.715 170.389C147.545 170.617 147.46 170.863 147.46 171.127H145.834C145.834 170.787 145.922 170.45 146.098 170.116C146.274 169.782 146.526 169.48 146.854 169.211C147.188 168.936 147.586 168.719 148.049 168.561C148.518 168.396 149.039 168.314 149.614 168.314C150.305 168.314 150.914 168.432 151.442 168.666C151.975 168.9 152.391 169.255 152.69 169.729C152.995 170.198 153.147 170.787 153.147 171.496V175.926C153.147 176.242 153.173 176.579 153.226 176.937C153.285 177.294 153.37 177.602 153.481 177.859V178H151.785C151.703 177.812 151.638 177.563 151.591 177.253C151.544 176.937 151.521 176.644 151.521 176.374ZM151.802 172.234L151.82 173.377H150.176C149.713 173.377 149.3 173.415 148.937 173.491C148.574 173.562 148.269 173.67 148.023 173.816C147.777 173.963 147.589 174.147 147.46 174.37C147.331 174.587 147.267 174.842 147.267 175.135C147.267 175.434 147.334 175.706 147.469 175.952C147.604 176.198 147.806 176.395 148.076 176.541C148.351 176.682 148.688 176.752 149.086 176.752C149.584 176.752 150.024 176.646 150.405 176.436C150.786 176.225 151.087 175.967 151.31 175.662C151.538 175.357 151.662 175.062 151.679 174.774L152.373 175.557C152.332 175.803 152.221 176.075 152.039 176.374C151.858 176.673 151.615 176.96 151.31 177.235C151.011 177.505 150.654 177.73 150.238 177.912C149.828 178.088 149.365 178.176 148.849 178.176C148.204 178.176 147.639 178.05 147.153 177.798C146.672 177.546 146.297 177.209 146.028 176.787C145.764 176.359 145.632 175.882 145.632 175.354C145.632 174.845 145.732 174.396 145.931 174.01C146.13 173.617 146.417 173.292 146.792 173.034C147.167 172.771 147.619 172.571 148.146 172.437C148.673 172.302 149.262 172.234 149.912 172.234H151.802ZM164.097 172.015H160.854L160.836 170.652H163.781C164.267 170.652 164.692 170.57 165.055 170.406C165.418 170.242 165.699 170.008 165.899 169.703C166.104 169.393 166.206 169.023 166.206 168.596C166.206 168.127 166.116 167.746 165.934 167.453C165.758 167.154 165.486 166.938 165.116 166.803C164.753 166.662 164.29 166.592 163.728 166.592H161.232V178H159.535V165.203H163.728C164.384 165.203 164.97 165.271 165.486 165.405C166.001 165.534 166.438 165.739 166.795 166.021C167.158 166.296 167.434 166.647 167.621 167.075C167.809 167.503 167.903 168.016 167.903 168.613C167.903 169.141 167.768 169.618 167.498 170.046C167.229 170.468 166.854 170.813 166.373 171.083C165.899 171.353 165.342 171.525 164.703 171.602L164.097 172.015ZM164.018 178H160.186L161.144 176.62H164.018C164.557 176.62 165.014 176.526 165.389 176.339C165.77 176.151 166.06 175.888 166.259 175.548C166.458 175.202 166.558 174.795 166.558 174.326C166.558 173.852 166.473 173.441 166.303 173.096C166.133 172.75 165.866 172.483 165.503 172.296C165.14 172.108 164.671 172.015 164.097 172.015H161.68L161.698 170.652H165.002L165.363 171.145C165.978 171.197 166.499 171.373 166.927 171.672C167.355 171.965 167.68 172.34 167.903 172.797C168.131 173.254 168.245 173.758 168.245 174.309C168.245 175.105 168.07 175.779 167.718 176.33C167.372 176.875 166.883 177.291 166.25 177.578C165.617 177.859 164.873 178 164.018 178ZM172.13 165.203V178H170.433V165.203H172.13ZM175.311 165.203H176.954L181.147 175.636L185.33 165.203H186.983L181.779 178H180.496L175.311 165.203ZM174.775 165.203H176.225L176.462 173.008V178H174.775V165.203ZM186.06 165.203H187.51V178H185.822V173.008L186.06 165.203ZM199.295 175.838L202.529 168.49H204.094L199.857 178H198.732L194.514 168.49H196.078L199.295 175.838ZM195.604 168.49V178H193.978V168.49H195.604ZM202.934 178V168.49H204.568V178H202.934ZM206.317 173.351V173.148C206.317 172.463 206.416 171.827 206.616 171.241C206.815 170.649 207.102 170.137 207.477 169.703C207.852 169.264 208.306 168.924 208.839 168.684C209.373 168.438 209.97 168.314 210.632 168.314C211.3 168.314 211.901 168.438 212.434 168.684C212.973 168.924 213.43 169.264 213.805 169.703C214.186 170.137 214.476 170.649 214.675 171.241C214.874 171.827 214.974 172.463 214.974 173.148V173.351C214.974 174.036 214.874 174.672 214.675 175.258C214.476 175.844 214.186 176.356 213.805 176.796C213.43 177.229 212.976 177.569 212.443 177.815C211.915 178.056 211.318 178.176 210.65 178.176C209.982 178.176 209.381 178.056 208.848 177.815C208.315 177.569 207.858 177.229 207.477 176.796C207.102 176.356 206.815 175.844 206.616 175.258C206.416 174.672 206.317 174.036 206.317 173.351ZM207.943 173.148V173.351C207.943 173.825 207.999 174.273 208.11 174.695C208.221 175.111 208.388 175.48 208.611 175.803C208.839 176.125 209.124 176.38 209.463 176.567C209.803 176.749 210.199 176.84 210.65 176.84C211.095 176.84 211.485 176.749 211.819 176.567C212.159 176.38 212.44 176.125 212.663 175.803C212.885 175.48 213.052 175.111 213.164 174.695C213.281 174.273 213.339 173.825 213.339 173.351V173.148C213.339 172.68 213.281 172.237 213.164 171.821C213.052 171.399 212.882 171.027 212.654 170.705C212.431 170.377 212.15 170.119 211.81 169.932C211.476 169.744 211.083 169.65 210.632 169.65C210.187 169.65 209.794 169.744 209.455 169.932C209.121 170.119 208.839 170.377 208.611 170.705C208.388 171.027 208.221 171.399 208.11 171.821C207.999 172.237 207.943 172.68 207.943 173.148ZM217.654 168.49H219.28L219.14 172.05C219.104 172.952 219.002 173.731 218.832 174.388C218.662 175.044 218.445 175.604 218.182 176.066C217.918 176.523 217.622 176.907 217.294 177.218C216.972 177.528 216.638 177.789 216.292 178H215.483L215.527 176.673L215.861 176.664C216.055 176.436 216.242 176.201 216.424 175.961C216.605 175.715 216.772 175.425 216.925 175.091C217.077 174.751 217.203 174.338 217.303 173.852C217.408 173.359 217.475 172.759 217.505 172.05L217.654 168.49ZM218.059 168.49H223.78V178H222.154V169.993H218.059V168.49ZM215.114 176.664H225.002V180.804H223.376V178H216.74V180.804H215.105L215.114 176.664ZM230.31 178.176C229.648 178.176 229.047 178.064 228.508 177.842C227.975 177.613 227.515 177.294 227.128 176.884C226.747 176.474 226.454 175.987 226.249 175.425C226.044 174.862 225.942 174.247 225.942 173.579V173.21C225.942 172.437 226.056 171.748 226.285 171.145C226.513 170.535 226.824 170.02 227.216 169.598C227.609 169.176 228.054 168.856 228.552 168.64C229.05 168.423 229.566 168.314 230.099 168.314C230.779 168.314 231.365 168.432 231.857 168.666C232.355 168.9 232.762 169.229 233.078 169.65C233.395 170.066 233.629 170.559 233.782 171.127C233.934 171.689 234.01 172.305 234.01 172.973V173.702H226.909V172.375H232.384V172.252C232.361 171.83 232.273 171.42 232.12 171.021C231.974 170.623 231.74 170.295 231.417 170.037C231.095 169.779 230.656 169.65 230.099 169.65C229.73 169.65 229.39 169.729 229.079 169.888C228.769 170.04 228.502 170.269 228.28 170.573C228.057 170.878 227.884 171.25 227.761 171.689C227.638 172.129 227.577 172.636 227.577 173.21V173.579C227.577 174.03 227.638 174.455 227.761 174.854C227.89 175.246 228.075 175.592 228.315 175.891C228.561 176.189 228.857 176.424 229.203 176.594C229.554 176.764 229.953 176.849 230.398 176.849C230.972 176.849 231.458 176.731 231.857 176.497C232.255 176.263 232.604 175.949 232.903 175.557L233.887 176.339C233.682 176.649 233.421 176.945 233.105 177.227C232.788 177.508 232.399 177.736 231.936 177.912C231.479 178.088 230.937 178.176 230.31 178.176ZM241.823 168.49V169.835H237.226V168.49H241.823ZM243.256 168.49V178H241.63V168.49H243.256ZM236.831 168.49H238.466L238.22 173.078C238.179 173.787 238.111 174.414 238.017 174.959C237.93 175.498 237.806 175.961 237.648 176.348C237.496 176.734 237.303 177.051 237.068 177.297C236.84 177.537 236.564 177.716 236.242 177.833C235.92 177.944 235.548 178 235.126 178H234.616V176.567L234.968 176.541C235.22 176.523 235.433 176.465 235.609 176.365C235.791 176.266 235.943 176.119 236.066 175.926C236.189 175.727 236.289 175.472 236.365 175.161C236.447 174.851 236.509 174.481 236.55 174.054C236.596 173.626 236.632 173.128 236.655 172.56L236.831 168.49ZM249.381 178.176C248.719 178.176 248.118 178.064 247.579 177.842C247.046 177.613 246.586 177.294 246.199 176.884C245.819 176.474 245.526 175.987 245.321 175.425C245.115 174.862 245.013 174.247 245.013 173.579V173.21C245.013 172.437 245.127 171.748 245.356 171.145C245.584 170.535 245.895 170.02 246.287 169.598C246.68 169.176 247.125 168.856 247.623 168.64C248.121 168.423 248.637 168.314 249.17 168.314C249.85 168.314 250.436 168.432 250.928 168.666C251.426 168.9 251.833 169.229 252.15 169.65C252.466 170.066 252.7 170.559 252.853 171.127C253.005 171.689 253.081 172.305 253.081 172.973V173.702H245.98V172.375H251.455V172.252C251.432 171.83 251.344 171.42 251.192 171.021C251.045 170.623 250.811 170.295 250.489 170.037C250.166 169.779 249.727 169.65 249.17 169.65C248.801 169.65 248.461 169.729 248.151 169.888C247.84 170.04 247.573 170.269 247.351 170.573C247.128 170.878 246.955 171.25 246.832 171.689C246.709 172.129 246.648 172.636 246.648 173.21V173.579C246.648 174.03 246.709 174.455 246.832 174.854C246.961 175.246 247.146 175.592 247.386 175.891C247.632 176.189 247.928 176.424 248.274 176.594C248.625 176.764 249.024 176.849 249.469 176.849C250.043 176.849 250.53 176.731 250.928 176.497C251.326 176.263 251.675 175.949 251.974 175.557L252.958 176.339C252.753 176.649 252.492 176.945 252.176 177.227C251.86 177.508 251.47 177.736 251.007 177.912C250.55 178.088 250.008 178.176 249.381 178.176ZM256.298 175.425L260.683 168.49H262.318V178H260.683V171.065L256.298 178H254.68V168.49H256.298V175.425ZM259.796 165.045H261.114C261.114 165.502 261.008 165.909 260.798 166.267C260.587 166.618 260.285 166.894 259.892 167.093C259.5 167.292 259.034 167.392 258.495 167.392C257.68 167.392 257.036 167.175 256.561 166.741C256.092 166.302 255.858 165.736 255.858 165.045H257.176C257.176 165.391 257.276 165.695 257.475 165.959C257.674 166.223 258.014 166.354 258.495 166.354C258.964 166.354 259.298 166.223 259.497 165.959C259.696 165.695 259.796 165.391 259.796 165.045Z" fill="#17120F"/>
<path d="M173 220C173 219.724 172.776 219.5 172.5 219.5C172.224 219.5 172 219.724 172 220L173 220ZM172.146 252.354C172.342 252.549 172.658 252.549 172.854 252.354L176.036 249.172C176.231 248.976 176.231 248.66 176.036 248.464C175.84 248.269 175.524 248.269 175.328 248.464L172.5 251.293L169.672 248.464C169.476 248.269 169.16 248.269 168.964 248.464C168.769 248.66 168.769 248.976 168.964 249.172L172.146 252.354ZM172 220L172 252L173 252L173 220L172 220Z" fill="#17120F"/>
<rect x="0.5" y="252.5" width="344" height="95" rx="15.5" stroke="#17120F"/>
<path d="M80.8964 304.62V306H71.2108V304.62H80.8964ZM71.4833 304.62V309.146H69.8046L69.7958 304.62H71.4833ZM82.3729 304.62L82.3554 309.138H80.6766V304.62H82.3729ZM79.2352 293.203V294.592H73.6278V293.203H79.2352ZM80.6942 293.203V306H79.0067V293.203H80.6942ZM73.0477 293.203H74.744L74.4804 298.354C74.4452 299.127 74.372 299.842 74.2606 300.498C74.1493 301.148 74.0116 301.743 73.8475 302.282C73.6835 302.821 73.496 303.305 73.285 303.732C73.0741 304.154 72.8485 304.521 72.6083 304.831C72.368 305.136 72.1161 305.388 71.8524 305.587C71.5946 305.78 71.3339 305.918 71.0702 306H70.2968V304.62H70.8417C70.994 304.456 71.1669 304.219 71.3602 303.908C71.5595 303.598 71.7557 303.196 71.9491 302.704C72.1483 302.206 72.3212 301.6 72.4677 300.885C72.62 300.17 72.7225 299.326 72.7753 298.354L73.0477 293.203ZM83.2513 301.351V301.148C83.2513 300.463 83.3509 299.827 83.5501 299.241C83.7493 298.649 84.0364 298.137 84.4114 297.703C84.7864 297.264 85.2406 296.924 85.7738 296.684C86.307 296.438 86.9046 296.314 87.5667 296.314C88.2347 296.314 88.8353 296.438 89.3685 296.684C89.9075 296.924 90.3646 297.264 90.7396 297.703C91.1204 298.137 91.4105 298.649 91.6097 299.241C91.8089 299.827 91.9085 300.463 91.9085 301.148V301.351C91.9085 302.036 91.8089 302.672 91.6097 303.258C91.4105 303.844 91.1204 304.356 90.7396 304.796C90.3646 305.229 89.9105 305.569 89.3773 305.815C88.8499 306.056 88.2523 306.176 87.5843 306.176C86.9163 306.176 86.3157 306.056 85.7825 305.815C85.2493 305.569 84.7923 305.229 84.4114 304.796C84.0364 304.356 83.7493 303.844 83.5501 303.258C83.3509 302.672 83.2513 302.036 83.2513 301.351ZM84.8773 301.148V301.351C84.8773 301.825 84.9329 302.273 85.0443 302.695C85.1556 303.111 85.3226 303.48 85.5452 303.803C85.7738 304.125 86.0579 304.38 86.3978 304.567C86.7376 304.749 87.1331 304.84 87.5843 304.84C88.0296 304.84 88.4193 304.749 88.7532 304.567C89.0931 304.38 89.3743 304.125 89.597 303.803C89.8197 303.48 89.9866 303.111 90.098 302.695C90.2152 302.273 90.2738 301.825 90.2738 301.351V301.148C90.2738 300.68 90.2152 300.237 90.098 299.821C89.9866 299.399 89.8167 299.027 89.5882 298.705C89.3656 298.377 89.0843 298.119 88.7445 297.932C88.4105 297.744 88.0179 297.65 87.5667 297.65C87.1214 297.65 86.7288 297.744 86.389 297.932C86.055 298.119 85.7738 298.377 85.5452 298.705C85.3226 299.027 85.1556 299.399 85.0443 299.821C84.9329 300.237 84.8773 300.68 84.8773 301.148ZM99.6072 292.351H100.943C100.943 292.925 100.855 293.382 100.679 293.722C100.504 294.056 100.263 294.313 99.9588 294.495C99.6599 294.677 99.3201 294.814 98.9392 294.908C98.5642 295.002 98.1746 295.093 97.7703 295.181C97.2664 295.286 96.7976 295.453 96.364 295.682C95.9363 295.904 95.5672 296.221 95.2566 296.631C94.9519 297.041 94.7263 297.574 94.5798 298.23C94.4392 298.887 94.4011 299.698 94.4656 300.665V301.474H93.1297V300.665C93.1297 299.581 93.2322 298.635 93.4373 297.826C93.6482 297.018 93.9441 296.335 94.325 295.778C94.7058 295.222 95.157 294.779 95.6785 294.451C96.2058 294.123 96.7859 293.897 97.4187 293.774C97.8757 293.687 98.2683 293.593 98.5965 293.493C98.9246 293.388 99.1736 293.247 99.3435 293.071C99.5193 292.896 99.6072 292.655 99.6072 292.351ZM97.6824 297.035C98.3035 297.035 98.8572 297.144 99.3435 297.36C99.8298 297.577 100.243 297.879 100.583 298.266C100.923 298.652 101.18 299.109 101.356 299.637C101.538 300.158 101.629 300.727 101.629 301.342V301.535C101.629 302.197 101.532 302.812 101.339 303.381C101.151 303.943 100.873 304.436 100.504 304.857C100.14 305.273 99.6951 305.599 99.1677 305.833C98.6463 306.067 98.0515 306.185 97.3836 306.185C96.7156 306.185 96.1179 306.067 95.5906 305.833C95.0691 305.599 94.6238 305.273 94.2547 304.857C93.8855 304.436 93.6043 303.943 93.4109 303.381C93.2234 302.812 93.1297 302.197 93.1297 301.535V301.342C93.1297 301.195 93.156 301.052 93.2088 300.911C93.2615 300.771 93.3259 300.627 93.4021 300.48C93.4841 300.334 93.5574 300.179 93.6218 300.015C93.8386 299.487 94.1345 298.998 94.5095 298.547C94.8904 298.096 95.3445 297.732 95.8718 297.457C96.405 297.176 97.0086 297.035 97.6824 297.035ZM97.366 298.362C96.7683 298.362 96.2761 298.5 95.8894 298.775C95.5086 299.051 95.2244 299.417 95.0369 299.874C94.8494 300.325 94.7556 300.814 94.7556 301.342V301.535C94.7556 301.98 94.8084 302.402 94.9138 302.801C95.0193 303.199 95.1775 303.554 95.3884 303.864C95.6052 304.169 95.8777 304.409 96.2058 304.585C96.5398 304.761 96.9324 304.849 97.3836 304.849C97.8347 304.849 98.2244 304.761 98.5525 304.585C98.8806 304.409 99.1502 304.169 99.3611 303.864C99.572 303.554 99.7302 303.199 99.8357 302.801C99.9412 302.402 99.9939 301.98 99.9939 301.535V301.342C99.9939 300.943 99.9412 300.565 99.8357 300.208C99.7302 299.851 99.5691 299.534 99.3523 299.259C99.1414 298.983 98.8689 298.767 98.5349 298.608C98.2068 298.444 97.8172 298.362 97.366 298.362ZM108.642 304.374V299.479C108.642 299.104 108.566 298.778 108.413 298.503C108.267 298.222 108.044 298.005 107.745 297.853C107.446 297.7 107.077 297.624 106.638 297.624C106.228 297.624 105.867 297.694 105.557 297.835C105.252 297.976 105.012 298.16 104.836 298.389C104.666 298.617 104.581 298.863 104.581 299.127H102.955C102.955 298.787 103.043 298.45 103.219 298.116C103.395 297.782 103.647 297.48 103.975 297.211C104.309 296.936 104.707 296.719 105.17 296.561C105.639 296.396 106.16 296.314 106.735 296.314C107.426 296.314 108.035 296.432 108.563 296.666C109.096 296.9 109.512 297.255 109.811 297.729C110.115 298.198 110.268 298.787 110.268 299.496V303.926C110.268 304.242 110.294 304.579 110.347 304.937C110.405 305.294 110.49 305.602 110.602 305.859V306H108.905C108.823 305.812 108.759 305.563 108.712 305.253C108.665 304.937 108.642 304.644 108.642 304.374ZM108.923 300.234L108.941 301.377H107.297C106.834 301.377 106.421 301.415 106.058 301.491C105.695 301.562 105.39 301.67 105.144 301.816C104.898 301.963 104.71 302.147 104.581 302.37C104.452 302.587 104.388 302.842 104.388 303.135C104.388 303.434 104.455 303.706 104.59 303.952C104.725 304.198 104.927 304.395 105.196 304.541C105.472 304.682 105.809 304.752 106.207 304.752C106.705 304.752 107.145 304.646 107.526 304.436C107.906 304.225 108.208 303.967 108.431 303.662C108.659 303.357 108.782 303.062 108.8 302.774L109.494 303.557C109.453 303.803 109.342 304.075 109.16 304.374C108.979 304.673 108.736 304.96 108.431 305.235C108.132 305.505 107.775 305.73 107.359 305.912C106.948 306.088 106.486 306.176 105.97 306.176C105.325 306.176 104.76 306.05 104.274 305.798C103.793 305.546 103.418 305.209 103.149 304.787C102.885 304.359 102.753 303.882 102.753 303.354C102.753 302.845 102.853 302.396 103.052 302.01C103.251 301.617 103.538 301.292 103.913 301.034C104.288 300.771 104.739 300.571 105.267 300.437C105.794 300.302 106.383 300.234 107.033 300.234H108.923ZM116.85 301.816H113.73L113.713 300.516H116.261C116.765 300.516 117.184 300.466 117.518 300.366C117.858 300.267 118.113 300.117 118.283 299.918C118.453 299.719 118.538 299.473 118.538 299.18C118.538 298.951 118.488 298.752 118.388 298.582C118.295 298.406 118.151 298.263 117.958 298.151C117.764 298.034 117.524 297.949 117.237 297.896C116.956 297.838 116.625 297.809 116.244 297.809H114.161V306H112.535V296.49H116.244C116.847 296.49 117.389 296.543 117.87 296.648C118.356 296.754 118.769 296.915 119.109 297.132C119.455 297.343 119.718 297.612 119.9 297.94C120.082 298.269 120.173 298.655 120.173 299.101C120.173 299.388 120.114 299.66 119.997 299.918C119.88 300.176 119.707 300.404 119.478 300.604C119.25 300.803 118.968 300.967 118.634 301.096C118.3 301.219 117.917 301.298 117.483 301.333L116.85 301.816ZM116.85 306H113.141L113.95 304.682H116.85C117.301 304.682 117.676 304.626 117.975 304.515C118.274 304.397 118.497 304.233 118.643 304.022C118.796 303.806 118.872 303.548 118.872 303.249C118.872 302.95 118.796 302.695 118.643 302.484C118.497 302.268 118.274 302.104 117.975 301.992C117.676 301.875 117.301 301.816 116.85 301.816H114.381L114.398 300.516H117.483L118.072 301.008C118.593 301.049 119.036 301.178 119.399 301.395C119.762 301.611 120.038 301.887 120.225 302.221C120.413 302.549 120.506 302.906 120.506 303.293C120.506 303.738 120.422 304.131 120.252 304.471C120.088 304.811 119.847 305.095 119.531 305.323C119.214 305.546 118.831 305.716 118.38 305.833C117.928 305.944 117.419 306 116.85 306ZM128.601 296.49V297.835H124.004V296.49H128.601ZM130.033 296.49V306H128.407V296.49H130.033ZM123.608 296.49H125.243L124.997 301.078C124.956 301.787 124.889 302.414 124.795 302.959C124.707 303.498 124.584 303.961 124.426 304.348C124.274 304.734 124.08 305.051 123.846 305.297C123.617 305.537 123.342 305.716 123.02 305.833C122.697 305.944 122.325 306 121.903 306H121.394V304.567L121.745 304.541C121.997 304.523 122.211 304.465 122.387 304.365C122.568 304.266 122.721 304.119 122.844 303.926C122.967 303.727 123.066 303.472 123.143 303.161C123.225 302.851 123.286 302.481 123.327 302.054C123.374 301.626 123.409 301.128 123.433 300.56L123.608 296.49ZM136.159 306.176C135.497 306.176 134.896 306.064 134.357 305.842C133.824 305.613 133.364 305.294 132.977 304.884C132.596 304.474 132.303 303.987 132.098 303.425C131.893 302.862 131.791 302.247 131.791 301.579V301.21C131.791 300.437 131.905 299.748 132.133 299.145C132.362 298.535 132.672 298.02 133.065 297.598C133.458 297.176 133.903 296.856 134.401 296.64C134.899 296.423 135.415 296.314 135.948 296.314C136.627 296.314 137.213 296.432 137.706 296.666C138.204 296.9 138.611 297.229 138.927 297.65C139.244 298.066 139.478 298.559 139.63 299.127C139.783 299.689 139.859 300.305 139.859 300.973V301.702H132.757V300.375H138.233V300.252C138.209 299.83 138.122 299.42 137.969 299.021C137.823 298.623 137.588 298.295 137.266 298.037C136.944 297.779 136.504 297.65 135.948 297.65C135.579 297.65 135.239 297.729 134.928 297.888C134.618 298.04 134.351 298.269 134.128 298.573C133.906 298.878 133.733 299.25 133.61 299.689C133.487 300.129 133.425 300.636 133.425 301.21V301.579C133.425 302.03 133.487 302.455 133.61 302.854C133.739 303.246 133.923 303.592 134.164 303.891C134.41 304.189 134.706 304.424 135.051 304.594C135.403 304.764 135.801 304.849 136.247 304.849C136.821 304.849 137.307 304.731 137.706 304.497C138.104 304.263 138.453 303.949 138.751 303.557L139.736 304.339C139.531 304.649 139.27 304.945 138.954 305.227C138.637 305.508 138.248 305.736 137.785 305.912C137.328 306.088 136.786 306.176 136.159 306.176ZM147.769 300.612V301.931H142.741V300.612H147.769ZM143.084 296.49V306H141.458V296.49H143.084ZM149.087 296.49V306H147.452V296.49H149.087ZM153.024 303.425L157.41 296.49H159.044V306H157.41V299.065L153.024 306H151.407V296.49H153.024V303.425ZM165.161 306.176C164.499 306.176 163.898 306.064 163.359 305.842C162.826 305.613 162.366 305.294 161.979 304.884C161.598 304.474 161.306 303.987 161.1 303.425C160.895 302.862 160.793 302.247 160.793 301.579V301.21C160.793 300.437 160.907 299.748 161.136 299.145C161.364 298.535 161.675 298.02 162.067 297.598C162.46 297.176 162.905 296.856 163.403 296.64C163.901 296.423 164.417 296.314 164.95 296.314C165.63 296.314 166.216 296.432 166.708 296.666C167.206 296.9 167.613 297.229 167.93 297.65C168.246 298.066 168.48 298.559 168.633 299.127C168.785 299.689 168.861 300.305 168.861 300.973V301.702H161.76V300.375H167.235V300.252C167.212 299.83 167.124 299.42 166.972 299.021C166.825 298.623 166.591 298.295 166.268 298.037C165.946 297.779 165.507 297.65 164.95 297.65C164.581 297.65 164.241 297.729 163.931 297.888C163.62 298.04 163.353 298.269 163.131 298.573C162.908 298.878 162.735 299.25 162.612 299.689C162.489 300.129 162.428 300.636 162.428 301.21V301.579C162.428 302.03 162.489 302.455 162.612 302.854C162.741 303.246 162.926 303.592 163.166 303.891C163.412 304.189 163.708 304.424 164.054 304.594C164.405 304.764 164.804 304.849 165.249 304.849C165.823 304.849 166.309 304.731 166.708 304.497C167.106 304.263 167.455 303.949 167.754 303.557L168.738 304.339C168.533 304.649 168.272 304.945 167.956 305.227C167.639 305.508 167.25 305.736 166.787 305.912C166.33 306.088 165.788 306.176 165.161 306.176ZM178.15 304.84C178.537 304.84 178.894 304.761 179.222 304.603C179.551 304.444 179.82 304.228 180.031 303.952C180.242 303.671 180.362 303.352 180.391 302.994H181.938C181.909 303.557 181.718 304.081 181.367 304.567C181.021 305.048 180.567 305.438 180.005 305.736C179.442 306.029 178.824 306.176 178.15 306.176C177.435 306.176 176.811 306.05 176.278 305.798C175.751 305.546 175.311 305.2 174.96 304.761C174.614 304.321 174.353 303.817 174.177 303.249C174.008 302.675 173.923 302.068 173.923 301.43V301.061C173.923 300.422 174.008 299.818 174.177 299.25C174.353 298.676 174.614 298.169 174.96 297.729C175.311 297.29 175.751 296.944 176.278 296.692C176.811 296.44 177.435 296.314 178.15 296.314C178.894 296.314 179.545 296.467 180.101 296.771C180.658 297.07 181.094 297.48 181.411 298.002C181.733 298.518 181.909 299.104 181.938 299.76H180.391C180.362 299.367 180.251 299.013 180.057 298.696C179.87 298.38 179.612 298.128 179.284 297.94C178.962 297.747 178.584 297.65 178.15 297.65C177.652 297.65 177.233 297.75 176.893 297.949C176.559 298.143 176.293 298.406 176.093 298.74C175.9 299.068 175.759 299.435 175.672 299.839C175.59 300.237 175.549 300.645 175.549 301.061V301.43C175.549 301.846 175.59 302.256 175.672 302.66C175.754 303.064 175.891 303.431 176.085 303.759C176.284 304.087 176.551 304.351 176.884 304.55C177.224 304.743 177.646 304.84 178.15 304.84ZM182.896 301.351V301.148C182.896 300.463 182.995 299.827 183.194 299.241C183.394 298.649 183.681 298.137 184.056 297.703C184.431 297.264 184.885 296.924 185.418 296.684C185.951 296.438 186.549 296.314 187.211 296.314C187.879 296.314 188.48 296.438 189.013 296.684C189.552 296.924 190.009 297.264 190.384 297.703C190.765 298.137 191.055 298.649 191.254 299.241C191.453 299.827 191.553 300.463 191.553 301.148V301.351C191.553 302.036 191.453 302.672 191.254 303.258C191.055 303.844 190.765 304.356 190.384 304.796C190.009 305.229 189.555 305.569 189.022 305.815C188.494 306.056 187.897 306.176 187.229 306.176C186.561 306.176 185.96 306.056 185.427 305.815C184.894 305.569 184.437 305.229 184.056 304.796C183.681 304.356 183.394 303.844 183.194 303.258C182.995 302.672 182.896 302.036 182.896 301.351ZM184.522 301.148V301.351C184.522 301.825 184.577 302.273 184.689 302.695C184.8 303.111 184.967 303.48 185.19 303.803C185.418 304.125 185.702 304.38 186.042 304.567C186.382 304.749 186.777 304.84 187.229 304.84C187.674 304.84 188.064 304.749 188.398 304.567C188.737 304.38 189.019 304.125 189.241 303.803C189.464 303.48 189.631 303.111 189.742 302.695C189.86 302.273 189.918 301.825 189.918 301.351V301.148C189.918 300.68 189.86 300.237 189.742 299.821C189.631 299.399 189.461 299.027 189.233 298.705C189.01 298.377 188.729 298.119 188.389 297.932C188.055 297.744 187.662 297.65 187.211 297.65C186.766 297.65 186.373 297.744 186.033 297.932C185.699 298.119 185.418 298.377 185.19 298.705C184.967 299.027 184.8 299.399 184.689 299.821C184.577 300.237 184.522 300.68 184.522 301.148ZM196.835 296.49V306H195.2V296.49H196.835ZM200.025 296.49V297.809H192.071V296.49H200.025ZM202.811 298.318V309.656H201.176V296.49H202.67L202.811 298.318ZM209.218 301.166V301.351C209.218 302.042 209.136 302.684 208.972 303.275C208.808 303.861 208.567 304.371 208.251 304.805C207.94 305.238 207.557 305.575 207.1 305.815C206.643 306.056 206.118 306.176 205.526 306.176C204.923 306.176 204.39 306.076 203.927 305.877C203.464 305.678 203.071 305.388 202.749 305.007C202.427 304.626 202.169 304.169 201.976 303.636C201.788 303.103 201.659 302.502 201.589 301.834V300.85C201.659 300.146 201.791 299.517 201.984 298.96C202.178 298.403 202.433 297.929 202.749 297.536C203.071 297.138 203.461 296.836 203.918 296.631C204.375 296.42 204.902 296.314 205.5 296.314C206.098 296.314 206.628 296.432 207.091 296.666C207.554 296.895 207.943 297.223 208.26 297.65C208.576 298.078 208.814 298.591 208.972 299.188C209.136 299.78 209.218 300.439 209.218 301.166ZM207.583 301.351V301.166C207.583 300.691 207.533 300.246 207.434 299.83C207.334 299.408 207.179 299.039 206.968 298.723C206.763 298.4 206.499 298.148 206.177 297.967C205.855 297.779 205.471 297.686 205.025 297.686C204.615 297.686 204.258 297.756 203.953 297.896C203.654 298.037 203.399 298.228 203.189 298.468C202.978 298.702 202.805 298.972 202.67 299.276C202.541 299.575 202.444 299.886 202.38 300.208V302.484C202.497 302.895 202.661 303.281 202.872 303.645C203.083 304.002 203.364 304.292 203.716 304.515C204.067 304.731 204.51 304.84 205.043 304.84C205.482 304.84 205.86 304.749 206.177 304.567C206.499 304.38 206.763 304.125 206.968 303.803C207.179 303.48 207.334 303.111 207.434 302.695C207.533 302.273 207.583 301.825 207.583 301.351ZM213.418 305.016L216.064 296.49H217.804L213.99 307.468C213.902 307.702 213.785 307.954 213.638 308.224C213.498 308.499 213.316 308.76 213.093 309.006C212.871 309.252 212.601 309.451 212.285 309.604C211.974 309.762 211.602 309.841 211.168 309.841C211.04 309.841 210.875 309.823 210.676 309.788C210.477 309.753 210.336 309.724 210.254 309.7L210.246 308.382C210.292 308.388 210.366 308.394 210.465 308.399C210.571 308.411 210.644 308.417 210.685 308.417C211.054 308.417 211.368 308.367 211.625 308.268C211.883 308.174 212.1 308.013 212.276 307.784C212.457 307.562 212.613 307.254 212.742 306.861L213.418 305.016ZM211.476 296.49L213.946 303.873L214.368 305.587L213.199 306.185L209.701 296.49H211.476ZM220.054 296.49H221.68L221.539 300.05C221.504 300.952 221.401 301.731 221.231 302.388C221.061 303.044 220.845 303.604 220.581 304.066C220.317 304.523 220.021 304.907 219.693 305.218C219.371 305.528 219.037 305.789 218.691 306H217.883L217.927 304.673L218.261 304.664C218.454 304.436 218.642 304.201 218.823 303.961C219.005 303.715 219.172 303.425 219.324 303.091C219.477 302.751 219.602 302.338 219.702 301.852C219.808 301.359 219.875 300.759 219.904 300.05L220.054 296.49ZM220.458 296.49H226.18V306H224.554V297.993H220.458V296.49ZM217.514 304.664H227.401V308.804H225.775V306H219.14V308.804H217.505L217.514 304.664ZM235.214 300.612V301.931H230.187V300.612H235.214ZM230.53 296.49V306H228.904V296.49H230.53ZM236.533 296.49V306H234.898V296.49H236.533ZM240.47 303.425L244.855 296.49H246.49V306H244.855V299.065L240.47 306H238.852V296.49H240.47V303.425ZM250.427 296.49V306H248.801V296.49H250.427ZM256.667 296.49L252.158 301.939H249.882L249.636 300.516H251.499L254.69 296.49H256.667ZM254.918 306L251.42 301.693L252.466 300.516L256.984 306H254.918ZM257.335 301.351V301.148C257.335 300.463 257.434 299.827 257.633 299.241C257.833 298.649 258.12 298.137 258.495 297.703C258.87 297.264 259.324 296.924 259.857 296.684C260.39 296.438 260.988 296.314 261.65 296.314C262.318 296.314 262.919 296.438 263.452 296.684C263.991 296.924 264.448 297.264 264.823 297.703C265.204 298.137 265.494 298.649 265.693 299.241C265.892 299.827 265.992 300.463 265.992 301.148V301.351C265.992 302.036 265.892 302.672 265.693 303.258C265.494 303.844 265.204 304.356 264.823 304.796C264.448 305.229 263.994 305.569 263.461 305.815C262.933 306.056 262.336 306.176 261.668 306.176C261 306.176 260.399 306.056 259.866 305.815C259.333 305.569 258.876 305.229 258.495 304.796C258.12 304.356 257.833 303.844 257.633 303.258C257.434 302.672 257.335 302.036 257.335 301.351ZM258.961 301.148V301.351C258.961 301.825 259.016 302.273 259.128 302.695C259.239 303.111 259.406 303.48 259.629 303.803C259.857 304.125 260.141 304.38 260.481 304.567C260.821 304.749 261.216 304.84 261.668 304.84C262.113 304.84 262.503 304.749 262.837 304.567C263.176 304.38 263.458 304.125 263.68 303.803C263.903 303.48 264.07 303.111 264.181 302.695C264.299 302.273 264.357 301.825 264.357 301.351V301.148C264.357 300.68 264.299 300.237 264.181 299.821C264.07 299.399 263.9 299.027 263.672 298.705C263.449 298.377 263.168 298.119 262.828 297.932C262.494 297.744 262.101 297.65 261.65 297.65C261.205 297.65 260.812 297.744 260.472 297.932C260.138 298.119 259.857 298.377 259.629 298.705C259.406 299.027 259.239 299.399 259.128 299.821C259.016 300.237 258.961 300.68 258.961 301.148ZM272.056 301.816H268.936L268.918 300.516H271.467C271.971 300.516 272.39 300.466 272.724 300.366C273.064 300.267 273.318 300.117 273.488 299.918C273.658 299.719 273.743 299.473 273.743 299.18C273.743 298.951 273.693 298.752 273.594 298.582C273.5 298.406 273.357 298.263 273.163 298.151C272.97 298.034 272.73 297.949 272.443 297.896C272.161 297.838 271.83 297.809 271.449 297.809H269.366V306H267.74V296.49H271.449C272.053 296.49 272.595 296.543 273.075 296.648C273.562 296.754 273.975 296.915 274.315 297.132C274.66 297.343 274.924 297.612 275.106 297.94C275.287 298.269 275.378 298.655 275.378 299.101C275.378 299.388 275.319 299.66 275.202 299.918C275.085 300.176 274.912 300.404 274.684 300.604C274.455 300.803 274.174 300.967 273.84 301.096C273.506 301.219 273.122 301.298 272.689 301.333L272.056 301.816ZM272.056 306H268.347L269.155 304.682H272.056C272.507 304.682 272.882 304.626 273.181 304.515C273.48 304.397 273.702 304.233 273.849 304.022C274.001 303.806 274.077 303.548 274.077 303.249C274.077 302.95 274.001 302.695 273.849 302.484C273.702 302.268 273.48 302.104 273.181 301.992C272.882 301.875 272.507 301.816 272.056 301.816H269.586L269.604 300.516H272.689L273.277 301.008C273.799 301.049 274.241 301.178 274.605 301.395C274.968 301.611 275.243 301.887 275.431 302.221C275.618 302.549 275.712 302.906 275.712 303.293C275.712 303.738 275.627 304.131 275.457 304.471C275.293 304.811 275.053 305.095 274.736 305.323C274.42 305.546 274.036 305.716 273.585 305.833C273.134 305.944 272.624 306 272.056 306Z" fill="#17120F"/>
<path d="M173 348C173 347.724 172.776 347.5 172.5 347.5C172.224 347.5 172 347.724 172 348L173 348ZM172.146 380.354C172.342 380.549 172.658 380.549 172.854 380.354L176.036 377.172C176.231 376.976 176.231 376.66 176.036 376.464C175.84 376.269 175.524 376.269 175.328 376.464L172.5 379.293L169.672 376.464C169.476 376.269 169.16 376.269 168.964 376.464C168.769 376.66 168.769 376.976 168.964 377.172L172.146 380.354ZM172 348L172 380L173 380L173 348L172 348Z" fill="#17120F"/>
<rect x="0.5" y="380.5" width="344" height="95" rx="15.5" stroke="#17120F"/>
<path d="M159.035 429.931H160.723C160.635 430.739 160.403 431.463 160.028 432.102C159.653 432.74 159.123 433.247 158.438 433.622C157.752 433.991 156.897 434.176 155.871 434.176C155.121 434.176 154.439 434.035 153.823 433.754C153.214 433.473 152.69 433.074 152.25 432.559C151.811 432.037 151.471 431.413 151.231 430.687C150.996 429.954 150.879 429.14 150.879 428.243V426.969C150.879 426.072 150.996 425.261 151.231 424.534C151.471 423.802 151.814 423.175 152.259 422.653C152.71 422.132 153.252 421.73 153.885 421.449C154.518 421.168 155.23 421.027 156.021 421.027C156.987 421.027 157.805 421.209 158.473 421.572C159.141 421.936 159.659 422.439 160.028 423.084C160.403 423.723 160.635 424.464 160.723 425.308H159.035C158.953 424.71 158.801 424.197 158.578 423.77C158.356 423.336 158.039 423.002 157.629 422.768C157.219 422.533 156.683 422.416 156.021 422.416C155.452 422.416 154.951 422.524 154.518 422.741C154.09 422.958 153.73 423.266 153.437 423.664C153.15 424.062 152.933 424.54 152.786 425.097C152.64 425.653 152.567 426.271 152.567 426.951V428.243C152.567 428.87 152.631 429.459 152.76 430.01C152.895 430.561 153.097 431.044 153.366 431.46C153.636 431.876 153.979 432.204 154.395 432.444C154.811 432.679 155.303 432.796 155.871 432.796C156.592 432.796 157.166 432.682 157.594 432.453C158.022 432.225 158.344 431.896 158.561 431.469C158.783 431.041 158.942 430.528 159.035 429.931ZM166.224 424.49V434H164.589V424.49H166.224ZM169.415 424.49V425.809H161.46V424.49H169.415ZM176.041 432.374V427.479C176.041 427.104 175.965 426.778 175.812 426.503C175.666 426.222 175.443 426.005 175.145 425.853C174.846 425.7 174.477 425.624 174.037 425.624C173.627 425.624 173.267 425.694 172.956 425.835C172.651 425.976 172.411 426.16 172.235 426.389C172.065 426.617 171.98 426.863 171.98 427.127H170.354C170.354 426.787 170.442 426.45 170.618 426.116C170.794 425.782 171.046 425.48 171.374 425.211C171.708 424.936 172.106 424.719 172.569 424.561C173.038 424.396 173.56 424.314 174.134 424.314C174.825 424.314 175.435 424.432 175.962 424.666C176.495 424.9 176.911 425.255 177.21 425.729C177.515 426.198 177.667 426.787 177.667 427.496V431.926C177.667 432.242 177.693 432.579 177.746 432.937C177.805 433.294 177.89 433.602 178.001 433.859V434H176.305C176.223 433.812 176.158 433.563 176.111 433.253C176.064 432.937 176.041 432.644 176.041 432.374ZM176.322 428.234L176.34 429.377H174.696C174.233 429.377 173.82 429.415 173.457 429.491C173.094 429.562 172.789 429.67 172.543 429.816C172.297 429.963 172.109 430.147 171.98 430.37C171.852 430.587 171.787 430.842 171.787 431.135C171.787 431.434 171.854 431.706 171.989 431.952C172.124 432.198 172.326 432.395 172.596 432.541C172.871 432.682 173.208 432.752 173.606 432.752C174.104 432.752 174.544 432.646 174.925 432.436C175.306 432.225 175.607 431.967 175.83 431.662C176.059 431.357 176.182 431.062 176.199 430.774L176.894 431.557C176.853 431.803 176.741 432.075 176.56 432.374C176.378 432.673 176.135 432.96 175.83 433.235C175.531 433.505 175.174 433.73 174.758 433.912C174.348 434.088 173.885 434.176 173.369 434.176C172.725 434.176 172.159 434.05 171.673 433.798C171.192 433.546 170.817 433.209 170.548 432.787C170.284 432.359 170.152 431.882 170.152 431.354C170.152 430.845 170.252 430.396 170.451 430.01C170.65 429.617 170.937 429.292 171.312 429.034C171.687 428.771 172.139 428.571 172.666 428.437C173.193 428.302 173.782 428.234 174.433 428.234H176.322ZM181.411 426.318V437.656H179.776V424.49H181.27L181.411 426.318ZM187.818 429.166V429.351C187.818 430.042 187.736 430.684 187.572 431.275C187.408 431.861 187.167 432.371 186.851 432.805C186.54 433.238 186.157 433.575 185.7 433.815C185.243 434.056 184.718 434.176 184.126 434.176C183.523 434.176 182.99 434.076 182.527 433.877C182.064 433.678 181.671 433.388 181.349 433.007C181.027 432.626 180.769 432.169 180.576 431.636C180.388 431.103 180.259 430.502 180.189 429.834V428.85C180.259 428.146 180.391 427.517 180.584 426.96C180.778 426.403 181.033 425.929 181.349 425.536C181.671 425.138 182.061 424.836 182.518 424.631C182.975 424.42 183.502 424.314 184.1 424.314C184.698 424.314 185.228 424.432 185.691 424.666C186.154 424.895 186.543 425.223 186.86 425.65C187.176 426.078 187.414 426.591 187.572 427.188C187.736 427.78 187.818 428.439 187.818 429.166ZM186.183 429.351V429.166C186.183 428.691 186.133 428.246 186.034 427.83C185.934 427.408 185.779 427.039 185.568 426.723C185.363 426.4 185.099 426.148 184.777 425.967C184.455 425.779 184.071 425.686 183.625 425.686C183.215 425.686 182.858 425.756 182.553 425.896C182.254 426.037 181.999 426.228 181.789 426.468C181.578 426.702 181.405 426.972 181.27 427.276C181.141 427.575 181.044 427.886 180.98 428.208V430.484C181.097 430.895 181.261 431.281 181.472 431.645C181.683 432.002 181.964 432.292 182.316 432.515C182.667 432.731 183.11 432.84 183.643 432.84C184.082 432.84 184.46 432.749 184.777 432.567C185.099 432.38 185.363 432.125 185.568 431.803C185.779 431.48 185.934 431.111 186.034 430.695C186.133 430.273 186.183 429.825 186.183 429.351ZM192.625 424.49V434H190.99V424.49H192.625ZM195.815 424.49V425.809H187.861V424.49H195.815Z" fill="#17120F"/>
</svg>
