<svg width="1180" height="129" viewBox="0 0 1180 129" fill="none" xmlns="http://www.w3.org/2000/svg">
<rect x="0.5" y="0.5" width="279" height="95" rx="15.5" stroke="#17120F"/>
<path d="M10.5629 35.8564H9.04239V34.7754H10.5014C11.1459 34.7754 11.6674 34.6846 12.0658 34.5029C12.4643 34.3213 12.7543 34.0693 12.9359 33.7471C13.1176 33.4248 13.2084 33.0527 13.2084 32.6309C13.2084 32.2266 13.1088 31.8574 12.9096 31.5234C12.7104 31.1836 12.4027 30.9141 11.9867 30.7148C11.5707 30.5098 11.0346 30.4072 10.3783 30.4072C9.88614 30.4072 9.44083 30.501 9.04239 30.6885C8.64395 30.8701 8.32755 31.125 8.09317 31.4531C7.8588 31.7754 7.74161 32.1475 7.74161 32.5693H6.04532C6.04532 32.0244 6.15958 31.5352 6.38809 31.1016C6.61661 30.6621 6.93008 30.29 7.32852 29.9854C7.72696 29.6748 8.18692 29.4375 8.7084 29.2734C9.23575 29.1094 9.79239 29.0273 10.3783 29.0273C11.0639 29.0273 11.685 29.1064 12.2416 29.2646C12.7982 29.417 13.2758 29.6455 13.6742 29.9502C14.0727 30.2549 14.3773 30.6328 14.5883 31.084C14.7992 31.5352 14.9047 32.0596 14.9047 32.6572C14.9047 33.0967 14.8022 33.5098 14.5971 33.8965C14.392 34.2832 14.099 34.623 13.7182 34.916C13.3373 35.209 12.8803 35.4404 12.3471 35.6104C11.8139 35.7744 11.2191 35.8564 10.5629 35.8564ZM9.04239 35.1094H10.5629C11.2836 35.1094 11.9252 35.1826 12.4877 35.3291C13.0502 35.4756 13.5248 35.6895 13.9115 35.9707C14.2982 36.252 14.5912 36.6006 14.7904 37.0166C14.9955 37.4268 15.0981 37.8984 15.0981 38.4316C15.0981 39.0293 14.9809 39.5596 14.7465 40.0225C14.518 40.4854 14.1928 40.8779 13.7709 41.2002C13.349 41.5225 12.8481 41.7656 12.268 41.9297C11.6938 42.0938 11.0639 42.1758 10.3783 42.1758C9.82755 42.1758 9.28262 42.1055 8.74356 41.9648C8.21036 41.8184 7.72696 41.5957 7.29337 41.2969C6.85977 40.9922 6.51114 40.6055 6.24747 40.1367C5.98965 39.668 5.86075 39.1055 5.86075 38.4492H7.55704C7.55704 38.877 7.67422 39.2695 7.9086 39.627C8.14883 39.9844 8.47989 40.2715 8.90176 40.4883C9.32364 40.6992 9.81583 40.8047 10.3783 40.8047C11.0229 40.8047 11.5678 40.7051 12.0131 40.5059C12.4643 40.3008 12.807 40.0225 13.0414 39.6709C13.2816 39.3135 13.4018 38.9121 13.4018 38.4668C13.4018 38.0742 13.3373 37.7344 13.2084 37.4473C13.0854 37.1543 12.9008 36.9141 12.6547 36.7266C12.4145 36.5391 12.1127 36.4014 11.7494 36.3135C11.392 36.2197 10.976 36.1729 10.5014 36.1729H9.04239V35.1094ZM22.2518 40.374V35.4785C22.2518 35.1035 22.1756 34.7783 22.0233 34.5029C21.8768 34.2217 21.6541 34.0049 21.3553 33.8525C21.0565 33.7002 20.6874 33.624 20.2479 33.624C19.8377 33.624 19.4774 33.6943 19.1668 33.835C18.8622 33.9756 18.6219 34.1602 18.4461 34.3887C18.2762 34.6172 18.1913 34.8633 18.1913 35.127H16.5653C16.5653 34.7871 16.6532 34.4502 16.829 34.1162C17.0047 33.7822 17.2567 33.4805 17.5848 33.2109C17.9188 32.9355 18.3172 32.7188 18.7801 32.5605C19.2489 32.3965 19.7704 32.3145 20.3446 32.3145C21.036 32.3145 21.6454 32.4316 22.1727 32.666C22.7059 32.9004 23.1219 33.2549 23.4207 33.7295C23.7254 34.1982 23.8778 34.7871 23.8778 35.4961V39.9258C23.8778 40.2422 23.9041 40.5791 23.9569 40.9365C24.0155 41.2939 24.1004 41.6016 24.2118 41.8594V42H22.5155C22.4334 41.8125 22.369 41.5635 22.3221 41.2529C22.2752 40.9365 22.2518 40.6436 22.2518 40.374ZM22.5331 36.2344L22.5506 37.377H20.9071C20.4442 37.377 20.0311 37.415 19.6678 37.4912C19.3045 37.5615 18.9999 37.6699 18.7538 37.8164C18.5077 37.9629 18.3202 38.1475 18.1913 38.3701C18.0624 38.5869 17.9979 38.8418 17.9979 39.1348C17.9979 39.4336 18.0653 39.7061 18.2 39.9521C18.3348 40.1982 18.537 40.3945 18.8065 40.541C19.0819 40.6816 19.4188 40.752 19.8172 40.752C20.3153 40.752 20.7547 40.6465 21.1356 40.4355C21.5165 40.2246 21.8182 39.9668 22.0409 39.6621C22.2694 39.3574 22.3924 39.0615 22.41 38.7744L23.1043 39.5566C23.0633 39.8027 22.952 40.0752 22.7704 40.374C22.5887 40.6729 22.3456 40.96 22.0409 41.2354C21.742 41.5049 21.3846 41.7305 20.9686 41.9121C20.5584 42.0879 20.0956 42.1758 19.5799 42.1758C18.9354 42.1758 18.37 42.0498 17.8836 41.7979C17.4032 41.5459 17.0282 41.209 16.7586 40.7871C16.495 40.3594 16.3631 39.8818 16.3631 39.3545C16.3631 38.8447 16.4627 38.3965 16.662 38.0098C16.8612 37.6172 17.1483 37.292 17.5233 37.0342C17.8983 36.7705 18.3495 36.5713 18.8768 36.4365C19.4041 36.3018 19.993 36.2344 20.6434 36.2344H22.5331ZM32.139 32.4902V33.835H27.7444V42H26.1184V32.4902H32.139ZM34.74 34.3184V45.6562H33.1052V32.4902H34.5993L34.74 34.3184ZM41.1472 37.166V37.3506C41.1472 38.042 41.0652 38.6836 40.9011 39.2754C40.737 39.8613 40.4968 40.3711 40.1804 40.8047C39.8699 41.2383 39.4861 41.5752 39.029 41.8154C38.572 42.0557 38.0476 42.1758 37.4558 42.1758C36.8523 42.1758 36.3191 42.0762 35.8562 41.877C35.3933 41.6777 35.0007 41.3877 34.6784 41.0068C34.3562 40.626 34.0984 40.1689 33.905 39.6357C33.7175 39.1025 33.5886 38.502 33.5183 37.834V36.8496C33.5886 36.1465 33.7204 35.5166 33.9138 34.96C34.1072 34.4033 34.362 33.9287 34.6784 33.5361C35.0007 33.1377 35.3904 32.8359 35.8474 32.6309C36.3044 32.4199 36.8318 32.3145 37.4294 32.3145C38.0271 32.3145 38.5574 32.4316 39.0202 32.666C39.4831 32.8945 39.8728 33.2227 40.1892 33.6504C40.5056 34.0781 40.7429 34.5908 40.9011 35.1885C41.0652 35.7803 41.1472 36.4395 41.1472 37.166ZM39.5124 37.3506V37.166C39.5124 36.6914 39.4626 36.2461 39.363 35.8301C39.2634 35.4082 39.1081 35.0391 38.8972 34.7227C38.6921 34.4004 38.4284 34.1484 38.1062 33.9668C37.7839 33.7793 37.4001 33.6855 36.9548 33.6855C36.5447 33.6855 36.1872 33.7559 35.8825 33.8965C35.5837 34.0371 35.3288 34.2275 35.1179 34.4678C34.907 34.7021 34.7341 34.9717 34.5993 35.2764C34.4704 35.5752 34.3738 35.8857 34.3093 36.208V38.4844C34.4265 38.8945 34.5906 39.2812 34.8015 39.6445C35.0124 40.002 35.2937 40.292 35.6452 40.5146C35.9968 40.7314 36.4392 40.8398 36.9724 40.8398C37.4118 40.8398 37.7898 40.749 38.1062 40.5674C38.4284 40.3799 38.6921 40.125 38.8972 39.8027C39.1081 39.4805 39.2634 39.1113 39.363 38.6953C39.4626 38.2734 39.5124 37.8252 39.5124 37.3506ZM45.3478 41.0156L47.9933 32.4902H49.7336L45.9191 43.4678C45.8312 43.7021 45.714 43.9541 45.5675 44.2236C45.4269 44.499 45.2453 44.7598 45.0226 45.0059C44.8 45.252 44.5304 45.4512 44.214 45.6035C43.9035 45.7617 43.5314 45.8408 43.0978 45.8408C42.9689 45.8408 42.8049 45.8232 42.6056 45.7881C42.4064 45.7529 42.2658 45.7236 42.1838 45.7002L42.175 44.3818C42.2218 44.3877 42.2951 44.3936 42.3947 44.3994C42.5002 44.4111 42.5734 44.417 42.6144 44.417C42.9836 44.417 43.297 44.3672 43.5549 44.2676C43.8127 44.1738 44.0295 44.0127 44.2052 43.7842C44.3869 43.5615 44.5422 43.2539 44.6711 42.8613L45.3478 41.0156ZM43.4054 32.4902L45.8752 39.873L46.297 41.5869L45.1281 42.1846L41.63 32.4902H43.4054ZM54.3121 37.4561H52.5631V36.4541H54.1803C54.6315 36.4541 54.9889 36.3984 55.2525 36.2871C55.5162 36.1699 55.7037 36.0088 55.815 35.8037C55.9264 35.5986 55.982 35.3584 55.982 35.083C55.982 34.8369 55.9176 34.6055 55.7887 34.3887C55.6656 34.166 55.4664 33.9873 55.191 33.8525C54.9156 33.7119 54.5465 33.6416 54.0836 33.6416C53.7086 33.6416 53.3688 33.709 53.0641 33.8438C52.7594 33.9727 52.5162 34.1514 52.3346 34.3799C52.1588 34.6025 52.0709 34.8545 52.0709 35.1357H50.4449C50.4449 34.5557 50.609 34.0576 50.9371 33.6416C51.2711 33.2197 51.7135 32.8945 52.2643 32.666C52.8209 32.4375 53.4273 32.3232 54.0836 32.3232C54.6344 32.3232 55.1266 32.3848 55.5602 32.5078C55.9996 32.625 56.3717 32.8008 56.6764 33.0352C56.9811 33.2637 57.2125 33.5508 57.3707 33.8965C57.5348 34.2363 57.6168 34.6318 57.6168 35.083C57.6168 35.4053 57.5406 35.71 57.3883 35.9971C57.2359 36.2842 57.0162 36.5391 56.7291 36.7617C56.442 36.9785 56.0934 37.1484 55.6832 37.2715C55.2789 37.3945 54.8219 37.4561 54.3121 37.4561ZM52.5631 36.8408H54.3121C54.8805 36.8408 55.3815 36.8965 55.815 37.0078C56.2486 37.1133 56.6119 37.2715 56.9049 37.4824C57.1979 37.6934 57.4176 37.9541 57.5641 38.2646C57.7164 38.5693 57.7926 38.9209 57.7926 39.3193C57.7926 39.7646 57.7018 40.166 57.5201 40.5234C57.3443 40.875 57.0924 41.1738 56.7643 41.4199C56.4361 41.666 56.0436 41.8535 55.5865 41.9824C55.1354 42.1113 54.6344 42.1758 54.0836 42.1758C53.4684 42.1758 52.8707 42.0703 52.2906 41.8594C51.7106 41.6484 51.233 41.3232 50.858 40.8838C50.483 40.4385 50.2955 39.873 50.2955 39.1875H51.9215C51.9215 39.4746 52.0123 39.7471 52.194 40.0049C52.3756 40.2627 52.6275 40.4707 52.9498 40.6289C53.2779 40.7871 53.6559 40.8662 54.0836 40.8662C54.5406 40.8662 54.9215 40.7959 55.2262 40.6553C55.5309 40.5146 55.7594 40.3271 55.9117 40.0928C56.0699 39.8584 56.149 39.6035 56.149 39.3281C56.149 38.9707 56.0787 38.6836 55.9381 38.4668C55.7975 38.25 55.5807 38.0918 55.2877 37.9922C55.0006 37.8867 54.6315 37.834 54.1803 37.834H52.5631V36.8408ZM61.2286 32.4902V42H59.6026V32.4902H61.2286ZM67.4688 32.4902L62.96 37.9395H60.6836L60.4375 36.5156H62.3008L65.4913 32.4902H67.4688ZM65.7198 42L62.2217 37.6934L63.2676 36.5156L67.7852 42H65.7198ZM74.3677 40.374V35.4785C74.3677 35.1035 74.2915 34.7783 74.1391 34.5029C73.9927 34.2217 73.77 34.0049 73.4712 33.8525C73.1723 33.7002 72.8032 33.624 72.3638 33.624C71.9536 33.624 71.5932 33.6943 71.2827 33.835C70.978 33.9756 70.7378 34.1602 70.562 34.3887C70.3921 34.6172 70.3071 34.8633 70.3071 35.127H68.6811C68.6811 34.7871 68.769 34.4502 68.9448 34.1162C69.1206 33.7822 69.3725 33.4805 69.7007 33.2109C70.0347 32.9355 70.4331 32.7188 70.896 32.5605C71.3647 32.3965 71.8862 32.3145 72.4604 32.3145C73.1518 32.3145 73.7612 32.4316 74.2886 32.666C74.8218 32.9004 75.2378 33.2549 75.5366 33.7295C75.8413 34.1982 75.9936 34.7871 75.9936 35.4961V39.9258C75.9936 40.2422 76.02 40.5791 76.0727 40.9365C76.1313 41.2939 76.2163 41.6016 76.3276 41.8594V42H74.6313C74.5493 41.8125 74.4848 41.5635 74.438 41.2529C74.3911 40.9365 74.3677 40.6436 74.3677 40.374ZM74.6489 36.2344L74.6665 37.377H73.0229C72.56 37.377 72.147 37.415 71.7837 37.4912C71.4204 37.5615 71.1157 37.6699 70.8696 37.8164C70.6235 37.9629 70.436 38.1475 70.3071 38.3701C70.1782 38.5869 70.1138 38.8418 70.1138 39.1348C70.1138 39.4336 70.1811 39.7061 70.3159 39.9521C70.4507 40.1982 70.6528 40.3945 70.9223 40.541C71.1977 40.6816 71.5347 40.752 71.9331 40.752C72.4311 40.752 72.8706 40.6465 73.2514 40.4355C73.6323 40.2246 73.9341 39.9668 74.1567 39.6621C74.3852 39.3574 74.5083 39.0615 74.5259 38.7744L75.2202 39.5566C75.1792 39.8027 75.0679 40.0752 74.8862 40.374C74.7046 40.6729 74.4614 40.96 74.1567 41.2354C73.8579 41.5049 73.5005 41.7305 73.0845 41.9121C72.6743 42.0879 72.2114 42.1758 71.6958 42.1758C71.0513 42.1758 70.4858 42.0498 69.9995 41.7979C69.519 41.5459 69.144 41.209 68.8745 40.7871C68.6108 40.3594 68.479 39.8818 68.479 39.3545C68.479 38.8447 68.5786 38.3965 68.7778 38.0098C68.977 37.6172 69.2641 37.292 69.6391 37.0342C70.0141 36.7705 70.4653 36.5713 70.9927 36.4365C71.52 36.3018 72.1089 36.2344 72.7593 36.2344H74.6489ZM88.473 32.4902V33.835H83.6654V32.4902H88.473ZM83.9027 32.4902V42H82.2767V32.4902H83.9027ZM89.9144 32.4902V42H88.2797V32.4902H89.9144ZM91.6541 37.3506V37.1484C91.6541 36.4629 91.7537 35.8271 91.9529 35.2412C92.1522 34.6494 92.4393 34.1367 92.8143 33.7031C93.1893 33.2637 93.6434 32.9238 94.1766 32.6836C94.7098 32.4375 95.3074 32.3145 95.9695 32.3145C96.6375 32.3145 97.2381 32.4375 97.7713 32.6836C98.3104 32.9238 98.7674 33.2637 99.1424 33.7031C99.5232 34.1367 99.8133 34.6494 100.013 35.2412C100.212 35.8271 100.311 36.4629 100.311 37.1484V37.3506C100.311 38.0361 100.212 38.6719 100.013 39.2578C99.8133 39.8438 99.5232 40.3564 99.1424 40.7959C98.7674 41.2295 98.3133 41.5693 97.7801 41.8154C97.2527 42.0557 96.6551 42.1758 95.9871 42.1758C95.3191 42.1758 94.7186 42.0557 94.1854 41.8154C93.6522 41.5693 93.1951 41.2295 92.8143 40.7959C92.4393 40.3564 92.1522 39.8438 91.9529 39.2578C91.7537 38.6719 91.6541 38.0361 91.6541 37.3506ZM93.2801 37.1484V37.3506C93.2801 37.8252 93.3357 38.2734 93.4471 38.6953C93.5584 39.1113 93.7254 39.4805 93.9481 39.8027C94.1766 40.125 94.4607 40.3799 94.8006 40.5674C95.1404 40.749 95.5359 40.8398 95.9871 40.8398C96.4324 40.8398 96.8221 40.749 97.1561 40.5674C97.4959 40.3799 97.7772 40.125 97.9998 39.8027C98.2225 39.4805 98.3895 39.1113 98.5008 38.6953C98.618 38.2734 98.6766 37.8252 98.6766 37.3506V37.1484C98.6766 36.6797 98.618 36.2373 98.5008 35.8213C98.3895 35.3994 98.2195 35.0273 97.991 34.7051C97.7684 34.377 97.4871 34.1191 97.1473 33.9316C96.8133 33.7441 96.4207 33.6504 95.9695 33.6504C95.5242 33.6504 95.1316 33.7441 94.7918 33.9316C94.4578 34.1191 94.1766 34.377 93.9481 34.7051C93.7254 35.0273 93.5584 35.3994 93.4471 35.8213C93.3357 36.2373 93.2801 36.6797 93.2801 37.1484ZM103.835 37.4648H105.593L102.842 42H101.084L103.835 37.4648ZM105.198 32.4902H109.17V42H107.544V33.8086H105.198C104.735 33.8086 104.357 33.8877 104.064 34.0459C103.771 34.1982 103.557 34.3975 103.422 34.6436C103.287 34.8896 103.22 35.1445 103.22 35.4082C103.22 35.666 103.281 35.915 103.405 36.1553C103.528 36.3896 103.721 36.583 103.985 36.7354C104.248 36.8877 104.588 36.9639 105.004 36.9639H107.984V38.2998H105.004C104.459 38.2998 103.976 38.2266 103.554 38.0801C103.132 37.9336 102.775 37.7314 102.482 37.4736C102.189 37.21 101.966 36.9023 101.814 36.5508C101.661 36.1934 101.585 35.8066 101.585 35.3906C101.585 34.9746 101.664 34.5908 101.823 34.2393C101.987 33.8877 102.221 33.5801 102.526 33.3164C102.836 33.0527 103.214 32.8506 103.659 32.71C104.111 32.5635 104.623 32.4902 105.198 32.4902ZM115.155 40.8398C115.542 40.8398 115.899 40.7607 116.227 40.6025C116.555 40.4443 116.825 40.2275 117.036 39.9521C117.247 39.6709 117.367 39.3516 117.396 38.9941H118.943C118.914 39.5566 118.723 40.0811 118.372 40.5674C118.026 41.0479 117.572 41.4375 117.009 41.7363C116.447 42.0293 115.829 42.1758 115.155 42.1758C114.44 42.1758 113.816 42.0498 113.283 41.7979C112.756 41.5459 112.316 41.2002 111.965 40.7607C111.619 40.3213 111.358 39.8174 111.182 39.249C111.012 38.6748 110.927 38.0684 110.927 37.4297V37.0605C110.927 36.4219 111.012 35.8184 111.182 35.25C111.358 34.6758 111.619 34.1689 111.965 33.7295C112.316 33.29 112.756 32.9443 113.283 32.6924C113.816 32.4404 114.44 32.3145 115.155 32.3145C115.899 32.3145 116.549 32.4668 117.106 32.7715C117.663 33.0703 118.099 33.4805 118.416 34.002C118.738 34.5176 118.914 35.1035 118.943 35.7598H117.396C117.367 35.3672 117.256 35.0127 117.062 34.6963C116.875 34.3799 116.617 34.1279 116.289 33.9404C115.966 33.7471 115.589 33.6504 115.155 33.6504C114.657 33.6504 114.238 33.75 113.898 33.9492C113.564 34.1426 113.298 34.4062 113.098 34.7402C112.905 35.0684 112.764 35.4346 112.676 35.8389C112.594 36.2373 112.553 36.6445 112.553 37.0605V37.4297C112.553 37.8457 112.594 38.2559 112.676 38.6602C112.758 39.0645 112.896 39.4307 113.09 39.7588C113.289 40.0869 113.555 40.3506 113.889 40.5498C114.229 40.7432 114.651 40.8398 115.155 40.8398ZM126.782 36.6123V37.9307H121.755V36.6123H126.782ZM122.098 32.4902V42H120.472V32.4902H122.098ZM128.101 32.4902V42H126.466V32.4902H128.101ZM132.038 39.4248L136.423 32.4902H138.058V42H136.423V35.0654L132.038 42H130.42V32.4902H132.038V39.4248ZM144.104 32.4902V42H142.47V32.4902H144.104ZM147.295 32.4902V33.8086H139.341V32.4902H147.295ZM151.698 42.1758C151.036 42.1758 150.435 42.0645 149.896 41.8418C149.363 41.6133 148.903 41.2939 148.516 40.8838C148.135 40.4736 147.842 39.9873 147.637 39.4248C147.432 38.8623 147.33 38.2471 147.33 37.5791V37.21C147.33 36.4365 147.444 35.748 147.672 35.1445C147.901 34.5352 148.211 34.0195 148.604 33.5977C148.997 33.1758 149.442 32.8564 149.94 32.6396C150.438 32.4229 150.954 32.3145 151.487 32.3145C152.166 32.3145 152.752 32.4316 153.245 32.666C153.743 32.9004 154.15 33.2285 154.466 33.6504C154.783 34.0664 155.017 34.5586 155.169 35.127C155.322 35.6895 155.398 36.3047 155.398 36.9727V37.7021H148.296V36.375H153.772V36.252C153.748 35.8301 153.661 35.4199 153.508 35.0215C153.362 34.623 153.127 34.2949 152.805 34.0371C152.483 33.7793 152.043 33.6504 151.487 33.6504C151.118 33.6504 150.778 33.7295 150.467 33.8877C150.157 34.04 149.89 34.2686 149.667 34.5732C149.445 34.8779 149.272 35.25 149.149 35.6895C149.026 36.1289 148.964 36.6357 148.964 37.21V37.5791C148.964 38.0303 149.026 38.4551 149.149 38.8535C149.278 39.2461 149.462 39.5918 149.703 39.8906C149.949 40.1895 150.245 40.4238 150.59 40.5938C150.942 40.7637 151.34 40.8486 151.786 40.8486C152.36 40.8486 152.846 40.7314 153.245 40.4971C153.643 40.2627 153.992 39.9492 154.29 39.5566L155.275 40.3389C155.07 40.6494 154.809 40.9453 154.493 41.2266C154.176 41.5078 153.787 41.7363 153.324 41.9121C152.867 42.0879 152.325 42.1758 151.698 42.1758ZM163.211 32.4902V33.835H158.614V32.4902H163.211ZM164.643 32.4902V42H163.017V32.4902H164.643ZM158.219 32.4902H159.853L159.607 37.0781C159.566 37.7871 159.499 38.4141 159.405 38.959C159.317 39.498 159.194 39.9609 159.036 40.3477C158.884 40.7344 158.69 41.0508 158.456 41.2969C158.227 41.5371 157.952 41.7158 157.63 41.833C157.308 41.9443 156.935 42 156.514 42H156.004V40.5674L156.355 40.541C156.607 40.5234 156.821 40.4648 156.997 40.3652C157.179 40.2656 157.331 40.1191 157.454 39.9258C157.577 39.7266 157.677 39.4717 157.753 39.1611C157.835 38.8506 157.896 38.4814 157.937 38.0537C157.984 37.626 158.019 37.1279 158.043 36.5596L158.219 32.4902ZM168.159 35.7598H171.015C171.783 35.7598 172.43 35.8945 172.957 36.1641C173.485 36.4277 173.883 36.7939 174.153 37.2627C174.428 37.7256 174.566 38.2529 174.566 38.8447C174.566 39.2842 174.49 39.6973 174.337 40.084C174.185 40.4648 173.956 40.7988 173.652 41.0859C173.353 41.373 172.981 41.5986 172.535 41.7627C172.096 41.9209 171.589 42 171.015 42H166.972V32.4902H168.598V40.6641H171.015C171.484 40.6641 171.859 40.5791 172.14 40.4092C172.421 40.2393 172.623 40.0195 172.746 39.75C172.869 39.4805 172.931 39.1992 172.931 38.9062C172.931 38.6191 172.869 38.3379 172.746 38.0625C172.623 37.7871 172.421 37.5586 172.14 37.377C171.859 37.1895 171.484 37.0957 171.015 37.0957H168.159V35.7598ZM182.607 36.6123V37.9307H177.58V36.6123H182.607ZM177.923 32.4902V42H176.297V32.4902H177.923ZM183.926 32.4902V42H182.291V32.4902H183.926ZM185.674 37.3506V37.1484C185.674 36.4629 185.774 35.8271 185.973 35.2412C186.172 34.6494 186.459 34.1367 186.834 33.7031C187.209 33.2637 187.663 32.9238 188.196 32.6836C188.73 32.4375 189.327 32.3145 189.989 32.3145C190.657 32.3145 191.258 32.4375 191.791 32.6836C192.33 32.9238 192.787 33.2637 193.162 33.7031C193.543 34.1367 193.833 34.6494 194.032 35.2412C194.232 35.8271 194.331 36.4629 194.331 37.1484V37.3506C194.331 38.0361 194.232 38.6719 194.032 39.2578C193.833 39.8438 193.543 40.3564 193.162 40.7959C192.787 41.2295 192.333 41.5693 191.8 41.8154C191.273 42.0557 190.675 42.1758 190.007 42.1758C189.339 42.1758 188.738 42.0557 188.205 41.8154C187.672 41.5693 187.215 41.2295 186.834 40.7959C186.459 40.3564 186.172 39.8438 185.973 39.2578C185.774 38.6719 185.674 38.0361 185.674 37.3506ZM187.3 37.1484V37.3506C187.3 37.8252 187.356 38.2734 187.467 38.6953C187.578 39.1113 187.745 39.4805 187.968 39.8027C188.196 40.125 188.481 40.3799 188.821 40.5674C189.16 40.749 189.556 40.8398 190.007 40.8398C190.452 40.8398 190.842 40.749 191.176 40.5674C191.516 40.3799 191.797 40.125 192.02 39.8027C192.242 39.4805 192.409 39.1113 192.521 38.6953C192.638 38.2734 192.696 37.8252 192.696 37.3506V37.1484C192.696 36.6797 192.638 36.2373 192.521 35.8213C192.409 35.3994 192.239 35.0273 192.011 34.7051C191.788 34.377 191.507 34.1191 191.167 33.9316C190.833 33.7441 190.441 33.6504 189.989 33.6504C189.544 33.6504 189.152 33.7441 188.812 33.9316C188.478 34.1191 188.196 34.377 187.968 34.7051C187.745 35.0273 187.578 35.3994 187.467 35.8213C187.356 36.2373 187.3 36.6797 187.3 37.1484ZM197.688 39.4248L202.074 32.4902H203.709V42H202.074V35.0654L197.688 42H196.071V32.4902H197.688V39.4248ZM201.186 29.0449H202.505C202.505 29.502 202.399 29.9092 202.188 30.2666C201.977 30.6182 201.675 30.8936 201.283 31.0928C200.89 31.292 200.424 31.3916 199.885 31.3916C199.071 31.3916 198.426 31.1748 197.952 30.7412C197.483 30.3018 197.249 29.7363 197.249 29.0449H198.567C198.567 29.3906 198.667 29.6953 198.866 29.959C199.065 30.2227 199.405 30.3545 199.885 30.3545C200.354 30.3545 200.688 30.2227 200.887 29.959C201.087 29.6953 201.186 29.3906 201.186 29.0449ZM213.455 37.4561H211.706V36.4541H213.323C213.774 36.4541 214.131 36.3984 214.395 36.2871C214.659 36.1699 214.846 36.0088 214.958 35.8037C215.069 35.5986 215.125 35.3584 215.125 35.083C215.125 34.8369 215.06 34.6055 214.931 34.3887C214.808 34.166 214.609 33.9873 214.334 33.8525C214.058 33.7119 213.689 33.6416 213.226 33.6416C212.851 33.6416 212.511 33.709 212.207 33.8438C211.902 33.9727 211.659 34.1514 211.477 34.3799C211.301 34.6025 211.213 34.8545 211.213 35.1357H209.587C209.587 34.5557 209.751 34.0576 210.08 33.6416C210.414 33.2197 210.856 32.8945 211.407 32.666C211.963 32.4375 212.57 32.3232 213.226 32.3232C213.777 32.3232 214.269 32.3848 214.703 32.5078C215.142 32.625 215.514 32.8008 215.819 33.0352C216.124 33.2637 216.355 33.5508 216.513 33.8965C216.677 34.2363 216.759 34.6318 216.759 35.083C216.759 35.4053 216.683 35.71 216.531 35.9971C216.378 36.2842 216.159 36.5391 215.872 36.7617C215.585 36.9785 215.236 37.1484 214.826 37.2715C214.421 37.3945 213.964 37.4561 213.455 37.4561ZM211.706 36.8408H213.455C214.023 36.8408 214.524 36.8965 214.958 37.0078C215.391 37.1133 215.754 37.2715 216.047 37.4824C216.34 37.6934 216.56 37.9541 216.707 38.2646C216.859 38.5693 216.935 38.9209 216.935 39.3193C216.935 39.7646 216.844 40.166 216.663 40.5234C216.487 40.875 216.235 41.1738 215.907 41.4199C215.579 41.666 215.186 41.8535 214.729 41.9824C214.278 42.1113 213.777 42.1758 213.226 42.1758C212.611 42.1758 212.013 42.0703 211.433 41.8594C210.853 41.6484 210.376 41.3232 210.001 40.8838C209.626 40.4385 209.438 39.873 209.438 39.1875H211.064C211.064 39.4746 211.155 39.7471 211.336 40.0049C211.518 40.2627 211.77 40.4707 212.092 40.6289C212.42 40.7871 212.798 40.8662 213.226 40.8662C213.683 40.8662 214.064 40.7959 214.369 40.6553C214.673 40.5146 214.902 40.3271 215.054 40.0928C215.212 39.8584 215.292 39.6035 215.292 39.3281C215.292 38.9707 215.221 38.6836 215.081 38.4668C214.94 38.25 214.723 38.0918 214.43 37.9922C214.143 37.8867 213.774 37.834 213.323 37.834H211.706V36.8408ZM224.212 40.374V35.4785C224.212 35.1035 224.136 34.7783 223.983 34.5029C223.837 34.2217 223.614 34.0049 223.315 33.8525C223.017 33.7002 222.647 33.624 222.208 33.624C221.798 33.624 221.437 33.6943 221.127 33.835C220.822 33.9756 220.582 34.1602 220.406 34.3887C220.236 34.6172 220.151 34.8633 220.151 35.127H218.525C218.525 34.7871 218.613 34.4502 218.789 34.1162C218.965 33.7822 219.217 33.4805 219.545 33.2109C219.879 32.9355 220.277 32.7188 220.74 32.5605C221.209 32.3965 221.73 32.3145 222.305 32.3145C222.996 32.3145 223.605 32.4316 224.133 32.666C224.666 32.9004 225.082 33.2549 225.381 33.7295C225.686 34.1982 225.838 34.7871 225.838 35.4961V39.9258C225.838 40.2422 225.864 40.5791 225.917 40.9365C225.976 41.2939 226.061 41.6016 226.172 41.8594V42H224.476C224.394 41.8125 224.329 41.5635 224.282 41.2529C224.235 40.9365 224.212 40.6436 224.212 40.374ZM224.493 36.2344L224.511 37.377H222.867C222.404 37.377 221.991 37.415 221.628 37.4912C221.265 37.5615 220.96 37.6699 220.714 37.8164C220.468 37.9629 220.28 38.1475 220.151 38.3701C220.022 38.5869 219.958 38.8418 219.958 39.1348C219.958 39.4336 220.025 39.7061 220.16 39.9521C220.295 40.1982 220.497 40.3945 220.767 40.541C221.042 40.6816 221.379 40.752 221.777 40.752C222.275 40.752 222.715 40.6465 223.096 40.4355C223.477 40.2246 223.778 39.9668 224.001 39.6621C224.229 39.3574 224.353 39.0615 224.37 38.7744L225.064 39.5566C225.023 39.8027 224.912 40.0752 224.73 40.374C224.549 40.6729 224.306 40.96 224.001 41.2354C223.702 41.5049 223.345 41.7305 222.929 41.9121C222.519 42.0879 222.056 42.1758 221.54 42.1758C220.895 42.1758 220.33 42.0498 219.844 41.7979C219.363 41.5459 218.988 41.209 218.719 40.7871C218.455 40.3594 218.323 39.8818 218.323 39.3545C218.323 38.8447 218.423 38.3965 218.622 38.0098C218.821 37.6172 219.108 37.292 219.483 37.0342C219.858 36.7705 220.31 36.5713 220.837 36.4365C221.364 36.3018 221.953 36.2344 222.603 36.2344H224.493ZM234.292 32.4902V33.835H229.485V32.4902H234.292ZM229.722 32.4902V42H228.096V32.4902H229.722ZM235.734 32.4902V42H234.099V32.4902H235.734ZM239.662 39.4248L244.048 32.4902H245.682V42H244.048V35.0654L239.662 42H238.045V32.4902H239.662V39.4248ZM251.658 40.8398C252.045 40.8398 252.403 40.7607 252.731 40.6025C253.059 40.4443 253.328 40.2275 253.539 39.9521C253.75 39.6709 253.87 39.3516 253.9 38.9941H255.447C255.417 39.5566 255.227 40.0811 254.875 40.5674C254.53 41.0479 254.075 41.4375 253.513 41.7363C252.95 42.0293 252.332 42.1758 251.658 42.1758C250.944 42.1758 250.32 42.0498 249.786 41.7979C249.259 41.5459 248.82 41.2002 248.468 40.7607C248.122 40.3213 247.862 39.8174 247.686 39.249C247.516 38.6748 247.431 38.0684 247.431 37.4297V37.0605C247.431 36.4219 247.516 35.8184 247.686 35.25C247.862 34.6758 248.122 34.1689 248.468 33.7295C248.82 33.29 249.259 32.9443 249.786 32.6924C250.32 32.4404 250.944 32.3145 251.658 32.3145C252.403 32.3145 253.053 32.4668 253.61 32.7715C254.166 33.0703 254.603 33.4805 254.919 34.002C255.241 34.5176 255.417 35.1035 255.447 35.7598H253.9C253.87 35.3672 253.759 35.0127 253.566 34.6963C253.378 34.3799 253.12 34.1279 252.792 33.9404C252.47 33.7471 252.092 33.6504 251.658 33.6504C251.16 33.6504 250.741 33.75 250.402 33.9492C250.068 34.1426 249.801 34.4062 249.602 34.7402C249.408 35.0684 249.268 35.4346 249.18 35.8389C249.098 36.2373 249.057 36.6445 249.057 37.0605V37.4297C249.057 37.8457 249.098 38.2559 249.18 38.6602C249.262 39.0645 249.4 39.4307 249.593 39.7588C249.792 40.0869 250.059 40.3506 250.393 40.5498C250.733 40.7432 251.155 40.8398 251.658 40.8398ZM258.601 32.4902V42H256.975V32.4902H258.601ZM264.842 32.4902L260.333 37.9395H258.056L257.81 36.5156H259.674L262.864 32.4902H264.842ZM263.092 42L259.594 37.6934L260.64 36.5156L265.158 42H263.092ZM267.891 39.4248L272.277 32.4902H273.911V42H272.277V35.0654L267.891 42H266.274V32.4902H267.891V39.4248ZM83.4017 61.8164H80.2816L80.264 60.5156H82.8129C83.3168 60.5156 83.7357 60.4658 84.0697 60.3662C84.4095 60.2666 84.6644 60.1172 84.8343 59.918C85.0043 59.7188 85.0892 59.4727 85.0892 59.1797C85.0892 58.9512 85.0394 58.752 84.9398 58.582C84.8461 58.4062 84.7025 58.2627 84.5091 58.1514C84.3158 58.0342 84.0755 57.9492 83.7884 57.8965C83.5072 57.8379 83.1761 57.8086 82.7953 57.8086H80.7123V66H79.0863V56.4902H82.7953C83.3988 56.4902 83.9408 56.543 84.4212 56.6484C84.9076 56.7539 85.3207 56.915 85.6605 57.1318C86.0062 57.3428 86.2699 57.6123 86.4515 57.9404C86.6332 58.2686 86.724 58.6553 86.724 59.1006C86.724 59.3877 86.6654 59.6602 86.5482 59.918C86.431 60.1758 86.2582 60.4043 86.0296 60.6035C85.8011 60.8027 85.5199 60.9668 85.1859 61.0957C84.8519 61.2188 84.4681 61.2979 84.0345 61.333L83.4017 61.8164ZM83.4017 66H79.6927L80.5013 64.6816H83.4017C83.8529 64.6816 84.2279 64.626 84.5267 64.5146C84.8255 64.3975 85.0482 64.2334 85.1947 64.0225C85.347 63.8057 85.4232 63.5479 85.4232 63.249C85.4232 62.9502 85.347 62.6953 85.1947 62.4844C85.0482 62.2676 84.8255 62.1035 84.5267 61.9922C84.2279 61.875 83.8529 61.8164 83.4017 61.8164H80.932L80.9496 60.5156H84.0345L84.6234 61.0078C85.1449 61.0488 85.5873 61.1777 85.9505 61.3945C86.3138 61.6113 86.5892 61.8867 86.7767 62.2207C86.9642 62.5488 87.058 62.9062 87.058 63.293C87.058 63.7383 86.973 64.1309 86.8031 64.4707C86.639 64.8105 86.3988 65.0947 86.0824 65.3232C85.766 65.5459 85.3822 65.7158 84.931 65.833C84.4798 65.9443 83.9701 66 83.4017 66ZM103.756 61.4121V61.5967C103.756 62.2646 103.683 62.8799 103.536 63.4424C103.39 63.999 103.17 64.4824 102.877 64.8926C102.59 65.3027 102.233 65.6221 101.805 65.8506C101.377 66.0732 100.882 66.1846 100.32 66.1846C99.8567 66.1846 99.4495 66.123 99.0979 66C98.7463 65.8711 98.4475 65.6865 98.2014 65.4463C97.9612 65.2061 97.7678 64.9189 97.6213 64.585C97.4807 64.2451 97.384 63.8643 97.3313 63.4424V59.2236C97.384 58.7725 97.4807 58.3682 97.6213 58.0107C97.7678 57.6533 97.9612 57.3486 98.2014 57.0967C98.4475 56.8447 98.7434 56.6514 99.0891 56.5166C99.4348 56.3818 99.8391 56.3145 100.302 56.3145C100.759 56.3145 101.169 56.3965 101.532 56.5605C101.902 56.7188 102.224 56.9473 102.499 57.2461C102.781 57.5449 103.012 57.9053 103.194 58.3271C103.381 58.7432 103.522 59.2119 103.615 59.7334C103.709 60.2549 103.756 60.8145 103.756 61.4121ZM102.13 61.5967V61.4121C102.13 61.002 102.101 60.6123 102.042 60.2432C101.989 59.8682 101.905 59.5254 101.787 59.2148C101.676 58.8984 101.53 58.623 101.348 58.3887C101.166 58.1543 100.947 57.9727 100.689 57.8438C100.437 57.7148 100.147 57.6504 99.8186 57.6504C99.467 57.6504 99.1741 57.6943 98.9397 57.7822C98.7112 57.8701 98.5325 57.9873 98.4036 58.1338C98.2747 58.2744 98.1809 58.4238 98.1223 58.582V64.0928C98.1926 64.2217 98.2952 64.3447 98.4299 64.4619C98.5647 64.5732 98.7463 64.667 98.9748 64.7432C99.2034 64.8135 99.4905 64.8486 99.8362 64.8486C100.246 64.8486 100.595 64.7666 100.882 64.6025C101.175 64.4326 101.412 64.1982 101.594 63.8994C101.781 63.6006 101.916 63.2549 101.998 62.8623C102.086 62.4697 102.13 62.0479 102.13 61.5967ZM92.4622 61.5967V61.4121C92.4622 60.8145 92.509 60.2549 92.6028 59.7334C92.6965 59.2119 92.8372 58.7432 93.0247 58.3271C93.2122 57.9053 93.4436 57.5449 93.719 57.2461C94.0002 56.9473 94.3225 56.7188 94.6858 56.5605C95.0549 56.3965 95.468 56.3145 95.925 56.3145C96.3762 56.3145 96.7688 56.3818 97.1028 56.5166C97.4426 56.6514 97.7297 56.8447 97.9641 57.0967C98.1985 57.3486 98.386 57.6533 98.5266 58.0107C98.6672 58.3682 98.7668 58.7725 98.8254 59.2236V63.2754C98.7727 63.7207 98.676 64.1221 98.5354 64.4795C98.3948 64.8369 98.2073 65.1445 97.9729 65.4023C97.7385 65.6543 97.4485 65.8477 97.1028 65.9824C96.7629 66.1172 96.3645 66.1846 95.9075 66.1846C95.345 66.1846 94.8498 66.0732 94.4221 65.8506C93.9944 65.6221 93.634 65.3027 93.3411 64.8926C93.0539 64.4824 92.8342 63.999 92.6819 63.4424C92.5354 62.8799 92.4622 62.2646 92.4622 61.5967ZM94.0969 61.4121V61.5967C94.0969 62.0479 94.135 62.4697 94.2112 62.8623C94.2932 63.2549 94.4192 63.6006 94.5891 63.8994C94.7649 64.1982 94.9934 64.4326 95.2747 64.6025C95.5559 64.7666 95.9016 64.8486 96.3118 64.8486C96.6633 64.8486 96.9534 64.8047 97.1819 64.7168C97.4104 64.6289 97.592 64.5146 97.7268 64.374C97.8616 64.2334 97.9641 64.0869 98.0344 63.9346V58.582C97.9758 58.4238 97.8791 58.2744 97.7444 58.1338C97.6155 57.9873 97.4368 57.8701 97.2082 57.7822C96.9797 57.6943 96.6868 57.6504 96.3293 57.6504C95.9192 57.6504 95.5705 57.75 95.2834 57.9492C94.9963 58.1484 94.7649 58.4209 94.5891 58.7666C94.4192 59.1123 94.2932 59.5137 94.2112 59.9707C94.135 60.4219 94.0969 60.9023 94.0969 61.4121ZM97.2258 69.6562V52.5H98.8606V69.6562H97.2258ZM105.012 61.3506V61.1484C105.012 60.4629 105.112 59.8271 105.311 59.2412C105.51 58.6494 105.798 58.1367 106.173 57.7031C106.548 57.2637 107.002 56.9238 107.535 56.6836C108.068 56.4375 108.666 56.3145 109.328 56.3145C109.996 56.3145 110.596 56.4375 111.13 56.6836C111.669 56.9238 112.126 57.2637 112.501 57.7031C112.882 58.1367 113.172 58.6494 113.371 59.2412C113.57 59.8271 113.67 60.4629 113.67 61.1484V61.3506C113.67 62.0361 113.57 62.6719 113.371 63.2578C113.172 63.8438 112.882 64.3564 112.501 64.7959C112.126 65.2295 111.672 65.5693 111.138 65.8154C110.611 66.0557 110.013 66.1758 109.345 66.1758C108.677 66.1758 108.077 66.0557 107.544 65.8154C107.01 65.5693 106.553 65.2295 106.173 64.7959C105.798 64.3564 105.51 63.8438 105.311 63.2578C105.112 62.6719 105.012 62.0361 105.012 61.3506ZM106.638 61.1484V61.3506C106.638 61.8252 106.694 62.2734 106.805 62.6953C106.917 63.1113 107.084 63.4805 107.306 63.8027C107.535 64.125 107.819 64.3799 108.159 64.5674C108.499 64.749 108.894 64.8398 109.345 64.8398C109.791 64.8398 110.18 64.749 110.514 64.5674C110.854 64.3799 111.135 64.125 111.358 63.8027C111.581 63.4805 111.748 63.1113 111.859 62.6953C111.976 62.2734 112.035 61.8252 112.035 61.3506V61.1484C112.035 60.6797 111.976 60.2373 111.859 59.8213C111.748 59.3994 111.578 59.0273 111.349 58.7051C111.127 58.377 110.845 58.1191 110.506 57.9316C110.172 57.7441 109.779 57.6504 109.328 57.6504C108.882 57.6504 108.49 57.7441 108.15 57.9316C107.816 58.1191 107.535 58.377 107.306 58.7051C107.084 59.0273 106.917 59.3994 106.805 59.8213C106.694 60.2373 106.638 60.6797 106.638 61.1484ZM116.895 58.3184V69.6562H115.26V56.4902H116.754L116.895 58.3184ZM123.302 61.166V61.3506C123.302 62.042 123.22 62.6836 123.056 63.2754C122.892 63.8613 122.651 64.3711 122.335 64.8047C122.025 65.2383 121.641 65.5752 121.184 65.8154C120.727 66.0557 120.202 66.1758 119.61 66.1758C119.007 66.1758 118.474 66.0762 118.011 65.877C117.548 65.6777 117.155 65.3877 116.833 65.0068C116.511 64.626 116.253 64.1689 116.06 63.6357C115.872 63.1025 115.743 62.502 115.673 61.834V60.8496C115.743 60.1465 115.875 59.5166 116.068 58.96C116.262 58.4033 116.517 57.9287 116.833 57.5361C117.155 57.1377 117.545 56.8359 118.002 56.6309C118.459 56.4199 118.986 56.3145 119.584 56.3145C120.182 56.3145 120.712 56.4316 121.175 56.666C121.638 56.8945 122.027 57.2227 122.344 57.6504C122.66 58.0781 122.898 58.5908 123.056 59.1885C123.22 59.7803 123.302 60.4395 123.302 61.166ZM121.667 61.3506V61.166C121.667 60.6914 121.617 60.2461 121.518 59.8301C121.418 59.4082 121.263 59.0391 121.052 58.7227C120.847 58.4004 120.583 58.1484 120.261 57.9668C119.939 57.7793 119.555 57.6855 119.109 57.6855C118.699 57.6855 118.342 57.7559 118.037 57.8965C117.738 58.0371 117.484 58.2275 117.273 58.4678C117.062 58.7021 116.889 58.9717 116.754 59.2764C116.625 59.5752 116.528 59.8857 116.464 60.208V62.4844C116.581 62.8945 116.745 63.2812 116.956 63.6445C117.167 64.002 117.448 64.292 117.8 64.5146C118.151 64.7314 118.594 64.8398 119.127 64.8398C119.567 64.8398 119.944 64.749 120.261 64.5674C120.583 64.3799 120.847 64.125 121.052 63.8027C121.263 63.4805 121.418 63.1113 121.518 62.6953C121.617 62.2734 121.667 61.8252 121.667 61.3506ZM130.403 63.8379L133.637 56.4902H135.202L130.965 66H129.84L125.622 56.4902H127.186L130.403 63.8379ZM126.711 56.4902V66H125.086V56.4902H126.711ZM134.042 66V56.4902H135.676V66H134.042ZM143.463 64.374V59.4785C143.463 59.1035 143.387 58.7783 143.234 58.5029C143.088 58.2217 142.865 58.0049 142.566 57.8525C142.268 57.7002 141.898 57.624 141.459 57.624C141.049 57.624 140.688 57.6943 140.378 57.835C140.073 57.9756 139.833 58.1602 139.657 58.3887C139.487 58.6172 139.402 58.8633 139.402 59.127H137.776C137.776 58.7871 137.864 58.4502 138.04 58.1162C138.216 57.7822 138.468 57.4805 138.796 57.2109C139.13 56.9355 139.528 56.7188 139.991 56.5605C140.46 56.3965 140.981 56.3145 141.556 56.3145C142.247 56.3145 142.856 56.4316 143.384 56.666C143.917 56.9004 144.333 57.2549 144.632 57.7295C144.937 58.1982 145.089 58.7871 145.089 59.4961V63.9258C145.089 64.2422 145.115 64.5791 145.168 64.9365C145.227 65.2939 145.312 65.6016 145.423 65.8594V66H143.727C143.645 65.8125 143.58 65.5635 143.533 65.2529C143.486 64.9365 143.463 64.6436 143.463 64.374ZM143.744 60.2344L143.762 61.377H142.118C141.655 61.377 141.242 61.415 140.879 61.4912C140.516 61.5615 140.211 61.6699 139.965 61.8164C139.719 61.9629 139.531 62.1475 139.402 62.3701C139.273 62.5869 139.209 62.8418 139.209 63.1348C139.209 63.4336 139.276 63.7061 139.411 63.9521C139.546 64.1982 139.748 64.3945 140.018 64.541C140.293 64.6816 140.63 64.752 141.028 64.752C141.526 64.752 141.966 64.6465 142.347 64.4355C142.728 64.2246 143.029 63.9668 143.252 63.6621C143.48 63.3574 143.604 63.0615 143.621 62.7744L144.315 63.5566C144.274 63.8027 144.163 64.0752 143.981 64.374C143.8 64.6729 143.557 64.96 143.252 65.2354C142.953 65.5049 142.596 65.7305 142.18 65.9121C141.77 66.0879 141.307 66.1758 140.791 66.1758C140.146 66.1758 139.581 66.0498 139.095 65.7979C138.614 65.5459 138.239 65.209 137.97 64.7871C137.706 64.3594 137.574 63.8818 137.574 63.3545C137.574 62.8447 137.674 62.3965 137.873 62.0098C138.072 61.6172 138.359 61.292 138.734 61.0342C139.109 60.7705 139.561 60.5713 140.088 60.4365C140.615 60.3018 141.204 60.2344 141.854 60.2344H143.744ZM150.942 56.4902V66H149.307V56.4902H150.942ZM154.132 56.4902V57.8086H146.178V56.4902H154.132ZM158.535 66.1758C157.873 66.1758 157.272 66.0645 156.733 65.8418C156.2 65.6133 155.74 65.2939 155.353 64.8838C154.973 64.4736 154.68 63.9873 154.474 63.4248C154.269 62.8623 154.167 62.2471 154.167 61.5791V61.21C154.167 60.4365 154.281 59.748 154.51 59.1445C154.738 58.5352 155.049 58.0195 155.441 57.5977C155.834 57.1758 156.279 56.8564 156.777 56.6396C157.275 56.4229 157.791 56.3145 158.324 56.3145C159.004 56.3145 159.59 56.4316 160.082 56.666C160.58 56.9004 160.987 57.2285 161.304 57.6504C161.62 58.0664 161.854 58.5586 162.007 59.127C162.159 59.6895 162.235 60.3047 162.235 60.9727V61.7021H155.134V60.375H160.609V60.252C160.586 59.8301 160.498 59.4199 160.346 59.0215C160.199 58.623 159.965 58.2949 159.642 58.0371C159.32 57.7793 158.881 57.6504 158.324 57.6504C157.955 57.6504 157.615 57.7295 157.305 57.8877C156.994 58.04 156.727 58.2686 156.505 58.5732C156.282 58.8779 156.109 59.25 155.986 59.6895C155.863 60.1289 155.802 60.6357 155.802 61.21V61.5791C155.802 62.0303 155.863 62.4551 155.986 62.8535C156.115 63.2461 156.3 63.5918 156.54 63.8906C156.786 64.1895 157.082 64.4238 157.428 64.5938C157.779 64.7637 158.178 64.8486 158.623 64.8486C159.197 64.8486 159.683 64.7314 160.082 64.4971C160.48 64.2627 160.829 63.9492 161.128 63.5566L162.112 64.3389C161.907 64.6494 161.646 64.9453 161.33 65.2266C161.014 65.5078 160.624 65.7363 160.161 65.9121C159.704 66.0879 159.162 66.1758 158.535 66.1758ZM169.063 53.2031L172.139 58.1074L175.216 53.2031H177.193L173.15 59.54L177.29 66H175.295L172.139 60.999L168.984 66H166.989L171.129 59.54L167.086 53.2031H169.063ZM179.346 53.2031H180.989L185.182 63.6357L189.365 53.2031H191.018L185.815 66H184.531L179.346 53.2031ZM178.81 53.2031H180.26L180.497 61.0078V66H178.81V53.2031ZM190.095 53.2031H191.545V66H189.858V61.0078L190.095 53.2031ZM201.845 64.6201V66H195.447V64.6201H201.845ZM195.781 53.2031V66H194.085V53.2031H195.781Z" fill="#17120F"/>
<rect x="300.5" y="0.5" width="279" height="95" rx="15.5" stroke="#17120F"/>
<path d="M354.716 47.8564H353.196V46.7754H354.655C355.299 46.7754 355.821 46.6846 356.219 46.5029C356.618 46.3213 356.908 46.0693 357.089 45.7471C357.271 45.4248 357.362 45.0527 357.362 44.6309C357.362 44.2266 357.262 43.8574 357.063 43.5234C356.864 43.1836 356.556 42.9141 356.14 42.7148C355.724 42.5098 355.188 42.4072 354.532 42.4072C354.039 42.4072 353.594 42.501 353.196 42.6885C352.797 42.8701 352.481 43.125 352.246 43.4531C352.012 43.7754 351.895 44.1475 351.895 44.5693H350.199C350.199 44.0244 350.313 43.5352 350.541 43.1016C350.77 42.6621 351.083 42.29 351.482 41.9854C351.88 41.6748 352.34 41.4375 352.862 41.2734C353.389 41.1094 353.946 41.0273 354.532 41.0273C355.217 41.0273 355.838 41.1064 356.395 41.2646C356.951 41.417 357.429 41.6455 357.827 41.9502C358.226 42.2549 358.531 42.6328 358.742 43.084C358.952 43.5352 359.058 44.0596 359.058 44.6572C359.058 45.0967 358.955 45.5098 358.75 45.8965C358.545 46.2832 358.252 46.623 357.871 46.916C357.491 47.209 357.034 47.4404 356.5 47.6104C355.967 47.7744 355.372 47.8564 354.716 47.8564ZM353.196 47.1094H354.716C355.437 47.1094 356.078 47.1826 356.641 47.3291C357.203 47.4756 357.678 47.6895 358.065 47.9707C358.451 48.252 358.744 48.6006 358.944 49.0166C359.149 49.4268 359.251 49.8984 359.251 50.4316C359.251 51.0293 359.134 51.5596 358.9 52.0225C358.671 52.4854 358.346 52.8779 357.924 53.2002C357.502 53.5225 357.001 53.7656 356.421 53.9297C355.847 54.0938 355.217 54.1758 354.532 54.1758C353.981 54.1758 353.436 54.1055 352.897 53.9648C352.364 53.8184 351.88 53.5957 351.447 53.2969C351.013 52.9922 350.664 52.6055 350.401 52.1367C350.143 51.668 350.014 51.1055 350.014 50.4492H351.71C351.71 50.877 351.827 51.2695 352.062 51.627C352.302 51.9844 352.633 52.2715 353.055 52.4883C353.477 52.6992 353.969 52.8047 354.532 52.8047C355.176 52.8047 355.721 52.7051 356.166 52.5059C356.618 52.3008 356.96 52.0225 357.195 51.6709C357.435 51.3135 357.555 50.9121 357.555 50.4668C357.555 50.0742 357.491 49.7344 357.362 49.4473C357.239 49.1543 357.054 48.9141 356.808 48.7266C356.568 48.5391 356.266 48.4014 355.903 48.3135C355.545 48.2197 355.129 48.1729 354.655 48.1729H353.196V47.1094ZM366.405 52.374V47.4785C366.405 47.1035 366.329 46.7783 366.177 46.5029C366.03 46.2217 365.807 46.0049 365.509 45.8525C365.21 45.7002 364.841 45.624 364.401 45.624C363.991 45.624 363.631 45.6943 363.32 45.835C363.015 45.9756 362.775 46.1602 362.599 46.3887C362.429 46.6172 362.344 46.8633 362.344 47.127H360.719C360.719 46.7871 360.806 46.4502 360.982 46.1162C361.158 45.7822 361.41 45.4805 361.738 45.2109C362.072 44.9355 362.47 44.7188 362.933 44.5605C363.402 44.3965 363.924 44.3145 364.498 44.3145C365.189 44.3145 365.799 44.4316 366.326 44.666C366.859 44.9004 367.275 45.2549 367.574 45.7295C367.879 46.1982 368.031 46.7871 368.031 47.4961V51.9258C368.031 52.2422 368.057 52.5791 368.11 52.9365C368.169 53.2939 368.254 53.6016 368.365 53.8594V54H366.669C366.587 53.8125 366.522 53.5635 366.475 53.2529C366.428 52.9365 366.405 52.6436 366.405 52.374ZM366.686 48.2344L366.704 49.377H365.06C364.597 49.377 364.184 49.415 363.821 49.4912C363.458 49.5615 363.153 49.6699 362.907 49.8164C362.661 49.9629 362.473 50.1475 362.344 50.3701C362.216 50.5869 362.151 50.8418 362.151 51.1348C362.151 51.4336 362.219 51.7061 362.353 51.9521C362.488 52.1982 362.69 52.3945 362.96 52.541C363.235 52.6816 363.572 52.752 363.97 52.752C364.469 52.752 364.908 52.6465 365.289 52.4355C365.67 52.2246 365.971 51.9668 366.194 51.6621C366.423 51.3574 366.546 51.0615 366.563 50.7744L367.258 51.5566C367.217 51.8027 367.105 52.0752 366.924 52.374C366.742 52.6729 366.499 52.96 366.194 53.2354C365.895 53.5049 365.538 53.7305 365.122 53.9121C364.712 54.0879 364.249 54.1758 363.733 54.1758C363.089 54.1758 362.523 54.0498 362.037 53.7979C361.556 53.5459 361.181 53.209 360.912 52.7871C360.648 52.3594 360.516 51.8818 360.516 51.3545C360.516 50.8447 360.616 50.3965 360.815 50.0098C361.014 49.6172 361.302 49.292 361.677 49.0342C362.052 48.7705 362.503 48.5713 363.03 48.4365C363.557 48.3018 364.146 48.2344 364.797 48.2344H366.686ZM376.292 44.4902V45.835H371.898V54H370.272V44.4902H376.292ZM378.893 46.3184V57.6562H377.258V44.4902H378.753L378.893 46.3184ZM385.3 49.166V49.3506C385.3 50.042 385.218 50.6836 385.054 51.2754C384.89 51.8613 384.65 52.3711 384.334 52.8047C384.023 53.2383 383.639 53.5752 383.182 53.8154C382.725 54.0557 382.201 54.1758 381.609 54.1758C381.006 54.1758 380.472 54.0762 380.009 53.877C379.547 53.6777 379.154 53.3877 378.832 53.0068C378.509 52.626 378.252 52.1689 378.058 51.6357C377.871 51.1025 377.742 50.502 377.672 49.834V48.8496C377.742 48.1465 377.874 47.5166 378.067 46.96C378.26 46.4033 378.515 45.9287 378.832 45.5361C379.154 45.1377 379.544 44.8359 380.001 44.6309C380.458 44.4199 380.985 44.3145 381.583 44.3145C382.18 44.3145 382.711 44.4316 383.173 44.666C383.636 44.8945 384.026 45.2227 384.342 45.6504C384.659 46.0781 384.896 46.5908 385.054 47.1885C385.218 47.7803 385.3 48.4395 385.3 49.166ZM383.666 49.3506V49.166C383.666 48.6914 383.616 48.2461 383.516 47.8301C383.417 47.4082 383.261 47.0391 383.05 46.7227C382.845 46.4004 382.582 46.1484 382.259 45.9668C381.937 45.7793 381.553 45.6855 381.108 45.6855C380.698 45.6855 380.34 45.7559 380.036 45.8965C379.737 46.0371 379.482 46.2275 379.271 46.4678C379.06 46.7021 378.887 46.9717 378.753 47.2764C378.624 47.5752 378.527 47.8857 378.463 48.208V50.4844C378.58 50.8945 378.744 51.2812 378.955 51.6445C379.166 52.002 379.447 52.292 379.798 52.5146C380.15 52.7314 380.592 52.8398 381.126 52.8398C381.565 52.8398 381.943 52.749 382.259 52.5674C382.582 52.3799 382.845 52.125 383.05 51.8027C383.261 51.4805 383.417 51.1113 383.516 50.6953C383.616 50.2734 383.666 49.8252 383.666 49.3506ZM389.501 53.0156L392.147 44.4902H393.887L390.072 55.4678C389.984 55.7021 389.867 55.9541 389.721 56.2236C389.58 56.499 389.399 56.7598 389.176 57.0059C388.953 57.252 388.684 57.4512 388.367 57.6035C388.057 57.7617 387.685 57.8408 387.251 57.8408C387.122 57.8408 386.958 57.8232 386.759 57.7881C386.56 57.7529 386.419 57.7236 386.337 57.7002L386.328 56.3818C386.375 56.3877 386.448 56.3936 386.548 56.3994C386.653 56.4111 386.727 56.417 386.768 56.417C387.137 56.417 387.45 56.3672 387.708 56.2676C387.966 56.1738 388.183 56.0127 388.358 55.7842C388.54 55.5615 388.695 55.2539 388.824 54.8613L389.501 53.0156ZM387.559 44.4902L390.028 51.873L390.45 53.5869L389.281 54.1846L385.783 44.4902H387.559ZM398.465 49.4561H396.716V48.4541H398.334C398.785 48.4541 399.142 48.3984 399.406 48.2871C399.669 48.1699 399.857 48.0088 399.968 47.8037C400.08 47.5986 400.135 47.3584 400.135 47.083C400.135 46.8369 400.071 46.6055 399.942 46.3887C399.819 46.166 399.62 45.9873 399.344 45.8525C399.069 45.7119 398.7 45.6416 398.237 45.6416C397.862 45.6416 397.522 45.709 397.217 45.8438C396.913 45.9727 396.669 46.1514 396.488 46.3799C396.312 46.6025 396.224 46.8545 396.224 47.1357H394.598C394.598 46.5557 394.762 46.0576 395.09 45.6416C395.424 45.2197 395.867 44.8945 396.417 44.666C396.974 44.4375 397.581 44.3232 398.237 44.3232C398.788 44.3232 399.28 44.3848 399.713 44.5078C400.153 44.625 400.525 44.8008 400.83 45.0352C401.134 45.2637 401.366 45.5508 401.524 45.8965C401.688 46.2363 401.77 46.6318 401.77 47.083C401.77 47.4053 401.694 47.71 401.542 47.9971C401.389 48.2842 401.169 48.5391 400.882 48.7617C400.595 48.9785 400.247 49.1484 399.836 49.2715C399.432 49.3945 398.975 49.4561 398.465 49.4561ZM396.716 48.8408H398.465C399.034 48.8408 399.535 48.8965 399.968 49.0078C400.402 49.1133 400.765 49.2715 401.058 49.4824C401.351 49.6934 401.571 49.9541 401.717 50.2646C401.87 50.5693 401.946 50.9209 401.946 51.3193C401.946 51.7646 401.855 52.166 401.673 52.5234C401.498 52.875 401.246 53.1738 400.917 53.4199C400.589 53.666 400.197 53.8535 399.74 53.9824C399.289 54.1113 398.788 54.1758 398.237 54.1758C397.622 54.1758 397.024 54.0703 396.444 53.8594C395.864 53.6484 395.386 53.3232 395.011 52.8838C394.636 52.4385 394.449 51.873 394.449 51.1875H396.075C396.075 51.4746 396.166 51.7471 396.347 52.0049C396.529 52.2627 396.781 52.4707 397.103 52.6289C397.431 52.7871 397.809 52.8662 398.237 52.8662C398.694 52.8662 399.075 52.7959 399.379 52.6553C399.684 52.5146 399.913 52.3271 400.065 52.0928C400.223 51.8584 400.302 51.6035 400.302 51.3281C400.302 50.9707 400.232 50.6836 400.091 50.4668C399.951 50.25 399.734 50.0918 399.441 49.9922C399.154 49.8867 398.785 49.834 398.334 49.834H396.716V48.8408ZM405.382 44.4902V54H403.756V44.4902H405.382ZM411.622 44.4902L407.113 49.9395H404.837L404.591 48.5156H406.454L409.644 44.4902H411.622ZM409.873 54L406.375 49.6934L407.421 48.5156L411.938 54H409.873ZM418.521 52.374V47.4785C418.521 47.1035 418.445 46.7783 418.292 46.5029C418.146 46.2217 417.923 46.0049 417.624 45.8525C417.326 45.7002 416.956 45.624 416.517 45.624C416.107 45.624 415.746 45.6943 415.436 45.835C415.131 45.9756 414.891 46.1602 414.715 46.3887C414.545 46.6172 414.46 46.8633 414.46 47.127H412.834C412.834 46.7871 412.922 46.4502 413.098 46.1162C413.274 45.7822 413.526 45.4805 413.854 45.2109C414.188 44.9355 414.586 44.7188 415.049 44.5605C415.518 44.3965 416.039 44.3145 416.614 44.3145C417.305 44.3145 417.914 44.4316 418.442 44.666C418.975 44.9004 419.391 45.2549 419.69 45.7295C419.995 46.1982 420.147 46.7871 420.147 47.4961V51.9258C420.147 52.2422 420.173 52.5791 420.226 52.9365C420.285 53.2939 420.37 53.6016 420.481 53.8594V54H418.785C418.703 53.8125 418.638 53.5635 418.591 53.2529C418.544 52.9365 418.521 52.6436 418.521 52.374ZM418.802 48.2344L418.82 49.377H417.176C416.713 49.377 416.3 49.415 415.937 49.4912C415.574 49.5615 415.269 49.6699 415.023 49.8164C414.777 49.9629 414.589 50.1475 414.46 50.3701C414.331 50.5869 414.267 50.8418 414.267 51.1348C414.267 51.4336 414.334 51.7061 414.469 51.9521C414.604 52.1982 414.806 52.3945 415.076 52.541C415.351 52.6816 415.688 52.752 416.086 52.752C416.584 52.752 417.024 52.6465 417.405 52.4355C417.786 52.2246 418.087 51.9668 418.31 51.6621C418.538 51.3574 418.662 51.0615 418.679 50.7744L419.373 51.5566C419.332 51.8027 419.221 52.0752 419.039 52.374C418.858 52.6729 418.615 52.96 418.31 53.2354C418.011 53.5049 417.654 53.7305 417.238 53.9121C416.828 54.0879 416.365 54.1758 415.849 54.1758C415.204 54.1758 414.639 54.0498 414.153 53.7979C413.672 53.5459 413.297 53.209 413.028 52.7871C412.764 52.3594 412.632 51.8818 412.632 51.3545C412.632 50.8447 412.732 50.3965 412.931 50.0098C413.13 49.6172 413.417 49.292 413.792 49.0342C414.167 48.7705 414.619 48.5713 415.146 48.4365C415.673 48.3018 416.262 48.2344 416.912 48.2344H418.802ZM431.097 48.0146H427.854L427.836 46.6523H430.781C431.267 46.6523 431.692 46.5703 432.055 46.4062C432.418 46.2422 432.699 46.0078 432.899 45.7031C433.104 45.3926 433.206 45.0234 433.206 44.5957C433.206 44.127 433.116 43.7461 432.934 43.4531C432.758 43.1543 432.486 42.9375 432.116 42.8027C431.753 42.6621 431.29 42.5918 430.728 42.5918H428.232V54H426.535V41.2031H430.728C431.384 41.2031 431.97 41.2705 432.486 41.4053C433.001 41.5342 433.438 41.7393 433.795 42.0205C434.158 42.2959 434.434 42.6475 434.621 43.0752C434.809 43.5029 434.903 44.0156 434.903 44.6133C434.903 45.1406 434.768 45.6182 434.498 46.0459C434.229 46.4678 433.854 46.8135 433.373 47.083C432.899 47.3525 432.342 47.5254 431.703 47.6016L431.097 48.0146ZM431.018 54H427.186L428.144 52.6201H431.018C431.557 52.6201 432.014 52.5264 432.389 52.3389C432.77 52.1514 433.06 51.8877 433.259 51.5479C433.458 51.2021 433.558 50.7949 433.558 50.3262C433.558 49.8516 433.473 49.4414 433.303 49.0957C433.133 48.75 432.866 48.4834 432.503 48.2959C432.14 48.1084 431.671 48.0146 431.097 48.0146H428.68L428.698 46.6523H432.002L432.363 47.1445C432.978 47.1973 433.499 47.373 433.927 47.6719C434.355 47.9648 434.68 48.3398 434.903 48.7969C435.131 49.2539 435.245 49.7578 435.245 50.3086C435.245 51.1055 435.07 51.7793 434.718 52.3301C434.372 52.875 433.883 53.291 433.25 53.5781C432.617 53.8594 431.873 54 431.018 54ZM439.13 41.2031V54H437.433V41.2031H439.13ZM442.311 41.2031H443.954L448.147 51.6357L452.33 41.2031H453.983L448.779 54H447.496L442.311 41.2031ZM441.775 41.2031H443.225L443.462 49.0078V54H441.775V41.2031ZM453.06 41.2031H454.51V54H452.822V49.0078L453.06 41.2031ZM466.295 51.8379L469.529 44.4902H471.094L466.857 54H465.732L461.514 44.4902H463.078L466.295 51.8379ZM462.604 44.4902V54H460.978V44.4902H462.604ZM469.934 54V44.4902H471.568V54H469.934ZM473.317 49.3506V49.1484C473.317 48.4629 473.416 47.8271 473.616 47.2412C473.815 46.6494 474.102 46.1367 474.477 45.7031C474.852 45.2637 475.306 44.9238 475.839 44.6836C476.373 44.4375 476.97 44.3145 477.632 44.3145C478.3 44.3145 478.901 44.4375 479.434 44.6836C479.973 44.9238 480.43 45.2637 480.805 45.7031C481.186 46.1367 481.476 46.6494 481.675 47.2412C481.874 47.8271 481.974 48.4629 481.974 49.1484V49.3506C481.974 50.0361 481.874 50.6719 481.675 51.2578C481.476 51.8438 481.186 52.3564 480.805 52.7959C480.43 53.2295 479.976 53.5693 479.443 53.8154C478.915 54.0557 478.318 54.1758 477.65 54.1758C476.982 54.1758 476.381 54.0557 475.848 53.8154C475.315 53.5693 474.858 53.2295 474.477 52.7959C474.102 52.3564 473.815 51.8438 473.616 51.2578C473.416 50.6719 473.317 50.0361 473.317 49.3506ZM474.943 49.1484V49.3506C474.943 49.8252 474.999 50.2734 475.11 50.6953C475.221 51.1113 475.388 51.4805 475.611 51.8027C475.839 52.125 476.124 52.3799 476.463 52.5674C476.803 52.749 477.199 52.8398 477.65 52.8398C478.095 52.8398 478.485 52.749 478.819 52.5674C479.159 52.3799 479.44 52.125 479.663 51.8027C479.885 51.4805 480.052 51.1113 480.164 50.6953C480.281 50.2734 480.339 49.8252 480.339 49.3506V49.1484C480.339 48.6797 480.281 48.2373 480.164 47.8213C480.052 47.3994 479.882 47.0273 479.654 46.7051C479.431 46.377 479.15 46.1191 478.81 45.9316C478.476 45.7441 478.083 45.6504 477.632 45.6504C477.187 45.6504 476.794 45.7441 476.455 45.9316C476.121 46.1191 475.839 46.377 475.611 46.7051C475.388 47.0273 475.221 47.3994 475.11 47.8213C474.999 48.2373 474.943 48.6797 474.943 49.1484ZM484.654 44.4902H486.28L486.14 48.0498C486.104 48.9521 486.002 49.7314 485.832 50.3877C485.662 51.0439 485.445 51.6035 485.182 52.0664C484.918 52.5234 484.622 52.9072 484.294 53.2178C483.972 53.5283 483.638 53.7891 483.292 54H482.483L482.527 52.6729L482.861 52.6641C483.055 52.4355 483.242 52.2012 483.424 51.9609C483.605 51.7148 483.772 51.4248 483.925 51.0908C484.077 50.751 484.203 50.3379 484.303 49.8516C484.408 49.3594 484.475 48.7588 484.505 48.0498L484.654 44.4902ZM485.059 44.4902H490.78V54H489.154V45.9932H485.059V44.4902ZM482.114 52.6641H492.002V56.8037H490.376V54H483.74V56.8037H482.105L482.114 52.6641ZM497.31 54.1758C496.648 54.1758 496.047 54.0645 495.508 53.8418C494.975 53.6133 494.515 53.2939 494.128 52.8838C493.747 52.4736 493.454 51.9873 493.249 51.4248C493.044 50.8623 492.942 50.2471 492.942 49.5791V49.21C492.942 48.4365 493.056 47.748 493.285 47.1445C493.513 46.5352 493.824 46.0195 494.216 45.5977C494.609 45.1758 495.054 44.8564 495.552 44.6396C496.05 44.4229 496.566 44.3145 497.099 44.3145C497.779 44.3145 498.365 44.4316 498.857 44.666C499.355 44.9004 499.762 45.2285 500.078 45.6504C500.395 46.0664 500.629 46.5586 500.782 47.127C500.934 47.6895 501.01 48.3047 501.01 48.9727V49.7021H493.909V48.375H499.384V48.252C499.361 47.8301 499.273 47.4199 499.12 47.0215C498.974 46.623 498.74 46.2949 498.417 46.0371C498.095 45.7793 497.656 45.6504 497.099 45.6504C496.73 45.6504 496.39 45.7295 496.079 45.8877C495.769 46.04 495.502 46.2686 495.28 46.5732C495.057 46.8779 494.884 47.25 494.761 47.6895C494.638 48.1289 494.577 48.6357 494.577 49.21V49.5791C494.577 50.0303 494.638 50.4551 494.761 50.8535C494.89 51.2461 495.075 51.5918 495.315 51.8906C495.561 52.1895 495.857 52.4238 496.203 52.5938C496.554 52.7637 496.953 52.8486 497.398 52.8486C497.972 52.8486 498.458 52.7314 498.857 52.4971C499.255 52.2627 499.604 51.9492 499.903 51.5566L500.887 52.3389C500.682 52.6494 500.421 52.9453 500.105 53.2266C499.788 53.5078 499.399 53.7363 498.936 53.9121C498.479 54.0879 497.937 54.1758 497.31 54.1758ZM508.823 44.4902V45.835H504.226V44.4902H508.823ZM510.256 44.4902V54H508.63V44.4902H510.256ZM503.831 44.4902H505.466L505.22 49.0781C505.179 49.7871 505.111 50.4141 505.017 50.959C504.93 51.498 504.806 51.9609 504.648 52.3477C504.496 52.7344 504.303 53.0508 504.068 53.2969C503.84 53.5371 503.564 53.7158 503.242 53.833C502.92 53.9443 502.548 54 502.126 54H501.616V52.5674L501.968 52.541C502.22 52.5234 502.433 52.4648 502.609 52.3652C502.791 52.2656 502.943 52.1191 503.066 51.9258C503.189 51.7266 503.289 51.4717 503.365 51.1611C503.447 50.8506 503.509 50.4814 503.55 50.0537C503.596 49.626 503.632 49.1279 503.655 48.5596L503.831 44.4902ZM516.381 54.1758C515.719 54.1758 515.118 54.0645 514.579 53.8418C514.046 53.6133 513.586 53.2939 513.199 52.8838C512.819 52.4736 512.526 51.9873 512.321 51.4248C512.115 50.8623 512.013 50.2471 512.013 49.5791V49.21C512.013 48.4365 512.127 47.748 512.356 47.1445C512.584 46.5352 512.895 46.0195 513.287 45.5977C513.68 45.1758 514.125 44.8564 514.623 44.6396C515.121 44.4229 515.637 44.3145 516.17 44.3145C516.85 44.3145 517.436 44.4316 517.928 44.666C518.426 44.9004 518.833 45.2285 519.15 45.6504C519.466 46.0664 519.7 46.5586 519.853 47.127C520.005 47.6895 520.081 48.3047 520.081 48.9727V49.7021H512.98V48.375H518.455V48.252C518.432 47.8301 518.344 47.4199 518.192 47.0215C518.045 46.623 517.811 46.2949 517.489 46.0371C517.166 45.7793 516.727 45.6504 516.17 45.6504C515.801 45.6504 515.461 45.7295 515.151 45.8877C514.84 46.04 514.573 46.2686 514.351 46.5732C514.128 46.8779 513.955 47.25 513.832 47.6895C513.709 48.1289 513.648 48.6357 513.648 49.21V49.5791C513.648 50.0303 513.709 50.4551 513.832 50.8535C513.961 51.2461 514.146 51.5918 514.386 51.8906C514.632 52.1895 514.928 52.4238 515.274 52.5938C515.625 52.7637 516.024 52.8486 516.469 52.8486C517.043 52.8486 517.53 52.7314 517.928 52.4971C518.326 52.2627 518.675 51.9492 518.974 51.5566L519.958 52.3389C519.753 52.6494 519.492 52.9453 519.176 53.2266C518.86 53.5078 518.47 53.7363 518.007 53.9121C517.55 54.0879 517.008 54.1758 516.381 54.1758ZM523.298 51.4248L527.683 44.4902H529.318V54H527.683V47.0654L523.298 54H521.68V44.4902H523.298V51.4248ZM526.796 41.0449H528.114C528.114 41.502 528.008 41.9092 527.798 42.2666C527.587 42.6182 527.285 42.8936 526.892 43.0928C526.5 43.292 526.034 43.3916 525.495 43.3916C524.68 43.3916 524.036 43.1748 523.561 42.7412C523.092 42.3018 522.858 41.7363 522.858 41.0449H524.176C524.176 41.3906 524.276 41.6953 524.475 41.959C524.674 42.2227 525.014 42.3545 525.495 42.3545C525.964 42.3545 526.298 42.2227 526.497 41.959C526.696 41.6953 526.796 41.3906 526.796 41.0449Z" fill="#17120F"/>
<rect x="600.5" y="0.5" width="279" height="95" rx="15.5" stroke="#17120F"/>
<path d="M647.896 52.6201V54H638.211V52.6201H647.896ZM638.483 52.6201V57.1465H636.805L636.796 52.6201H638.483ZM649.373 52.6201L649.355 57.1377H647.677V52.6201H649.373ZM646.235 41.2031V42.5918H640.628V41.2031H646.235ZM647.694 41.2031V54H646.007V41.2031H647.694ZM640.048 41.2031H641.744L641.48 46.3535C641.445 47.127 641.372 47.8418 641.261 48.498C641.149 49.1484 641.012 49.7432 640.848 50.2822C640.683 50.8213 640.496 51.3047 640.285 51.7324C640.074 52.1543 639.849 52.5205 639.608 52.8311C639.368 53.1357 639.116 53.3877 638.852 53.5869C638.595 53.7803 638.334 53.918 638.07 54H637.297V52.6201H637.842C637.994 52.4561 638.167 52.2188 638.36 51.9082C638.559 51.5977 638.756 51.1963 638.949 50.7041C639.148 50.2061 639.321 49.5996 639.468 48.8848C639.62 48.1699 639.723 47.3262 639.775 46.3535L640.048 41.2031ZM650.251 49.3506V49.1484C650.251 48.4629 650.351 47.8271 650.55 47.2412C650.749 46.6494 651.036 46.1367 651.411 45.7031C651.786 45.2637 652.241 44.9238 652.774 44.6836C653.307 44.4375 653.905 44.3145 654.567 44.3145C655.235 44.3145 655.835 44.4375 656.368 44.6836C656.908 44.9238 657.365 45.2637 657.74 45.7031C658.12 46.1367 658.41 46.6494 658.61 47.2412C658.809 47.8271 658.909 48.4629 658.909 49.1484V49.3506C658.909 50.0361 658.809 50.6719 658.61 51.2578C658.41 51.8438 658.12 52.3564 657.74 52.7959C657.365 53.2295 656.91 53.5693 656.377 53.8154C655.85 54.0557 655.252 54.1758 654.584 54.1758C653.916 54.1758 653.316 54.0557 652.783 53.8154C652.249 53.5693 651.792 53.2295 651.411 52.7959C651.036 52.3564 650.749 51.8438 650.55 51.2578C650.351 50.6719 650.251 50.0361 650.251 49.3506ZM651.877 49.1484V49.3506C651.877 49.8252 651.933 50.2734 652.044 50.6953C652.156 51.1113 652.323 51.4805 652.545 51.8027C652.774 52.125 653.058 52.3799 653.398 52.5674C653.738 52.749 654.133 52.8398 654.584 52.8398C655.03 52.8398 655.419 52.749 655.753 52.5674C656.093 52.3799 656.374 52.125 656.597 51.8027C656.82 51.4805 656.987 51.1113 657.098 50.6953C657.215 50.2734 657.274 49.8252 657.274 49.3506V49.1484C657.274 48.6797 657.215 48.2373 657.098 47.8213C656.987 47.3994 656.817 47.0273 656.588 46.7051C656.366 46.377 656.084 46.1191 655.744 45.9316C655.41 45.7441 655.018 45.6504 654.567 45.6504C654.121 45.6504 653.729 45.7441 653.389 45.9316C653.055 46.1191 652.774 46.377 652.545 46.7051C652.323 47.0273 652.156 47.3994 652.044 47.8213C651.933 48.2373 651.877 48.6797 651.877 49.1484ZM666.607 40.3506H667.943C667.943 40.9248 667.855 41.3818 667.679 41.7217C667.504 42.0557 667.263 42.3135 666.959 42.4951C666.66 42.6768 666.32 42.8145 665.939 42.9082C665.564 43.002 665.175 43.0928 664.77 43.1807C664.266 43.2861 663.798 43.4531 663.364 43.6816C662.936 43.9043 662.567 44.2207 662.257 44.6309C661.952 45.041 661.726 45.5742 661.58 46.2305C661.439 46.8867 661.401 47.6982 661.466 48.665V49.4736H660.13V48.665C660.13 47.5811 660.232 46.6348 660.437 45.8262C660.648 45.0176 660.944 44.335 661.325 43.7783C661.706 43.2217 662.157 42.7793 662.678 42.4512C663.206 42.123 663.786 41.8975 664.419 41.7744C664.876 41.6865 665.268 41.5928 665.596 41.4932C665.925 41.3877 666.174 41.2471 666.344 41.0713C666.519 40.8955 666.607 40.6553 666.607 40.3506ZM664.682 45.0352C665.303 45.0352 665.857 45.1436 666.344 45.3604C666.83 45.5771 667.243 45.8789 667.583 46.2656C667.923 46.6523 668.18 47.1094 668.356 47.6367C668.538 48.1582 668.629 48.7266 668.629 49.3418V49.5352C668.629 50.1973 668.532 50.8125 668.339 51.3809C668.151 51.9434 667.873 52.4355 667.504 52.8574C667.14 53.2734 666.695 53.5986 666.168 53.833C665.646 54.0674 665.052 54.1846 664.384 54.1846C663.716 54.1846 663.118 54.0674 662.591 53.833C662.069 53.5986 661.624 53.2734 661.255 52.8574C660.886 52.4355 660.604 51.9434 660.411 51.3809C660.223 50.8125 660.13 50.1973 660.13 49.5352V49.3418C660.13 49.1953 660.156 49.0518 660.209 48.9111C660.261 48.7705 660.326 48.627 660.402 48.4805C660.484 48.334 660.557 48.1787 660.622 48.0146C660.839 47.4873 661.135 46.998 661.51 46.5469C661.89 46.0957 662.344 45.7324 662.872 45.457C663.405 45.1758 664.009 45.0352 664.682 45.0352ZM664.366 46.3623C663.768 46.3623 663.276 46.5 662.889 46.7754C662.509 47.0508 662.224 47.417 662.037 47.874C661.849 48.3252 661.756 48.8145 661.756 49.3418V49.5352C661.756 49.9805 661.808 50.4023 661.914 50.8008C662.019 51.1992 662.178 51.5537 662.388 51.8643C662.605 52.1689 662.878 52.4092 663.206 52.585C663.54 52.7607 663.932 52.8486 664.384 52.8486C664.835 52.8486 665.224 52.7607 665.553 52.585C665.881 52.4092 666.15 52.1689 666.361 51.8643C666.572 51.5537 666.73 51.1992 666.836 50.8008C666.941 50.4023 666.994 49.9805 666.994 49.5352V49.3418C666.994 48.9434 666.941 48.5654 666.836 48.208C666.73 47.8506 666.569 47.5342 666.352 47.2588C666.141 46.9834 665.869 46.7666 665.535 46.6084C665.207 46.4443 664.817 46.3623 664.366 46.3623ZM675.642 52.374V47.4785C675.642 47.1035 675.566 46.7783 675.413 46.5029C675.267 46.2217 675.044 46.0049 674.745 45.8525C674.446 45.7002 674.077 45.624 673.638 45.624C673.228 45.624 672.867 45.6943 672.557 45.835C672.252 45.9756 672.012 46.1602 671.836 46.3887C671.666 46.6172 671.581 46.8633 671.581 47.127H669.955C669.955 46.7871 670.043 46.4502 670.219 46.1162C670.395 45.7822 670.647 45.4805 670.975 45.2109C671.309 44.9355 671.707 44.7188 672.17 44.5605C672.639 44.3965 673.16 44.3145 673.735 44.3145C674.426 44.3145 675.035 44.4316 675.563 44.666C676.096 44.9004 676.512 45.2549 676.811 45.7295C677.115 46.1982 677.268 46.7871 677.268 47.4961V51.9258C677.268 52.2422 677.294 52.5791 677.347 52.9365C677.405 53.2939 677.49 53.6016 677.602 53.8594V54H675.905C675.823 53.8125 675.759 53.5635 675.712 53.2529C675.665 52.9365 675.642 52.6436 675.642 52.374ZM675.923 48.2344L675.941 49.377H674.297C673.834 49.377 673.421 49.415 673.058 49.4912C672.695 49.5615 672.39 49.6699 672.144 49.8164C671.898 49.9629 671.71 50.1475 671.581 50.3701C671.452 50.5869 671.388 50.8418 671.388 51.1348C671.388 51.4336 671.455 51.7061 671.59 51.9521C671.725 52.1982 671.927 52.3945 672.196 52.541C672.472 52.6816 672.809 52.752 673.207 52.752C673.705 52.752 674.145 52.6465 674.526 52.4355C674.906 52.2246 675.208 51.9668 675.431 51.6621C675.659 51.3574 675.782 51.0615 675.8 50.7744L676.494 51.5566C676.453 51.8027 676.342 52.0752 676.16 52.374C675.979 52.6729 675.736 52.96 675.431 53.2354C675.132 53.5049 674.775 53.7305 674.359 53.9121C673.948 54.0879 673.486 54.1758 672.97 54.1758C672.325 54.1758 671.76 54.0498 671.274 53.7979C670.793 53.5459 670.418 53.209 670.149 52.7871C669.885 52.3594 669.753 51.8818 669.753 51.3545C669.753 50.8447 669.853 50.3965 670.052 50.0098C670.251 49.6172 670.538 49.292 670.913 49.0342C671.288 48.7705 671.739 48.5713 672.267 48.4365C672.794 48.3018 673.383 48.2344 674.033 48.2344H675.923ZM683.85 49.8164H680.73L680.713 48.5156H683.261C683.765 48.5156 684.184 48.4658 684.518 48.3662C684.858 48.2666 685.113 48.1172 685.283 47.918C685.453 47.7188 685.538 47.4727 685.538 47.1797C685.538 46.9512 685.488 46.752 685.388 46.582C685.295 46.4062 685.151 46.2627 684.958 46.1514C684.764 46.0342 684.524 45.9492 684.237 45.8965C683.956 45.8379 683.625 45.8086 683.244 45.8086H681.161V54H679.535V44.4902H683.244C683.847 44.4902 684.389 44.543 684.87 44.6484C685.356 44.7539 685.769 44.915 686.109 45.1318C686.455 45.3428 686.718 45.6123 686.9 45.9404C687.082 46.2686 687.173 46.6553 687.173 47.1006C687.173 47.3877 687.114 47.6602 686.997 47.918C686.88 48.1758 686.707 48.4043 686.478 48.6035C686.25 48.8027 685.968 48.9668 685.634 49.0957C685.3 49.2188 684.917 49.2979 684.483 49.333L683.85 49.8164ZM683.85 54H680.141L680.95 52.6816H683.85C684.301 52.6816 684.676 52.626 684.975 52.5146C685.274 52.3975 685.497 52.2334 685.643 52.0225C685.796 51.8057 685.872 51.5479 685.872 51.249C685.872 50.9502 685.796 50.6953 685.643 50.4844C685.497 50.2676 685.274 50.1035 684.975 49.9922C684.676 49.875 684.301 49.8164 683.85 49.8164H681.381L681.398 48.5156H684.483L685.072 49.0078C685.593 49.0488 686.036 49.1777 686.399 49.3945C686.762 49.6113 687.038 49.8867 687.225 50.2207C687.413 50.5488 687.506 50.9062 687.506 51.293C687.506 51.7383 687.422 52.1309 687.252 52.4707C687.088 52.8105 686.847 53.0947 686.531 53.3232C686.214 53.5459 685.831 53.7158 685.38 53.833C684.928 53.9443 684.419 54 683.85 54ZM695.601 44.4902V45.835H691.004V44.4902H695.601ZM697.033 44.4902V54H695.407V44.4902H697.033ZM690.608 44.4902H692.243L691.997 49.0781C691.956 49.7871 691.889 50.4141 691.795 50.959C691.707 51.498 691.584 51.9609 691.426 52.3477C691.274 52.7344 691.08 53.0508 690.846 53.2969C690.617 53.5371 690.342 53.7158 690.02 53.833C689.697 53.9443 689.325 54 688.903 54H688.394V52.5674L688.745 52.541C688.997 52.5234 689.211 52.4648 689.387 52.3652C689.568 52.2656 689.721 52.1191 689.844 51.9258C689.967 51.7266 690.066 51.4717 690.143 51.1611C690.225 50.8506 690.286 50.4814 690.327 50.0537C690.374 49.626 690.409 49.1279 690.433 48.5596L690.608 44.4902ZM703.159 54.1758C702.497 54.1758 701.896 54.0645 701.357 53.8418C700.824 53.6133 700.364 53.2939 699.977 52.8838C699.596 52.4736 699.303 51.9873 699.098 51.4248C698.893 50.8623 698.791 50.2471 698.791 49.5791V49.21C698.791 48.4365 698.905 47.748 699.133 47.1445C699.362 46.5352 699.672 46.0195 700.065 45.5977C700.458 45.1758 700.903 44.8564 701.401 44.6396C701.899 44.4229 702.415 44.3145 702.948 44.3145C703.627 44.3145 704.213 44.4316 704.706 44.666C705.204 44.9004 705.611 45.2285 705.927 45.6504C706.244 46.0664 706.478 46.5586 706.63 47.127C706.783 47.6895 706.859 48.3047 706.859 48.9727V49.7021H699.757V48.375H705.233V48.252C705.209 47.8301 705.122 47.4199 704.969 47.0215C704.823 46.623 704.588 46.2949 704.266 46.0371C703.944 45.7793 703.504 45.6504 702.948 45.6504C702.579 45.6504 702.239 45.7295 701.928 45.8877C701.618 46.04 701.351 46.2686 701.128 46.5732C700.906 46.8779 700.733 47.25 700.61 47.6895C700.487 48.1289 700.425 48.6357 700.425 49.21V49.5791C700.425 50.0303 700.487 50.4551 700.61 50.8535C700.739 51.2461 700.923 51.5918 701.164 51.8906C701.41 52.1895 701.706 52.4238 702.051 52.5938C702.403 52.7637 702.801 52.8486 703.247 52.8486C703.821 52.8486 704.307 52.7314 704.706 52.4971C705.104 52.2627 705.453 51.9492 705.751 51.5566L706.736 52.3389C706.531 52.6494 706.27 52.9453 705.954 53.2266C705.637 53.5078 705.248 53.7363 704.785 53.9121C704.328 54.0879 703.786 54.1758 703.159 54.1758ZM714.769 48.6123V49.9307H709.741V48.6123H714.769ZM710.084 44.4902V54H708.458V44.4902H710.084ZM716.087 44.4902V54H714.452V44.4902H716.087ZM720.024 51.4248L724.41 44.4902H726.044V54H724.41V47.0654L720.024 54H718.407V44.4902H720.024V51.4248ZM732.161 54.1758C731.499 54.1758 730.898 54.0645 730.359 53.8418C729.826 53.6133 729.366 53.2939 728.979 52.8838C728.598 52.4736 728.306 51.9873 728.1 51.4248C727.895 50.8623 727.793 50.2471 727.793 49.5791V49.21C727.793 48.4365 727.907 47.748 728.136 47.1445C728.364 46.5352 728.675 46.0195 729.067 45.5977C729.46 45.1758 729.905 44.8564 730.403 44.6396C730.901 44.4229 731.417 44.3145 731.95 44.3145C732.63 44.3145 733.216 44.4316 733.708 44.666C734.206 44.9004 734.613 45.2285 734.93 45.6504C735.246 46.0664 735.48 46.5586 735.633 47.127C735.785 47.6895 735.861 48.3047 735.861 48.9727V49.7021H728.76V48.375H734.235V48.252C734.212 47.8301 734.124 47.4199 733.972 47.0215C733.825 46.623 733.591 46.2949 733.268 46.0371C732.946 45.7793 732.507 45.6504 731.95 45.6504C731.581 45.6504 731.241 45.7295 730.931 45.8877C730.62 46.04 730.353 46.2686 730.131 46.5732C729.908 46.8779 729.735 47.25 729.612 47.6895C729.489 48.1289 729.428 48.6357 729.428 49.21V49.5791C729.428 50.0303 729.489 50.4551 729.612 50.8535C729.741 51.2461 729.926 51.5918 730.166 51.8906C730.412 52.1895 730.708 52.4238 731.054 52.5938C731.405 52.7637 731.804 52.8486 732.249 52.8486C732.823 52.8486 733.309 52.7314 733.708 52.4971C734.106 52.2627 734.455 51.9492 734.754 51.5566L735.738 52.3389C735.533 52.6494 735.272 52.9453 734.956 53.2266C734.639 53.5078 734.25 53.7363 733.787 53.9121C733.33 54.0879 732.788 54.1758 732.161 54.1758ZM745.15 52.8398C745.537 52.8398 745.894 52.7607 746.222 52.6025C746.551 52.4443 746.82 52.2275 747.031 51.9521C747.242 51.6709 747.362 51.3516 747.391 50.9941H748.938C748.909 51.5566 748.718 52.0811 748.367 52.5674C748.021 53.0479 747.567 53.4375 747.005 53.7363C746.442 54.0293 745.824 54.1758 745.15 54.1758C744.435 54.1758 743.811 54.0498 743.278 53.7979C742.751 53.5459 742.311 53.2002 741.96 52.7607C741.614 52.3213 741.353 51.8174 741.177 51.249C741.008 50.6748 740.923 50.0684 740.923 49.4297V49.0605C740.923 48.4219 741.008 47.8184 741.177 47.25C741.353 46.6758 741.614 46.1689 741.96 45.7295C742.311 45.29 742.751 44.9443 743.278 44.6924C743.811 44.4404 744.435 44.3145 745.15 44.3145C745.894 44.3145 746.545 44.4668 747.101 44.7715C747.658 45.0703 748.094 45.4805 748.411 46.002C748.733 46.5176 748.909 47.1035 748.938 47.7598H747.391C747.362 47.3672 747.251 47.0127 747.057 46.6963C746.87 46.3799 746.612 46.1279 746.284 45.9404C745.962 45.7471 745.584 45.6504 745.15 45.6504C744.652 45.6504 744.233 45.75 743.893 45.9492C743.559 46.1426 743.293 46.4062 743.093 46.7402C742.9 47.0684 742.759 47.4346 742.672 47.8389C742.59 48.2373 742.549 48.6445 742.549 49.0605V49.4297C742.549 49.8457 742.59 50.2559 742.672 50.6602C742.754 51.0645 742.891 51.4307 743.085 51.7588C743.284 52.0869 743.551 52.3506 743.884 52.5498C744.224 52.7432 744.646 52.8398 745.15 52.8398ZM749.896 49.3506V49.1484C749.896 48.4629 749.995 47.8271 750.194 47.2412C750.394 46.6494 750.681 46.1367 751.056 45.7031C751.431 45.2637 751.885 44.9238 752.418 44.6836C752.951 44.4375 753.549 44.3145 754.211 44.3145C754.879 44.3145 755.48 44.4375 756.013 44.6836C756.552 44.9238 757.009 45.2637 757.384 45.7031C757.765 46.1367 758.055 46.6494 758.254 47.2412C758.453 47.8271 758.553 48.4629 758.553 49.1484V49.3506C758.553 50.0361 758.453 50.6719 758.254 51.2578C758.055 51.8438 757.765 52.3564 757.384 52.7959C757.009 53.2295 756.555 53.5693 756.022 53.8154C755.494 54.0557 754.897 54.1758 754.229 54.1758C753.561 54.1758 752.96 54.0557 752.427 53.8154C751.894 53.5693 751.437 53.2295 751.056 52.7959C750.681 52.3564 750.394 51.8438 750.194 51.2578C749.995 50.6719 749.896 50.0361 749.896 49.3506ZM751.522 49.1484V49.3506C751.522 49.8252 751.577 50.2734 751.689 50.6953C751.8 51.1113 751.967 51.4805 752.19 51.8027C752.418 52.125 752.702 52.3799 753.042 52.5674C753.382 52.749 753.777 52.8398 754.229 52.8398C754.674 52.8398 755.064 52.749 755.398 52.5674C755.737 52.3799 756.019 52.125 756.241 51.8027C756.464 51.4805 756.631 51.1113 756.742 50.6953C756.86 50.2734 756.918 49.8252 756.918 49.3506V49.1484C756.918 48.6797 756.86 48.2373 756.742 47.8213C756.631 47.3994 756.461 47.0273 756.233 46.7051C756.01 46.377 755.729 46.1191 755.389 45.9316C755.055 45.7441 754.662 45.6504 754.211 45.6504C753.766 45.6504 753.373 45.7441 753.033 45.9316C752.699 46.1191 752.418 46.377 752.19 46.7051C751.967 47.0273 751.8 47.3994 751.689 47.8213C751.577 48.2373 751.522 48.6797 751.522 49.1484ZM763.835 44.4902V54H762.2V44.4902H763.835ZM767.025 44.4902V45.8086H759.071V44.4902H767.025ZM769.811 46.3184V57.6562H768.176V44.4902H769.67L769.811 46.3184ZM776.218 49.166V49.3506C776.218 50.042 776.136 50.6836 775.972 51.2754C775.808 51.8613 775.567 52.3711 775.251 52.8047C774.94 53.2383 774.557 53.5752 774.1 53.8154C773.643 54.0557 773.118 54.1758 772.526 54.1758C771.923 54.1758 771.39 54.0762 770.927 53.877C770.464 53.6777 770.071 53.3877 769.749 53.0068C769.427 52.626 769.169 52.1689 768.976 51.6357C768.788 51.1025 768.659 50.502 768.589 49.834V48.8496C768.659 48.1465 768.791 47.5166 768.984 46.96C769.178 46.4033 769.433 45.9287 769.749 45.5361C770.071 45.1377 770.461 44.8359 770.918 44.6309C771.375 44.4199 771.902 44.3145 772.5 44.3145C773.098 44.3145 773.628 44.4316 774.091 44.666C774.554 44.8945 774.943 45.2227 775.26 45.6504C775.576 46.0781 775.814 46.5908 775.972 47.1885C776.136 47.7803 776.218 48.4395 776.218 49.166ZM774.583 49.3506V49.166C774.583 48.6914 774.533 48.2461 774.434 47.8301C774.334 47.4082 774.179 47.0391 773.968 46.7227C773.763 46.4004 773.499 46.1484 773.177 45.9668C772.855 45.7793 772.471 45.6855 772.025 45.6855C771.615 45.6855 771.258 45.7559 770.953 45.8965C770.654 46.0371 770.399 46.2275 770.189 46.4678C769.978 46.7021 769.805 46.9717 769.67 47.2764C769.541 47.5752 769.444 47.8857 769.38 48.208V50.4844C769.497 50.8945 769.661 51.2812 769.872 51.6445C770.083 52.002 770.364 52.292 770.716 52.5146C771.067 52.7314 771.51 52.8398 772.043 52.8398C772.482 52.8398 772.86 52.749 773.177 52.5674C773.499 52.3799 773.763 52.125 773.968 51.8027C774.179 51.4805 774.334 51.1113 774.434 50.6953C774.533 50.2734 774.583 49.8252 774.583 49.3506ZM780.418 53.0156L783.064 44.4902H784.804L780.99 55.4678C780.902 55.7021 780.785 55.9541 780.638 56.2236C780.498 56.499 780.316 56.7598 780.093 57.0059C779.871 57.252 779.601 57.4512 779.285 57.6035C778.974 57.7617 778.602 57.8408 778.168 57.8408C778.04 57.8408 777.875 57.8232 777.676 57.7881C777.477 57.7529 777.336 57.7236 777.254 57.7002L777.246 56.3818C777.292 56.3877 777.366 56.3936 777.465 56.3994C777.571 56.4111 777.644 56.417 777.685 56.417C778.054 56.417 778.368 56.3672 778.625 56.2676C778.883 56.1738 779.1 56.0127 779.276 55.7842C779.457 55.5615 779.613 55.2539 779.742 54.8613L780.418 53.0156ZM778.476 44.4902L780.946 51.873L781.368 53.5869L780.199 54.1846L776.701 44.4902H778.476ZM787.054 44.4902H788.68L788.539 48.0498C788.504 48.9521 788.401 49.7314 788.231 50.3877C788.061 51.0439 787.845 51.6035 787.581 52.0664C787.317 52.5234 787.021 52.9072 786.693 53.2178C786.371 53.5283 786.037 53.7891 785.691 54H784.883L784.927 52.6729L785.261 52.6641C785.454 52.4355 785.642 52.2012 785.823 51.9609C786.005 51.7148 786.172 51.4248 786.324 51.0908C786.477 50.751 786.602 50.3379 786.702 49.8516C786.808 49.3594 786.875 48.7588 786.904 48.0498L787.054 44.4902ZM787.458 44.4902H793.18V54H791.554V45.9932H787.458V44.4902ZM784.514 52.6641H794.401V56.8037H792.775V54H786.14V56.8037H784.505L784.514 52.6641ZM802.214 48.6123V49.9307H797.187V48.6123H802.214ZM797.53 44.4902V54H795.904V44.4902H797.53ZM803.533 44.4902V54H801.898V44.4902H803.533ZM807.47 51.4248L811.855 44.4902H813.49V54H811.855V47.0654L807.47 54H805.852V44.4902H807.47V51.4248ZM817.427 44.4902V54H815.801V44.4902H817.427ZM823.667 44.4902L819.158 49.9395H816.882L816.636 48.5156H818.499L821.69 44.4902H823.667ZM821.918 54L818.42 49.6934L819.466 48.5156L823.984 54H821.918ZM824.335 49.3506V49.1484C824.335 48.4629 824.434 47.8271 824.633 47.2412C824.833 46.6494 825.12 46.1367 825.495 45.7031C825.87 45.2637 826.324 44.9238 826.857 44.6836C827.39 44.4375 827.988 44.3145 828.65 44.3145C829.318 44.3145 829.919 44.4375 830.452 44.6836C830.991 44.9238 831.448 45.2637 831.823 45.7031C832.204 46.1367 832.494 46.6494 832.693 47.2412C832.892 47.8271 832.992 48.4629 832.992 49.1484V49.3506C832.992 50.0361 832.892 50.6719 832.693 51.2578C832.494 51.8438 832.204 52.3564 831.823 52.7959C831.448 53.2295 830.994 53.5693 830.461 53.8154C829.933 54.0557 829.336 54.1758 828.668 54.1758C828 54.1758 827.399 54.0557 826.866 53.8154C826.333 53.5693 825.876 53.2295 825.495 52.7959C825.12 52.3564 824.833 51.8438 824.633 51.2578C824.434 50.6719 824.335 50.0361 824.335 49.3506ZM825.961 49.1484V49.3506C825.961 49.8252 826.016 50.2734 826.128 50.6953C826.239 51.1113 826.406 51.4805 826.629 51.8027C826.857 52.125 827.141 52.3799 827.481 52.5674C827.821 52.749 828.216 52.8398 828.668 52.8398C829.113 52.8398 829.503 52.749 829.837 52.5674C830.176 52.3799 830.458 52.125 830.68 51.8027C830.903 51.4805 831.07 51.1113 831.181 50.6953C831.299 50.2734 831.357 49.8252 831.357 49.3506V49.1484C831.357 48.6797 831.299 48.2373 831.181 47.8213C831.07 47.3994 830.9 47.0273 830.672 46.7051C830.449 46.377 830.168 46.1191 829.828 45.9316C829.494 45.7441 829.101 45.6504 828.65 45.6504C828.205 45.6504 827.812 45.7441 827.472 45.9316C827.138 46.1191 826.857 46.377 826.629 46.7051C826.406 47.0273 826.239 47.3994 826.128 47.8213C826.016 48.2373 825.961 48.6797 825.961 49.1484ZM839.056 49.8164H835.936L835.918 48.5156H838.467C838.971 48.5156 839.39 48.4658 839.724 48.3662C840.064 48.2666 840.318 48.1172 840.488 47.918C840.658 47.7188 840.743 47.4727 840.743 47.1797C840.743 46.9512 840.693 46.752 840.594 46.582C840.5 46.4062 840.357 46.2627 840.163 46.1514C839.97 46.0342 839.73 45.9492 839.443 45.8965C839.161 45.8379 838.83 45.8086 838.449 45.8086H836.366V54H834.74V44.4902H838.449C839.053 44.4902 839.595 44.543 840.075 44.6484C840.562 44.7539 840.975 44.915 841.315 45.1318C841.66 45.3428 841.924 45.6123 842.106 45.9404C842.287 46.2686 842.378 46.6553 842.378 47.1006C842.378 47.3877 842.319 47.6602 842.202 47.918C842.085 48.1758 841.912 48.4043 841.684 48.6035C841.455 48.8027 841.174 48.9668 840.84 49.0957C840.506 49.2188 840.122 49.2979 839.689 49.333L839.056 49.8164ZM839.056 54H835.347L836.155 52.6816H839.056C839.507 52.6816 839.882 52.626 840.181 52.5146C840.48 52.3975 840.702 52.2334 840.849 52.0225C841.001 51.8057 841.077 51.5479 841.077 51.249C841.077 50.9502 841.001 50.6953 840.849 50.4844C840.702 50.2676 840.48 50.1035 840.181 49.9922C839.882 49.875 839.507 49.8164 839.056 49.8164H836.586L836.604 48.5156H839.689L840.277 49.0078C840.799 49.0488 841.241 49.1777 841.605 49.3945C841.968 49.6113 842.243 49.8867 842.431 50.2207C842.618 50.5488 842.712 50.9062 842.712 51.293C842.712 51.7383 842.627 52.1309 842.457 52.4707C842.293 52.8105 842.053 53.0947 841.736 53.3232C841.42 53.5459 841.036 53.7158 840.585 53.833C840.134 53.9443 839.624 54 839.056 54Z" fill="#17120F"/>
<rect x="900.5" y="0.5" width="279" height="95" rx="15.5" stroke="#17120F"/>
<path d="M1026.04 49.9307H1027.72C1027.63 50.7393 1027.4 51.4629 1027.03 52.1016C1026.65 52.7402 1026.12 53.2471 1025.44 53.6221C1024.75 53.9912 1023.9 54.1758 1022.87 54.1758C1022.12 54.1758 1021.44 54.0352 1020.82 53.7539C1020.21 53.4727 1019.69 53.0742 1019.25 52.5586C1018.81 52.0371 1018.47 51.4131 1018.23 50.6865C1018 49.9541 1017.88 49.1396 1017.88 48.2432V46.9687C1017.88 46.0723 1018 45.2607 1018.23 44.5342C1018.47 43.8018 1018.81 43.1748 1019.26 42.6533C1019.71 42.1318 1020.25 41.7305 1020.88 41.4492C1021.52 41.168 1022.23 41.0273 1023.02 41.0273C1023.99 41.0273 1024.8 41.209 1025.47 41.5723C1026.14 41.9355 1026.66 42.4395 1027.03 43.084C1027.4 43.7227 1027.63 44.4639 1027.72 45.3076H1026.04C1025.95 44.71 1025.8 44.1973 1025.58 43.7695C1025.36 43.3359 1025.04 43.002 1024.63 42.7676C1024.22 42.5332 1023.68 42.416 1023.02 42.416C1022.45 42.416 1021.95 42.5244 1021.52 42.7412C1021.09 42.958 1020.73 43.2656 1020.44 43.6641C1020.15 44.0625 1019.93 44.54 1019.79 45.0967C1019.64 45.6533 1019.57 46.2715 1019.57 46.9512V48.2432C1019.57 48.8701 1019.63 49.459 1019.76 50.0098C1019.89 50.5605 1020.1 51.0439 1020.37 51.46C1020.64 51.876 1020.98 52.2041 1021.39 52.4443C1021.81 52.6787 1022.3 52.7959 1022.87 52.7959C1023.59 52.7959 1024.17 52.6816 1024.59 52.4531C1025.02 52.2246 1025.34 51.8965 1025.56 51.4687C1025.78 51.041 1025.94 50.5283 1026.04 49.9307ZM1033.22 44.4902V54H1031.59V44.4902H1033.22ZM1036.41 44.4902V45.8086H1028.46V44.4902H1036.41ZM1043.04 52.374V47.4785C1043.04 47.1035 1042.96 46.7783 1042.81 46.5029C1042.67 46.2217 1042.44 46.0049 1042.14 45.8525C1041.85 45.7002 1041.48 45.624 1041.04 45.624C1040.63 45.624 1040.27 45.6943 1039.96 45.835C1039.65 45.9756 1039.41 46.1602 1039.24 46.3887C1039.07 46.6172 1038.98 46.8633 1038.98 47.127H1037.35C1037.35 46.7871 1037.44 46.4502 1037.62 46.1162C1037.79 45.7822 1038.05 45.4805 1038.37 45.2109C1038.71 44.9355 1039.11 44.7187 1039.57 44.5605C1040.04 44.3965 1040.56 44.3145 1041.13 44.3145C1041.83 44.3145 1042.43 44.4316 1042.96 44.666C1043.5 44.9004 1043.91 45.2549 1044.21 45.7295C1044.51 46.1982 1044.67 46.7871 1044.67 47.4961V51.9258C1044.67 52.2422 1044.69 52.5791 1044.75 52.9365C1044.8 53.2939 1044.89 53.6016 1045 53.8594V54H1043.3C1043.22 53.8125 1043.16 53.5635 1043.11 53.2529C1043.06 52.9365 1043.04 52.6436 1043.04 52.374ZM1043.32 48.2344L1043.34 49.377H1041.7C1041.23 49.377 1040.82 49.415 1040.46 49.4912C1040.09 49.5615 1039.79 49.6699 1039.54 49.8164C1039.3 49.9629 1039.11 50.1475 1038.98 50.3701C1038.85 50.5869 1038.79 50.8418 1038.79 51.1348C1038.79 51.4336 1038.85 51.7061 1038.99 51.9521C1039.12 52.1982 1039.33 52.3945 1039.6 52.541C1039.87 52.6816 1040.21 52.752 1040.61 52.752C1041.1 52.752 1041.54 52.6465 1041.92 52.4355C1042.31 52.2246 1042.61 51.9668 1042.83 51.6621C1043.06 51.3574 1043.18 51.0615 1043.2 50.7744L1043.89 51.5566C1043.85 51.8027 1043.74 52.0752 1043.56 52.374C1043.38 52.6729 1043.13 52.96 1042.83 53.2354C1042.53 53.5049 1042.17 53.7305 1041.76 53.9121C1041.35 54.0879 1040.88 54.1758 1040.37 54.1758C1039.72 54.1758 1039.16 54.0498 1038.67 53.7979C1038.19 53.5459 1037.82 53.209 1037.55 52.7871C1037.28 52.3594 1037.15 51.8818 1037.15 51.3545C1037.15 50.8447 1037.25 50.3965 1037.45 50.0098C1037.65 49.6172 1037.94 49.292 1038.31 49.0342C1038.69 48.7705 1039.14 48.5713 1039.67 48.4365C1040.19 48.3018 1040.78 48.2344 1041.43 48.2344H1043.32ZM1048.41 46.3184V57.6562H1046.78V44.4902H1048.27L1048.41 46.3184ZM1054.82 49.166V49.3506C1054.82 50.042 1054.74 50.6836 1054.57 51.2754C1054.41 51.8613 1054.17 52.3711 1053.85 52.8047C1053.54 53.2383 1053.16 53.5752 1052.7 53.8154C1052.24 54.0557 1051.72 54.1758 1051.13 54.1758C1050.52 54.1758 1049.99 54.0762 1049.53 53.877C1049.06 53.6777 1048.67 53.3877 1048.35 53.0068C1048.03 52.626 1047.77 52.1689 1047.58 51.6357C1047.39 51.1025 1047.26 50.502 1047.19 49.834V48.8496C1047.26 48.1465 1047.39 47.5166 1047.58 46.96C1047.78 46.4033 1048.03 45.9287 1048.35 45.5361C1048.67 45.1377 1049.06 44.8359 1049.52 44.6309C1049.98 44.4199 1050.5 44.3145 1051.1 44.3145C1051.7 44.3145 1052.23 44.4316 1052.69 44.666C1053.15 44.8945 1053.54 45.2227 1053.86 45.6504C1054.18 46.0781 1054.41 46.5908 1054.57 47.1885C1054.74 47.7803 1054.82 48.4395 1054.82 49.166ZM1053.18 49.3506V49.166C1053.18 48.6914 1053.13 48.2461 1053.03 47.8301C1052.93 47.4082 1052.78 47.0391 1052.57 46.7227C1052.36 46.4004 1052.1 46.1484 1051.78 45.9668C1051.45 45.7793 1051.07 45.6855 1050.63 45.6855C1050.22 45.6855 1049.86 45.7559 1049.55 45.8965C1049.25 46.0371 1049 46.2275 1048.79 46.4678C1048.58 46.7021 1048.4 46.9717 1048.27 47.2764C1048.14 47.5752 1048.04 47.8857 1047.98 48.208V50.4844C1048.1 50.8945 1048.26 51.2812 1048.47 51.6445C1048.68 52.002 1048.96 52.292 1049.32 52.5146C1049.67 52.7314 1050.11 52.8398 1050.64 52.8398C1051.08 52.8398 1051.46 52.749 1051.78 52.5674C1052.1 52.3799 1052.36 52.125 1052.57 51.8027C1052.78 51.4805 1052.93 51.1113 1053.03 50.6953C1053.13 50.2734 1053.18 49.8252 1053.18 49.3506ZM1059.62 44.4902V54H1057.99V44.4902H1059.62ZM1062.82 44.4902V45.8086H1054.86V44.4902H1062.82Z" fill="#17120F"/>
<mask id="path-9-inside-1_1611_3255" fill="white">
<path fill-rule="evenodd" clip-rule="evenodd" d="M438.499 96.3559C438.465 96.2375 438.385 96.1319 438.268 96.0661C438.2 96.0284 438.128 96.0077 438.055 96.0026C437.968 95.9937 437.878 96.0067 437.794 96.0447C437.672 96.0993 437.585 96.1955 437.54 96.3084L433.566 102.947C433.424 103.184 433.504 103.485 433.745 103.62C433.986 103.755 434.296 103.672 434.438 103.435L437.511 98.3032V111.499C437.511 120.06 430.571 126.999 422.011 126.999H153.249C144.689 126.999 137.749 120.06 137.749 111.499V96.989C137.749 96.7128 137.525 96.489 137.249 96.489C136.973 96.489 136.749 96.7128 136.749 96.989V111.499C136.749 120.612 144.136 127.999 153.249 127.999H422.011C429.743 127.999 436.234 122.68 438.022 115.501C439.435 123.178 446.163 128.995 454.249 128.995H723.011C730.906 128.995 737.506 123.45 739.128 116.042C740.747 123.456 747.35 129.007 755.249 129.007H1023.52C1032.63 129.007 1040.02 121.62 1040.02 112.507V99.6785L1042.29 104.399C1042.41 104.648 1042.71 104.758 1042.96 104.644C1043.22 104.53 1043.32 104.237 1043.2 103.988L1040.01 97.3491C1039.97 97.2313 1039.89 97.1264 1039.78 97.0607C1039.71 97.0231 1039.64 97.0023 1039.56 96.9972C1039.48 96.9884 1039.39 97.0014 1039.3 97.0394C1039.18 97.0938 1039.09 97.1896 1039.05 97.3018L1035.08 103.943C1034.94 104.18 1035.02 104.482 1035.26 104.617C1035.5 104.752 1035.81 104.669 1035.95 104.432L1039.02 99.3021V112.507C1039.02 121.068 1032.08 128.007 1023.52 128.007H755.249C746.689 128.007 739.749 121.068 739.749 112.507V100.171L741.787 104.397C741.907 104.646 742.208 104.755 742.46 104.642C742.712 104.528 742.819 104.235 742.699 103.986L739.706 97.7813C739.702 97.7719 739.697 97.7627 739.693 97.7537L739.499 97.351C739.465 97.2326 739.385 97.127 739.268 97.0612C739.2 97.0235 739.128 97.0028 739.055 96.9977C738.968 96.9888 738.878 97.0018 738.794 97.0398C738.672 97.0944 738.585 97.1906 738.54 97.3035L734.566 103.942C734.424 104.179 734.504 104.48 734.745 104.615C734.986 104.75 735.297 104.667 735.438 104.43L738.511 99.2984V112.495C738.511 121.055 731.571 127.995 723.011 127.995H454.249C445.689 127.995 438.749 121.055 438.749 112.495V99.1762L440.787 103.402C440.907 103.651 441.208 103.76 441.46 103.647C441.712 103.533 441.819 103.24 441.699 102.991L438.499 96.3559Z"/>
</mask>
<path fill-rule="evenodd" clip-rule="evenodd" d="M438.499 96.3559C438.465 96.2375 438.385 96.1319 438.268 96.0661C438.2 96.0284 438.128 96.0077 438.055 96.0026C437.968 95.9937 437.878 96.0067 437.794 96.0447C437.672 96.0993 437.585 96.1955 437.54 96.3084L433.566 102.947C433.424 103.184 433.504 103.485 433.745 103.62C433.986 103.755 434.296 103.672 434.438 103.435L437.511 98.3032V111.499C437.511 120.06 430.571 126.999 422.011 126.999H153.249C144.689 126.999 137.749 120.06 137.749 111.499V96.989C137.749 96.7128 137.525 96.489 137.249 96.489C136.973 96.489 136.749 96.7128 136.749 96.989V111.499C136.749 120.612 144.136 127.999 153.249 127.999H422.011C429.743 127.999 436.234 122.68 438.022 115.501C439.435 123.178 446.163 128.995 454.249 128.995H723.011C730.906 128.995 737.506 123.45 739.128 116.042C740.747 123.456 747.35 129.007 755.249 129.007H1023.52C1032.63 129.007 1040.02 121.62 1040.02 112.507V99.6785L1042.29 104.399C1042.41 104.648 1042.71 104.758 1042.96 104.644C1043.22 104.53 1043.32 104.237 1043.2 103.988L1040.01 97.3491C1039.97 97.2313 1039.89 97.1264 1039.78 97.0607C1039.71 97.0231 1039.64 97.0023 1039.56 96.9972C1039.48 96.9884 1039.39 97.0014 1039.3 97.0394C1039.18 97.0938 1039.09 97.1896 1039.05 97.3018L1035.08 103.943C1034.94 104.18 1035.02 104.482 1035.26 104.617C1035.5 104.752 1035.81 104.669 1035.95 104.432L1039.02 99.3021V112.507C1039.02 121.068 1032.08 128.007 1023.52 128.007H755.249C746.689 128.007 739.749 121.068 739.749 112.507V100.171L741.787 104.397C741.907 104.646 742.208 104.755 742.46 104.642C742.712 104.528 742.819 104.235 742.699 103.986L739.706 97.7813C739.702 97.7719 739.697 97.7627 739.693 97.7537L739.499 97.351C739.465 97.2326 739.385 97.127 739.268 97.0612C739.2 97.0235 739.128 97.0028 739.055 96.9977C738.968 96.9888 738.878 97.0018 738.794 97.0398C738.672 97.0944 738.585 97.1906 738.54 97.3035L734.566 103.942C734.424 104.179 734.504 104.48 734.745 104.615C734.986 104.75 735.297 104.667 735.438 104.43L738.511 99.2984V112.495C738.511 121.055 731.571 127.995 723.011 127.995H454.249C445.689 127.995 438.749 121.055 438.749 112.495V99.1762L440.787 103.402C440.907 103.651 441.208 103.76 441.46 103.647C441.712 103.533 441.819 103.24 441.699 102.991L438.499 96.3559Z" fill="#17120F"/>
<path d="M438.268 96.0661L438.756 95.1934L438.756 95.1934L438.268 96.0661ZM438.499 96.3559L437.537 96.6312L437.561 96.7134L437.598 96.7903L438.499 96.3559ZM438.055 96.0026L437.952 96.9974L437.969 96.999L437.985 97.0002L438.055 96.0026ZM437.794 96.0447L438.204 96.9564V96.9563L437.794 96.0447ZM437.54 96.3084L438.398 96.822L438.439 96.753L438.469 96.6782L437.54 96.3084ZM433.566 102.947L434.424 103.46V103.46L433.566 102.947ZM433.745 103.62L434.234 102.747L434.233 102.747L433.745 103.62ZM434.438 103.435L433.58 102.921L434.438 103.435ZM437.511 98.3032H438.511V94.6861L436.653 97.7896L437.511 98.3032ZM438.022 115.501L439.006 115.32L437.052 115.259L438.022 115.501ZM739.128 116.042L740.105 115.829L738.152 115.828L739.128 116.042ZM1040.02 99.6785L1040.92 99.2446L1039.02 99.6785H1040.02ZM1042.29 104.399L1041.39 104.833V104.833L1042.29 104.399ZM1042.96 104.644L1042.55 103.733L1042.55 103.733L1042.96 104.644ZM1043.2 103.988L1042.3 104.422L1042.3 104.422L1043.2 103.988ZM1040.01 97.3491L1039.05 97.6278L1039.07 97.7079L1039.1 97.783L1040.01 97.3491ZM1039.78 97.0607L1039.29 97.933L1039.29 97.9331L1039.78 97.0607ZM1039.56 96.9972L1039.46 97.992L1039.48 97.9936L1039.49 97.9947L1039.56 96.9972ZM1039.3 97.0394L1039.71 97.9508L1039.71 97.9508L1039.3 97.0394ZM1039.05 97.3018L1039.91 97.8149L1039.95 97.7477L1039.98 97.675L1039.05 97.3018ZM1035.08 103.943L1034.22 103.43L1034.22 103.431L1035.08 103.943ZM1035.26 104.617L1035.75 103.745L1035.75 103.745L1035.26 104.617ZM1035.95 104.432L1035.09 103.919L1035.09 103.919L1035.95 104.432ZM1039.02 99.3021H1040.02V95.68L1038.16 98.7891L1039.02 99.3021ZM739.749 100.171L740.65 99.7368L738.749 100.171H739.749ZM741.787 104.397L742.688 103.963L742.688 103.963L741.787 104.397ZM742.46 104.642L742.049 103.73L742.049 103.73L742.46 104.642ZM742.699 103.986L741.798 104.42L741.798 104.421L742.699 103.986ZM739.706 97.7813L738.792 98.187L738.798 98.2015L738.805 98.2157L739.706 97.7813ZM739.693 97.7537L738.792 98.1881L738.799 98.2017L738.806 98.2151L739.693 97.7537ZM739.499 97.351L738.537 97.6265L738.561 97.7086L738.598 97.7854L739.499 97.351ZM739.268 97.0612L738.779 97.9338L738.779 97.9338L739.268 97.0612ZM739.055 96.9977L738.952 97.9925L738.969 97.9942L738.985 97.9953L739.055 96.9977ZM738.794 97.0398L738.383 96.1281L738.382 96.1282L738.794 97.0398ZM738.54 97.3035L739.398 97.8172L739.439 97.7481L739.469 97.6733L738.54 97.3035ZM734.566 103.942L735.424 104.456V104.456L734.566 103.942ZM734.745 104.615L735.234 103.742L735.233 103.742L734.745 104.615ZM735.438 104.43L736.296 104.944V104.944L735.438 104.43ZM738.511 99.2984H739.511V95.6813L737.653 98.7847L738.511 99.2984ZM438.749 99.1762L439.65 98.7418L437.749 99.1762H438.749ZM440.787 103.402L441.688 102.967V102.967L440.787 103.402ZM441.46 103.647L441.049 102.735V102.735L441.46 103.647ZM441.699 102.991L442.6 102.556V102.556L441.699 102.991ZM437.779 96.9387C437.661 96.8726 437.574 96.7605 437.537 96.6312L439.46 96.0806C439.355 95.7145 439.109 95.3912 438.756 95.1934L437.779 96.9387ZM437.985 97.0002C437.916 96.9953 437.845 96.9754 437.779 96.9387L438.756 95.1934C438.556 95.0814 438.34 95.0201 438.124 95.0051L437.985 97.0002ZM438.204 96.9563C438.122 96.9936 438.034 97.0058 437.952 96.9974L438.157 95.0079C437.902 94.9816 437.634 95.0197 437.383 95.1331L438.204 96.9563ZM438.469 96.6782C438.421 96.8003 438.326 96.9017 438.204 96.9564L437.383 95.1331C437.019 95.2968 436.749 95.5907 436.611 95.9386L438.469 96.6782ZM434.424 103.46L438.398 96.822L436.682 95.7947L432.708 102.433L434.424 103.46ZM434.233 102.747C434.484 102.888 434.571 103.214 434.424 103.46L432.708 102.433C432.276 103.154 432.524 104.082 433.257 104.493L434.233 102.747ZM433.58 102.921C433.716 102.694 434.002 102.618 434.234 102.747L433.257 104.493C433.97 104.892 434.877 104.65 435.296 103.949L433.58 102.921ZM436.653 97.7896L433.58 102.921L435.296 103.949L438.369 98.8169L436.653 97.7896ZM438.511 111.499V98.3032H436.511V111.499H438.511ZM422.011 127.999C431.123 127.999 438.511 120.612 438.511 111.499H436.511C436.511 119.508 430.019 125.999 422.011 125.999V127.999ZM153.249 127.999H422.011V125.999H153.249V127.999ZM136.749 111.499C136.749 120.612 144.136 127.999 153.249 127.999V125.999C145.241 125.999 138.749 119.508 138.749 111.499H136.749ZM136.749 96.989V111.499H138.749V96.989H136.749ZM137.249 97.489C136.973 97.489 136.749 97.2651 136.749 96.989H138.749C138.749 96.1605 138.077 95.489 137.249 95.489V97.489ZM137.749 96.989C137.749 97.2651 137.525 97.489 137.249 97.489V95.489C136.421 95.489 135.749 96.1605 135.749 96.989H137.749ZM137.749 111.499V96.989H135.749V111.499H137.749ZM153.249 126.999C144.689 126.999 137.749 120.06 137.749 111.499H135.749C135.749 121.164 143.584 128.999 153.249 128.999V126.999ZM422.011 126.999H153.249V128.999H422.011V126.999ZM437.052 115.259C435.372 122.003 429.273 126.999 422.011 126.999V128.999C430.214 128.999 437.096 123.357 438.993 115.742L437.052 115.259ZM454.249 127.995C446.654 127.995 440.333 122.531 439.006 115.32L437.039 115.682C438.538 123.825 445.672 129.995 454.249 129.995V127.995ZM723.011 127.995H454.249V129.995H723.011V127.995ZM738.152 115.828C736.627 122.787 730.426 127.995 723.011 127.995V129.995C731.385 129.995 738.384 124.113 740.105 116.256L738.152 115.828ZM738.151 116.255C739.868 124.119 746.87 130.007 755.249 130.007V128.007C747.83 128.007 741.625 122.793 740.105 115.829L738.151 116.255ZM755.249 130.007H1023.52V128.007H755.249V130.007ZM1023.52 130.007C1033.18 130.007 1041.02 122.172 1041.02 112.507H1039.02C1039.02 121.068 1032.08 128.007 1023.52 128.007V130.007ZM1041.02 112.507V99.6785H1039.02V112.507H1041.02ZM1039.12 100.112L1041.39 104.833L1043.19 103.965L1040.92 99.2446L1039.12 100.112ZM1041.39 104.833C1041.75 105.571 1042.63 105.892 1043.38 105.555L1042.55 103.733C1042.79 103.623 1043.08 103.725 1043.19 103.965L1041.39 104.833ZM1043.38 105.555C1044.14 105.211 1044.47 104.309 1044.1 103.554L1042.3 104.422C1042.18 104.164 1042.29 103.85 1042.55 103.733L1043.38 105.555ZM1044.1 103.554L1040.91 96.9152L1039.1 97.783L1042.3 104.422L1044.1 103.554ZM1040.97 97.0704C1040.86 96.7067 1040.62 96.3855 1040.26 96.1884L1039.29 97.9331C1039.17 97.8673 1039.08 97.756 1039.05 97.6278L1040.97 97.0704ZM1040.26 96.1885C1040.06 96.0763 1039.85 96.0149 1039.63 95.9997L1039.49 97.9947C1039.42 97.9898 1039.35 97.9698 1039.29 97.933L1040.26 96.1885ZM1039.66 96.0024C1039.41 95.9763 1039.14 96.0147 1038.89 96.1281L1039.71 97.9508C1039.63 97.9881 1039.54 98.0004 1039.46 97.992L1039.66 96.0024ZM1038.89 96.1281C1038.53 96.2914 1038.26 96.5835 1038.12 96.9287L1039.98 97.675C1039.93 97.7956 1039.83 97.8963 1039.71 97.9508L1038.89 96.1281ZM1038.19 96.7888L1034.22 103.43L1035.94 104.456L1039.91 97.8149L1038.19 96.7888ZM1034.22 103.431C1033.79 104.151 1034.04 105.079 1034.77 105.489L1035.75 103.745C1036 103.885 1036.08 104.21 1035.94 104.456L1034.22 103.431ZM1034.77 105.489C1035.48 105.889 1036.39 105.647 1036.81 104.945L1035.09 103.919C1035.23 103.691 1035.52 103.615 1035.75 103.745L1034.77 105.489ZM1036.81 104.945L1039.88 99.8152L1038.16 98.7891L1035.09 103.919L1036.81 104.945ZM1038.02 99.3021V112.507H1040.02V99.3021H1038.02ZM1038.02 112.507C1038.02 120.515 1031.53 127.007 1023.52 127.007V129.007C1032.63 129.007 1040.02 121.62 1040.02 112.507H1038.02ZM1023.52 127.007H755.249V129.007H1023.52V127.007ZM755.249 127.007C747.241 127.007 740.749 120.515 740.749 112.507H738.749C738.749 121.62 746.136 129.007 755.249 129.007V127.007ZM740.749 112.507V100.171H738.749V112.507H740.749ZM742.688 103.963L740.65 99.7368L738.848 100.606L740.887 104.831L742.688 103.963ZM742.049 103.73C742.292 103.621 742.572 103.723 742.688 103.963L740.886 104.831C741.242 105.569 742.125 105.89 742.871 105.553L742.049 103.73ZM741.798 104.421C741.674 104.162 741.788 103.848 742.049 103.73L742.871 105.554C743.635 105.209 743.964 104.307 743.599 103.551L741.798 104.421ZM738.805 98.2157L741.798 104.42L743.6 103.552L740.607 97.3468L738.805 98.2157ZM740.62 97.3756C740.607 97.346 740.593 97.3182 740.58 97.2923L738.806 98.2151C738.801 98.2072 738.797 98.1978 738.792 98.187L740.62 97.3756ZM738.598 97.7854L738.792 98.1881L740.593 97.3193L740.399 96.9166L738.598 97.7854ZM738.779 97.9338C738.661 97.8677 738.574 97.7555 738.537 97.6265L740.46 97.0755C740.355 96.7097 740.109 96.3864 739.756 96.1885L738.779 97.9338ZM738.985 97.9953C738.916 97.9905 738.845 97.9706 738.779 97.9338L739.756 96.1886C739.556 96.0765 739.339 96.0152 739.125 96.0002L738.985 97.9953ZM739.204 97.9515C739.122 97.9887 739.034 98.0009 738.952 97.9925L739.157 96.003C738.902 95.9767 738.634 96.0149 738.383 96.1281L739.204 97.9515ZM739.469 97.6733C739.42 97.7955 739.326 97.8968 739.205 97.9514L738.382 96.1282C738.019 96.292 737.749 96.5858 737.611 96.9337L739.469 97.6733ZM735.424 104.456L739.398 97.8172L737.682 96.7898L733.708 103.428L735.424 104.456ZM735.233 103.742C735.485 103.883 735.571 104.209 735.424 104.456L733.708 103.428C733.276 104.149 733.524 105.078 734.257 105.488L735.233 103.742ZM734.58 103.917C734.716 103.689 735.002 103.613 735.234 103.742L734.257 105.488C734.97 105.887 735.877 105.645 736.296 104.944L734.58 103.917ZM737.653 98.7847L734.58 103.917L736.296 104.944L739.369 99.812L737.653 98.7847ZM739.511 112.495V99.2984H737.511V112.495H739.511ZM723.011 128.995C732.123 128.995 739.511 121.607 739.511 112.495H737.511C737.511 120.503 731.019 126.995 723.011 126.995V128.995ZM454.249 128.995H723.011V126.995H454.249V128.995ZM437.749 112.495C437.749 121.607 445.136 128.995 454.249 128.995V126.995C446.241 126.995 439.749 120.503 439.749 112.495H437.749ZM437.749 99.1762V112.495H439.749V99.1762H437.749ZM441.688 102.967L439.65 98.7418L437.848 99.6106L439.887 103.836L441.688 102.967ZM441.049 102.735C441.292 102.626 441.572 102.728 441.688 102.967L439.887 103.836C440.242 104.573 441.125 104.895 441.871 104.558L441.049 102.735ZM440.798 103.425C440.674 103.167 440.788 102.853 441.049 102.735L441.871 104.558C442.636 104.214 442.964 103.312 442.6 102.556L440.798 103.425ZM437.598 96.7903L440.798 103.425L442.6 102.556L439.399 95.9215L437.598 96.7903Z" fill="#17120F" mask="url(#path-9-inside-1_1611_3255)"/>
</svg>
