<svg width="688" height="504" viewBox="0 0 688 504" fill="none" xmlns="http://www.w3.org/2000/svg">
<rect x="0.5" y="0.5" width="279" height="95" rx="15.5" stroke="#17120F"/>
<path d="M10.5629 35.8564H9.04239V34.7754H10.5014C11.1459 34.7754 11.6674 34.6846 12.0658 34.5029C12.4643 34.3213 12.7543 34.0693 12.9359 33.7471C13.1176 33.4248 13.2084 33.0527 13.2084 32.6309C13.2084 32.2266 13.1088 31.8574 12.9096 31.5234C12.7104 31.1836 12.4027 30.9141 11.9867 30.7148C11.5707 30.5098 11.0346 30.4072 10.3783 30.4072C9.88614 30.4072 9.44083 30.501 9.04239 30.6885C8.64395 30.8701 8.32755 31.125 8.09317 31.4531C7.8588 31.7754 7.74161 32.1475 7.74161 32.5693H6.04532C6.04532 32.0244 6.15958 31.5352 6.38809 31.1016C6.61661 30.6621 6.93008 30.29 7.32852 29.9854C7.72696 29.6748 8.18692 29.4375 8.7084 29.2734C9.23575 29.1094 9.79239 29.0273 10.3783 29.0273C11.0639 29.0273 11.685 29.1064 12.2416 29.2646C12.7982 29.417 13.2758 29.6455 13.6742 29.9502C14.0727 30.2549 14.3773 30.6328 14.5883 31.084C14.7992 31.5352 14.9047 32.0596 14.9047 32.6572C14.9047 33.0967 14.8022 33.5098 14.5971 33.8965C14.392 34.2832 14.099 34.623 13.7182 34.916C13.3373 35.209 12.8803 35.4404 12.3471 35.6104C11.8139 35.7744 11.2191 35.8564 10.5629 35.8564ZM9.04239 35.1094H10.5629C11.2836 35.1094 11.9252 35.1826 12.4877 35.3291C13.0502 35.4756 13.5248 35.6895 13.9115 35.9707C14.2982 36.252 14.5912 36.6006 14.7904 37.0166C14.9955 37.4268 15.0981 37.8984 15.0981 38.4316C15.0981 39.0293 14.9809 39.5596 14.7465 40.0225C14.518 40.4854 14.1928 40.8779 13.7709 41.2002C13.349 41.5225 12.8481 41.7656 12.268 41.9297C11.6938 42.0938 11.0639 42.1758 10.3783 42.1758C9.82755 42.1758 9.28262 42.1055 8.74356 41.9648C8.21036 41.8184 7.72696 41.5957 7.29337 41.2969C6.85977 40.9922 6.51114 40.6055 6.24747 40.1367C5.98965 39.668 5.86075 39.1055 5.86075 38.4492H7.55704C7.55704 38.877 7.67422 39.2695 7.9086 39.627C8.14883 39.9844 8.47989 40.2715 8.90176 40.4883C9.32364 40.6992 9.81583 40.8047 10.3783 40.8047C11.0229 40.8047 11.5678 40.7051 12.0131 40.5059C12.4643 40.3008 12.807 40.0225 13.0414 39.6709C13.2816 39.3135 13.4018 38.9121 13.4018 38.4668C13.4018 38.0742 13.3373 37.7344 13.2084 37.4473C13.0854 37.1543 12.9008 36.9141 12.6547 36.7266C12.4145 36.5391 12.1127 36.4014 11.7494 36.3135C11.392 36.2197 10.976 36.1729 10.5014 36.1729H9.04239V35.1094ZM22.2518 40.374V35.4785C22.2518 35.1035 22.1756 34.7783 22.0233 34.5029C21.8768 34.2217 21.6541 34.0049 21.3553 33.8525C21.0565 33.7002 20.6874 33.624 20.2479 33.624C19.8377 33.624 19.4774 33.6943 19.1668 33.835C18.8622 33.9756 18.6219 34.1602 18.4461 34.3887C18.2762 34.6172 18.1913 34.8633 18.1913 35.127H16.5653C16.5653 34.7871 16.6532 34.4502 16.829 34.1162C17.0047 33.7822 17.2567 33.4805 17.5848 33.2109C17.9188 32.9355 18.3172 32.7188 18.7801 32.5605C19.2489 32.3965 19.7704 32.3145 20.3446 32.3145C21.036 32.3145 21.6454 32.4316 22.1727 32.666C22.7059 32.9004 23.1219 33.2549 23.4207 33.7295C23.7254 34.1982 23.8778 34.7871 23.8778 35.4961V39.9258C23.8778 40.2422 23.9041 40.5791 23.9569 40.9365C24.0155 41.2939 24.1004 41.6016 24.2118 41.8594V42H22.5155C22.4334 41.8125 22.369 41.5635 22.3221 41.2529C22.2752 40.9365 22.2518 40.6436 22.2518 40.374ZM22.5331 36.2344L22.5506 37.377H20.9071C20.4442 37.377 20.0311 37.415 19.6678 37.4912C19.3045 37.5615 18.9999 37.6699 18.7538 37.8164C18.5077 37.9629 18.3202 38.1475 18.1913 38.3701C18.0624 38.5869 17.9979 38.8418 17.9979 39.1348C17.9979 39.4336 18.0653 39.7061 18.2 39.9521C18.3348 40.1982 18.537 40.3945 18.8065 40.541C19.0819 40.6816 19.4188 40.752 19.8172 40.752C20.3153 40.752 20.7547 40.6465 21.1356 40.4355C21.5165 40.2246 21.8182 39.9668 22.0409 39.6621C22.2694 39.3574 22.3924 39.0615 22.41 38.7744L23.1043 39.5566C23.0633 39.8027 22.952 40.0752 22.7704 40.374C22.5887 40.6729 22.3456 40.96 22.0409 41.2354C21.742 41.5049 21.3846 41.7305 20.9686 41.9121C20.5584 42.0879 20.0956 42.1758 19.5799 42.1758C18.9354 42.1758 18.37 42.0498 17.8836 41.7979C17.4032 41.5459 17.0282 41.209 16.7586 40.7871C16.495 40.3594 16.3631 39.8818 16.3631 39.3545C16.3631 38.8447 16.4627 38.3965 16.662 38.0098C16.8612 37.6172 17.1483 37.292 17.5233 37.0342C17.8983 36.7705 18.3495 36.5713 18.8768 36.4365C19.4041 36.3018 19.993 36.2344 20.6434 36.2344H22.5331ZM32.139 32.4902V33.835H27.7444V42H26.1184V32.4902H32.139ZM34.74 34.3184V45.6562H33.1052V32.4902H34.5993L34.74 34.3184ZM41.1472 37.166V37.3506C41.1472 38.042 41.0652 38.6836 40.9011 39.2754C40.737 39.8613 40.4968 40.3711 40.1804 40.8047C39.8699 41.2383 39.4861 41.5752 39.029 41.8154C38.572 42.0557 38.0476 42.1758 37.4558 42.1758C36.8523 42.1758 36.3191 42.0762 35.8562 41.877C35.3933 41.6777 35.0007 41.3877 34.6784 41.0068C34.3562 40.626 34.0984 40.1689 33.905 39.6357C33.7175 39.1025 33.5886 38.502 33.5183 37.834V36.8496C33.5886 36.1465 33.7204 35.5166 33.9138 34.96C34.1072 34.4033 34.362 33.9287 34.6784 33.5361C35.0007 33.1377 35.3904 32.8359 35.8474 32.6309C36.3044 32.4199 36.8318 32.3145 37.4294 32.3145C38.0271 32.3145 38.5574 32.4316 39.0202 32.666C39.4831 32.8945 39.8728 33.2227 40.1892 33.6504C40.5056 34.0781 40.7429 34.5908 40.9011 35.1885C41.0652 35.7803 41.1472 36.4395 41.1472 37.166ZM39.5124 37.3506V37.166C39.5124 36.6914 39.4626 36.2461 39.363 35.8301C39.2634 35.4082 39.1081 35.0391 38.8972 34.7227C38.6921 34.4004 38.4284 34.1484 38.1062 33.9668C37.7839 33.7793 37.4001 33.6855 36.9548 33.6855C36.5447 33.6855 36.1872 33.7559 35.8825 33.8965C35.5837 34.0371 35.3288 34.2275 35.1179 34.4678C34.907 34.7021 34.7341 34.9717 34.5993 35.2764C34.4704 35.5752 34.3738 35.8857 34.3093 36.208V38.4844C34.4265 38.8945 34.5906 39.2812 34.8015 39.6445C35.0124 40.002 35.2937 40.292 35.6452 40.5146C35.9968 40.7314 36.4392 40.8398 36.9724 40.8398C37.4118 40.8398 37.7898 40.749 38.1062 40.5674C38.4284 40.3799 38.6921 40.125 38.8972 39.8027C39.1081 39.4805 39.2634 39.1113 39.363 38.6953C39.4626 38.2734 39.5124 37.8252 39.5124 37.3506ZM45.3478 41.0156L47.9933 32.4902H49.7336L45.9191 43.4678C45.8312 43.7021 45.714 43.9541 45.5675 44.2236C45.4269 44.499 45.2453 44.7598 45.0226 45.0059C44.8 45.252 44.5304 45.4512 44.214 45.6035C43.9035 45.7617 43.5314 45.8408 43.0978 45.8408C42.9689 45.8408 42.8049 45.8232 42.6056 45.7881C42.4064 45.7529 42.2658 45.7236 42.1838 45.7002L42.175 44.3818C42.2218 44.3877 42.2951 44.3936 42.3947 44.3994C42.5002 44.4111 42.5734 44.417 42.6144 44.417C42.9836 44.417 43.297 44.3672 43.5549 44.2676C43.8127 44.1738 44.0295 44.0127 44.2052 43.7842C44.3869 43.5615 44.5422 43.2539 44.6711 42.8613L45.3478 41.0156ZM43.4054 32.4902L45.8752 39.873L46.297 41.5869L45.1281 42.1846L41.63 32.4902H43.4054ZM54.3121 37.4561H52.5631V36.4541H54.1803C54.6315 36.4541 54.9889 36.3984 55.2525 36.2871C55.5162 36.1699 55.7037 36.0088 55.815 35.8037C55.9264 35.5986 55.982 35.3584 55.982 35.083C55.982 34.8369 55.9176 34.6055 55.7887 34.3887C55.6656 34.166 55.4664 33.9873 55.191 33.8525C54.9156 33.7119 54.5465 33.6416 54.0836 33.6416C53.7086 33.6416 53.3688 33.709 53.0641 33.8438C52.7594 33.9727 52.5162 34.1514 52.3346 34.3799C52.1588 34.6025 52.0709 34.8545 52.0709 35.1357H50.4449C50.4449 34.5557 50.609 34.0576 50.9371 33.6416C51.2711 33.2197 51.7135 32.8945 52.2643 32.666C52.8209 32.4375 53.4273 32.3232 54.0836 32.3232C54.6344 32.3232 55.1266 32.3848 55.5602 32.5078C55.9996 32.625 56.3717 32.8008 56.6764 33.0352C56.9811 33.2637 57.2125 33.5508 57.3707 33.8965C57.5348 34.2363 57.6168 34.6318 57.6168 35.083C57.6168 35.4053 57.5406 35.71 57.3883 35.9971C57.2359 36.2842 57.0162 36.5391 56.7291 36.7617C56.442 36.9785 56.0934 37.1484 55.6832 37.2715C55.2789 37.3945 54.8219 37.4561 54.3121 37.4561ZM52.5631 36.8408H54.3121C54.8805 36.8408 55.3815 36.8965 55.815 37.0078C56.2486 37.1133 56.6119 37.2715 56.9049 37.4824C57.1979 37.6934 57.4176 37.9541 57.5641 38.2646C57.7164 38.5693 57.7926 38.9209 57.7926 39.3193C57.7926 39.7646 57.7018 40.166 57.5201 40.5234C57.3443 40.875 57.0924 41.1738 56.7643 41.4199C56.4361 41.666 56.0436 41.8535 55.5865 41.9824C55.1354 42.1113 54.6344 42.1758 54.0836 42.1758C53.4684 42.1758 52.8707 42.0703 52.2906 41.8594C51.7106 41.6484 51.233 41.3232 50.858 40.8838C50.483 40.4385 50.2955 39.873 50.2955 39.1875H51.9215C51.9215 39.4746 52.0123 39.7471 52.194 40.0049C52.3756 40.2627 52.6275 40.4707 52.9498 40.6289C53.2779 40.7871 53.6559 40.8662 54.0836 40.8662C54.5406 40.8662 54.9215 40.7959 55.2262 40.6553C55.5309 40.5146 55.7594 40.3271 55.9117 40.0928C56.0699 39.8584 56.149 39.6035 56.149 39.3281C56.149 38.9707 56.0787 38.6836 55.9381 38.4668C55.7975 38.25 55.5807 38.0918 55.2877 37.9922C55.0006 37.8867 54.6315 37.834 54.1803 37.834H52.5631V36.8408ZM61.2286 32.4902V42H59.6026V32.4902H61.2286ZM67.4688 32.4902L62.96 37.9395H60.6836L60.4375 36.5156H62.3008L65.4913 32.4902H67.4688ZM65.7198 42L62.2217 37.6934L63.2676 36.5156L67.7852 42H65.7198ZM74.3677 40.374V35.4785C74.3677 35.1035 74.2915 34.7783 74.1391 34.5029C73.9927 34.2217 73.77 34.0049 73.4712 33.8525C73.1723 33.7002 72.8032 33.624 72.3638 33.624C71.9536 33.624 71.5932 33.6943 71.2827 33.835C70.978 33.9756 70.7378 34.1602 70.562 34.3887C70.3921 34.6172 70.3071 34.8633 70.3071 35.127H68.6811C68.6811 34.7871 68.769 34.4502 68.9448 34.1162C69.1206 33.7822 69.3725 33.4805 69.7007 33.2109C70.0347 32.9355 70.4331 32.7188 70.896 32.5605C71.3647 32.3965 71.8862 32.3145 72.4604 32.3145C73.1518 32.3145 73.7612 32.4316 74.2886 32.666C74.8218 32.9004 75.2378 33.2549 75.5366 33.7295C75.8413 34.1982 75.9936 34.7871 75.9936 35.4961V39.9258C75.9936 40.2422 76.02 40.5791 76.0727 40.9365C76.1313 41.2939 76.2163 41.6016 76.3276 41.8594V42H74.6313C74.5493 41.8125 74.4848 41.5635 74.438 41.2529C74.3911 40.9365 74.3677 40.6436 74.3677 40.374ZM74.6489 36.2344L74.6665 37.377H73.0229C72.56 37.377 72.147 37.415 71.7837 37.4912C71.4204 37.5615 71.1157 37.6699 70.8696 37.8164C70.6235 37.9629 70.436 38.1475 70.3071 38.3701C70.1782 38.5869 70.1138 38.8418 70.1138 39.1348C70.1138 39.4336 70.1811 39.7061 70.3159 39.9521C70.4507 40.1982 70.6528 40.3945 70.9223 40.541C71.1977 40.6816 71.5347 40.752 71.9331 40.752C72.4311 40.752 72.8706 40.6465 73.2514 40.4355C73.6323 40.2246 73.9341 39.9668 74.1567 39.6621C74.3852 39.3574 74.5083 39.0615 74.5259 38.7744L75.2202 39.5566C75.1792 39.8027 75.0679 40.0752 74.8862 40.374C74.7046 40.6729 74.4614 40.96 74.1567 41.2354C73.8579 41.5049 73.5005 41.7305 73.0845 41.9121C72.6743 42.0879 72.2114 42.1758 71.6958 42.1758C71.0513 42.1758 70.4858 42.0498 69.9995 41.7979C69.519 41.5459 69.144 41.209 68.8745 40.7871C68.6108 40.3594 68.479 39.8818 68.479 39.3545C68.479 38.8447 68.5786 38.3965 68.7778 38.0098C68.977 37.6172 69.2641 37.292 69.6391 37.0342C70.0141 36.7705 70.4653 36.5713 70.9927 36.4365C71.52 36.3018 72.1089 36.2344 72.7593 36.2344H74.6489ZM88.473 32.4902V33.835H83.6654V32.4902H88.473ZM83.9027 32.4902V42H82.2767V32.4902H83.9027ZM89.9144 32.4902V42H88.2797V32.4902H89.9144ZM91.6541 37.3506V37.1484C91.6541 36.4629 91.7537 35.8271 91.9529 35.2412C92.1522 34.6494 92.4393 34.1367 92.8143 33.7031C93.1893 33.2637 93.6434 32.9238 94.1766 32.6836C94.7098 32.4375 95.3074 32.3145 95.9695 32.3145C96.6375 32.3145 97.2381 32.4375 97.7713 32.6836C98.3104 32.9238 98.7674 33.2637 99.1424 33.7031C99.5232 34.1367 99.8133 34.6494 100.013 35.2412C100.212 35.8271 100.311 36.4629 100.311 37.1484V37.3506C100.311 38.0361 100.212 38.6719 100.013 39.2578C99.8133 39.8438 99.5232 40.3564 99.1424 40.7959C98.7674 41.2295 98.3133 41.5693 97.7801 41.8154C97.2527 42.0557 96.6551 42.1758 95.9871 42.1758C95.3191 42.1758 94.7186 42.0557 94.1854 41.8154C93.6522 41.5693 93.1951 41.2295 92.8143 40.7959C92.4393 40.3564 92.1522 39.8438 91.9529 39.2578C91.7537 38.6719 91.6541 38.0361 91.6541 37.3506ZM93.2801 37.1484V37.3506C93.2801 37.8252 93.3357 38.2734 93.4471 38.6953C93.5584 39.1113 93.7254 39.4805 93.9481 39.8027C94.1766 40.125 94.4607 40.3799 94.8006 40.5674C95.1404 40.749 95.5359 40.8398 95.9871 40.8398C96.4324 40.8398 96.8221 40.749 97.1561 40.5674C97.4959 40.3799 97.7772 40.125 97.9998 39.8027C98.2225 39.4805 98.3895 39.1113 98.5008 38.6953C98.618 38.2734 98.6766 37.8252 98.6766 37.3506V37.1484C98.6766 36.6797 98.618 36.2373 98.5008 35.8213C98.3895 35.3994 98.2195 35.0273 97.991 34.7051C97.7684 34.377 97.4871 34.1191 97.1473 33.9316C96.8133 33.7441 96.4207 33.6504 95.9695 33.6504C95.5242 33.6504 95.1316 33.7441 94.7918 33.9316C94.4578 34.1191 94.1766 34.377 93.9481 34.7051C93.7254 35.0273 93.5584 35.3994 93.4471 35.8213C93.3357 36.2373 93.2801 36.6797 93.2801 37.1484ZM103.835 37.4648H105.593L102.842 42H101.084L103.835 37.4648ZM105.198 32.4902H109.17V42H107.544V33.8086H105.198C104.735 33.8086 104.357 33.8877 104.064 34.0459C103.771 34.1982 103.557 34.3975 103.422 34.6436C103.287 34.8896 103.22 35.1445 103.22 35.4082C103.22 35.666 103.281 35.915 103.405 36.1553C103.528 36.3896 103.721 36.583 103.985 36.7354C104.248 36.8877 104.588 36.9639 105.004 36.9639H107.984V38.2998H105.004C104.459 38.2998 103.976 38.2266 103.554 38.0801C103.132 37.9336 102.775 37.7314 102.482 37.4736C102.189 37.21 101.966 36.9023 101.814 36.5508C101.661 36.1934 101.585 35.8066 101.585 35.3906C101.585 34.9746 101.664 34.5908 101.823 34.2393C101.987 33.8877 102.221 33.5801 102.526 33.3164C102.836 33.0527 103.214 32.8506 103.659 32.71C104.111 32.5635 104.623 32.4902 105.198 32.4902ZM115.155 40.8398C115.542 40.8398 115.899 40.7607 116.227 40.6025C116.555 40.4443 116.825 40.2275 117.036 39.9521C117.247 39.6709 117.367 39.3516 117.396 38.9941H118.943C118.914 39.5566 118.723 40.0811 118.372 40.5674C118.026 41.0479 117.572 41.4375 117.009 41.7363C116.447 42.0293 115.829 42.1758 115.155 42.1758C114.44 42.1758 113.816 42.0498 113.283 41.7979C112.756 41.5459 112.316 41.2002 111.965 40.7607C111.619 40.3213 111.358 39.8174 111.182 39.249C111.012 38.6748 110.927 38.0684 110.927 37.4297V37.0605C110.927 36.4219 111.012 35.8184 111.182 35.25C111.358 34.6758 111.619 34.1689 111.965 33.7295C112.316 33.29 112.756 32.9443 113.283 32.6924C113.816 32.4404 114.44 32.3145 115.155 32.3145C115.899 32.3145 116.549 32.4668 117.106 32.7715C117.663 33.0703 118.099 33.4805 118.416 34.002C118.738 34.5176 118.914 35.1035 118.943 35.7598H117.396C117.367 35.3672 117.256 35.0127 117.062 34.6963C116.875 34.3799 116.617 34.1279 116.289 33.9404C115.966 33.7471 115.589 33.6504 115.155 33.6504C114.657 33.6504 114.238 33.75 113.898 33.9492C113.564 34.1426 113.298 34.4062 113.098 34.7402C112.905 35.0684 112.764 35.4346 112.676 35.8389C112.594 36.2373 112.553 36.6445 112.553 37.0605V37.4297C112.553 37.8457 112.594 38.2559 112.676 38.6602C112.758 39.0645 112.896 39.4307 113.09 39.7588C113.289 40.0869 113.555 40.3506 113.889 40.5498C114.229 40.7432 114.651 40.8398 115.155 40.8398ZM126.782 36.6123V37.9307H121.755V36.6123H126.782ZM122.098 32.4902V42H120.472V32.4902H122.098ZM128.101 32.4902V42H126.466V32.4902H128.101ZM132.038 39.4248L136.423 32.4902H138.058V42H136.423V35.0654L132.038 42H130.42V32.4902H132.038V39.4248ZM144.104 32.4902V42H142.47V32.4902H144.104ZM147.295 32.4902V33.8086H139.341V32.4902H147.295ZM151.698 42.1758C151.036 42.1758 150.435 42.0645 149.896 41.8418C149.363 41.6133 148.903 41.2939 148.516 40.8838C148.135 40.4736 147.842 39.9873 147.637 39.4248C147.432 38.8623 147.33 38.2471 147.33 37.5791V37.21C147.33 36.4365 147.444 35.748 147.672 35.1445C147.901 34.5352 148.211 34.0195 148.604 33.5977C148.997 33.1758 149.442 32.8564 149.94 32.6396C150.438 32.4229 150.954 32.3145 151.487 32.3145C152.166 32.3145 152.752 32.4316 153.245 32.666C153.743 32.9004 154.15 33.2285 154.466 33.6504C154.783 34.0664 155.017 34.5586 155.169 35.127C155.322 35.6895 155.398 36.3047 155.398 36.9727V37.7021H148.296V36.375H153.772V36.252C153.748 35.8301 153.661 35.4199 153.508 35.0215C153.362 34.623 153.127 34.2949 152.805 34.0371C152.483 33.7793 152.043 33.6504 151.487 33.6504C151.118 33.6504 150.778 33.7295 150.467 33.8877C150.157 34.04 149.89 34.2686 149.667 34.5732C149.445 34.8779 149.272 35.25 149.149 35.6895C149.026 36.1289 148.964 36.6357 148.964 37.21V37.5791C148.964 38.0303 149.026 38.4551 149.149 38.8535C149.278 39.2461 149.462 39.5918 149.703 39.8906C149.949 40.1895 150.245 40.4238 150.59 40.5938C150.942 40.7637 151.34 40.8486 151.786 40.8486C152.36 40.8486 152.846 40.7314 153.245 40.4971C153.643 40.2627 153.992 39.9492 154.29 39.5566L155.275 40.3389C155.07 40.6494 154.809 40.9453 154.493 41.2266C154.176 41.5078 153.787 41.7363 153.324 41.9121C152.867 42.0879 152.325 42.1758 151.698 42.1758ZM163.211 32.4902V33.835H158.614V32.4902H163.211ZM164.643 32.4902V42H163.017V32.4902H164.643ZM158.219 32.4902H159.853L159.607 37.0781C159.566 37.7871 159.499 38.4141 159.405 38.959C159.317 39.498 159.194 39.9609 159.036 40.3477C158.884 40.7344 158.69 41.0508 158.456 41.2969C158.227 41.5371 157.952 41.7158 157.63 41.833C157.308 41.9443 156.935 42 156.514 42H156.004V40.5674L156.355 40.541C156.607 40.5234 156.821 40.4648 156.997 40.3652C157.179 40.2656 157.331 40.1191 157.454 39.9258C157.577 39.7266 157.677 39.4717 157.753 39.1611C157.835 38.8506 157.896 38.4814 157.937 38.0537C157.984 37.626 158.019 37.1279 158.043 36.5596L158.219 32.4902ZM168.159 35.7598H171.015C171.783 35.7598 172.43 35.8945 172.957 36.1641C173.485 36.4277 173.883 36.7939 174.153 37.2627C174.428 37.7256 174.566 38.2529 174.566 38.8447C174.566 39.2842 174.49 39.6973 174.337 40.084C174.185 40.4648 173.956 40.7988 173.652 41.0859C173.353 41.373 172.981 41.5986 172.535 41.7627C172.096 41.9209 171.589 42 171.015 42H166.972V32.4902H168.598V40.6641H171.015C171.484 40.6641 171.859 40.5791 172.14 40.4092C172.421 40.2393 172.623 40.0195 172.746 39.75C172.869 39.4805 172.931 39.1992 172.931 38.9062C172.931 38.6191 172.869 38.3379 172.746 38.0625C172.623 37.7871 172.421 37.5586 172.14 37.377C171.859 37.1895 171.484 37.0957 171.015 37.0957H168.159V35.7598ZM182.607 36.6123V37.9307H177.58V36.6123H182.607ZM177.923 32.4902V42H176.297V32.4902H177.923ZM183.926 32.4902V42H182.291V32.4902H183.926ZM185.674 37.3506V37.1484C185.674 36.4629 185.774 35.8271 185.973 35.2412C186.172 34.6494 186.459 34.1367 186.834 33.7031C187.209 33.2637 187.663 32.9238 188.196 32.6836C188.73 32.4375 189.327 32.3145 189.989 32.3145C190.657 32.3145 191.258 32.4375 191.791 32.6836C192.33 32.9238 192.787 33.2637 193.162 33.7031C193.543 34.1367 193.833 34.6494 194.032 35.2412C194.232 35.8271 194.331 36.4629 194.331 37.1484V37.3506C194.331 38.0361 194.232 38.6719 194.032 39.2578C193.833 39.8438 193.543 40.3564 193.162 40.7959C192.787 41.2295 192.333 41.5693 191.8 41.8154C191.273 42.0557 190.675 42.1758 190.007 42.1758C189.339 42.1758 188.738 42.0557 188.205 41.8154C187.672 41.5693 187.215 41.2295 186.834 40.7959C186.459 40.3564 186.172 39.8438 185.973 39.2578C185.774 38.6719 185.674 38.0361 185.674 37.3506ZM187.3 37.1484V37.3506C187.3 37.8252 187.356 38.2734 187.467 38.6953C187.578 39.1113 187.745 39.4805 187.968 39.8027C188.196 40.125 188.481 40.3799 188.821 40.5674C189.16 40.749 189.556 40.8398 190.007 40.8398C190.452 40.8398 190.842 40.749 191.176 40.5674C191.516 40.3799 191.797 40.125 192.02 39.8027C192.242 39.4805 192.409 39.1113 192.521 38.6953C192.638 38.2734 192.696 37.8252 192.696 37.3506V37.1484C192.696 36.6797 192.638 36.2373 192.521 35.8213C192.409 35.3994 192.239 35.0273 192.011 34.7051C191.788 34.377 191.507 34.1191 191.167 33.9316C190.833 33.7441 190.441 33.6504 189.989 33.6504C189.544 33.6504 189.152 33.7441 188.812 33.9316C188.478 34.1191 188.196 34.377 187.968 34.7051C187.745 35.0273 187.578 35.3994 187.467 35.8213C187.356 36.2373 187.3 36.6797 187.3 37.1484ZM197.688 39.4248L202.074 32.4902H203.709V42H202.074V35.0654L197.688 42H196.071V32.4902H197.688V39.4248ZM201.186 29.0449H202.505C202.505 29.502 202.399 29.9092 202.188 30.2666C201.977 30.6182 201.675 30.8936 201.283 31.0928C200.89 31.292 200.424 31.3916 199.885 31.3916C199.071 31.3916 198.426 31.1748 197.952 30.7412C197.483 30.3018 197.249 29.7363 197.249 29.0449H198.567C198.567 29.3906 198.667 29.6953 198.866 29.959C199.065 30.2227 199.405 30.3545 199.885 30.3545C200.354 30.3545 200.688 30.2227 200.887 29.959C201.087 29.6953 201.186 29.3906 201.186 29.0449ZM213.455 37.4561H211.706V36.4541H213.323C213.774 36.4541 214.131 36.3984 214.395 36.2871C214.659 36.1699 214.846 36.0088 214.958 35.8037C215.069 35.5986 215.125 35.3584 215.125 35.083C215.125 34.8369 215.06 34.6055 214.931 34.3887C214.808 34.166 214.609 33.9873 214.334 33.8525C214.058 33.7119 213.689 33.6416 213.226 33.6416C212.851 33.6416 212.511 33.709 212.207 33.8438C211.902 33.9727 211.659 34.1514 211.477 34.3799C211.301 34.6025 211.213 34.8545 211.213 35.1357H209.587C209.587 34.5557 209.751 34.0576 210.08 33.6416C210.414 33.2197 210.856 32.8945 211.407 32.666C211.963 32.4375 212.57 32.3232 213.226 32.3232C213.777 32.3232 214.269 32.3848 214.703 32.5078C215.142 32.625 215.514 32.8008 215.819 33.0352C216.124 33.2637 216.355 33.5508 216.513 33.8965C216.677 34.2363 216.759 34.6318 216.759 35.083C216.759 35.4053 216.683 35.71 216.531 35.9971C216.378 36.2842 216.159 36.5391 215.872 36.7617C215.585 36.9785 215.236 37.1484 214.826 37.2715C214.421 37.3945 213.964 37.4561 213.455 37.4561ZM211.706 36.8408H213.455C214.023 36.8408 214.524 36.8965 214.958 37.0078C215.391 37.1133 215.754 37.2715 216.047 37.4824C216.34 37.6934 216.56 37.9541 216.707 38.2646C216.859 38.5693 216.935 38.9209 216.935 39.3193C216.935 39.7646 216.844 40.166 216.663 40.5234C216.487 40.875 216.235 41.1738 215.907 41.4199C215.579 41.666 215.186 41.8535 214.729 41.9824C214.278 42.1113 213.777 42.1758 213.226 42.1758C212.611 42.1758 212.013 42.0703 211.433 41.8594C210.853 41.6484 210.376 41.3232 210.001 40.8838C209.626 40.4385 209.438 39.873 209.438 39.1875H211.064C211.064 39.4746 211.155 39.7471 211.336 40.0049C211.518 40.2627 211.77 40.4707 212.092 40.6289C212.42 40.7871 212.798 40.8662 213.226 40.8662C213.683 40.8662 214.064 40.7959 214.369 40.6553C214.673 40.5146 214.902 40.3271 215.054 40.0928C215.212 39.8584 215.292 39.6035 215.292 39.3281C215.292 38.9707 215.221 38.6836 215.081 38.4668C214.94 38.25 214.723 38.0918 214.43 37.9922C214.143 37.8867 213.774 37.834 213.323 37.834H211.706V36.8408ZM224.212 40.374V35.4785C224.212 35.1035 224.136 34.7783 223.983 34.5029C223.837 34.2217 223.614 34.0049 223.315 33.8525C223.017 33.7002 222.647 33.624 222.208 33.624C221.798 33.624 221.437 33.6943 221.127 33.835C220.822 33.9756 220.582 34.1602 220.406 34.3887C220.236 34.6172 220.151 34.8633 220.151 35.127H218.525C218.525 34.7871 218.613 34.4502 218.789 34.1162C218.965 33.7822 219.217 33.4805 219.545 33.2109C219.879 32.9355 220.277 32.7188 220.74 32.5605C221.209 32.3965 221.73 32.3145 222.305 32.3145C222.996 32.3145 223.605 32.4316 224.133 32.666C224.666 32.9004 225.082 33.2549 225.381 33.7295C225.686 34.1982 225.838 34.7871 225.838 35.4961V39.9258C225.838 40.2422 225.864 40.5791 225.917 40.9365C225.976 41.2939 226.061 41.6016 226.172 41.8594V42H224.476C224.394 41.8125 224.329 41.5635 224.282 41.2529C224.235 40.9365 224.212 40.6436 224.212 40.374ZM224.493 36.2344L224.511 37.377H222.867C222.404 37.377 221.991 37.415 221.628 37.4912C221.265 37.5615 220.96 37.6699 220.714 37.8164C220.468 37.9629 220.28 38.1475 220.151 38.3701C220.022 38.5869 219.958 38.8418 219.958 39.1348C219.958 39.4336 220.025 39.7061 220.16 39.9521C220.295 40.1982 220.497 40.3945 220.767 40.541C221.042 40.6816 221.379 40.752 221.777 40.752C222.275 40.752 222.715 40.6465 223.096 40.4355C223.477 40.2246 223.778 39.9668 224.001 39.6621C224.229 39.3574 224.353 39.0615 224.37 38.7744L225.064 39.5566C225.023 39.8027 224.912 40.0752 224.73 40.374C224.549 40.6729 224.306 40.96 224.001 41.2354C223.702 41.5049 223.345 41.7305 222.929 41.9121C222.519 42.0879 222.056 42.1758 221.54 42.1758C220.895 42.1758 220.33 42.0498 219.844 41.7979C219.363 41.5459 218.988 41.209 218.719 40.7871C218.455 40.3594 218.323 39.8818 218.323 39.3545C218.323 38.8447 218.423 38.3965 218.622 38.0098C218.821 37.6172 219.108 37.292 219.483 37.0342C219.858 36.7705 220.31 36.5713 220.837 36.4365C221.364 36.3018 221.953 36.2344 222.603 36.2344H224.493ZM234.292 32.4902V33.835H229.485V32.4902H234.292ZM229.722 32.4902V42H228.096V32.4902H229.722ZM235.734 32.4902V42H234.099V32.4902H235.734ZM239.662 39.4248L244.048 32.4902H245.682V42H244.048V35.0654L239.662 42H238.045V32.4902H239.662V39.4248ZM251.658 40.8398C252.045 40.8398 252.403 40.7607 252.731 40.6025C253.059 40.4443 253.328 40.2275 253.539 39.9521C253.75 39.6709 253.87 39.3516 253.9 38.9941H255.447C255.417 39.5566 255.227 40.0811 254.875 40.5674C254.53 41.0479 254.075 41.4375 253.513 41.7363C252.95 42.0293 252.332 42.1758 251.658 42.1758C250.944 42.1758 250.32 42.0498 249.786 41.7979C249.259 41.5459 248.82 41.2002 248.468 40.7607C248.122 40.3213 247.862 39.8174 247.686 39.249C247.516 38.6748 247.431 38.0684 247.431 37.4297V37.0605C247.431 36.4219 247.516 35.8184 247.686 35.25C247.862 34.6758 248.122 34.1689 248.468 33.7295C248.82 33.29 249.259 32.9443 249.786 32.6924C250.32 32.4404 250.944 32.3145 251.658 32.3145C252.403 32.3145 253.053 32.4668 253.61 32.7715C254.166 33.0703 254.603 33.4805 254.919 34.002C255.241 34.5176 255.417 35.1035 255.447 35.7598H253.9C253.87 35.3672 253.759 35.0127 253.566 34.6963C253.378 34.3799 253.12 34.1279 252.792 33.9404C252.47 33.7471 252.092 33.6504 251.658 33.6504C251.16 33.6504 250.741 33.75 250.402 33.9492C250.068 34.1426 249.801 34.4062 249.602 34.7402C249.408 35.0684 249.268 35.4346 249.18 35.8389C249.098 36.2373 249.057 36.6445 249.057 37.0605V37.4297C249.057 37.8457 249.098 38.2559 249.18 38.6602C249.262 39.0645 249.4 39.4307 249.593 39.7588C249.792 40.0869 250.059 40.3506 250.393 40.5498C250.733 40.7432 251.155 40.8398 251.658 40.8398ZM258.601 32.4902V42H256.975V32.4902H258.601ZM264.842 32.4902L260.333 37.9395H258.056L257.81 36.5156H259.674L262.864 32.4902H264.842ZM263.092 42L259.594 37.6934L260.64 36.5156L265.158 42H263.092ZM267.891 39.4248L272.277 32.4902H273.911V42H272.277V35.0654L267.891 42H266.274V32.4902H267.891V39.4248ZM83.4017 61.8164H80.2816L80.264 60.5156H82.8129C83.3168 60.5156 83.7357 60.4658 84.0697 60.3662C84.4095 60.2666 84.6644 60.1172 84.8343 59.918C85.0043 59.7188 85.0892 59.4727 85.0892 59.1797C85.0892 58.9512 85.0394 58.752 84.9398 58.582C84.8461 58.4062 84.7025 58.2627 84.5091 58.1514C84.3158 58.0342 84.0755 57.9492 83.7884 57.8965C83.5072 57.8379 83.1761 57.8086 82.7953 57.8086H80.7123V66H79.0863V56.4902H82.7953C83.3988 56.4902 83.9408 56.543 84.4212 56.6484C84.9076 56.7539 85.3207 56.915 85.6605 57.1318C86.0062 57.3428 86.2699 57.6123 86.4515 57.9404C86.6332 58.2686 86.724 58.6553 86.724 59.1006C86.724 59.3877 86.6654 59.6602 86.5482 59.918C86.431 60.1758 86.2582 60.4043 86.0296 60.6035C85.8011 60.8027 85.5199 60.9668 85.1859 61.0957C84.8519 61.2188 84.4681 61.2979 84.0345 61.333L83.4017 61.8164ZM83.4017 66H79.6927L80.5013 64.6816H83.4017C83.8529 64.6816 84.2279 64.626 84.5267 64.5146C84.8255 64.3975 85.0482 64.2334 85.1947 64.0225C85.347 63.8057 85.4232 63.5479 85.4232 63.249C85.4232 62.9502 85.347 62.6953 85.1947 62.4844C85.0482 62.2676 84.8255 62.1035 84.5267 61.9922C84.2279 61.875 83.8529 61.8164 83.4017 61.8164H80.932L80.9496 60.5156H84.0345L84.6234 61.0078C85.1449 61.0488 85.5873 61.1777 85.9505 61.3945C86.3138 61.6113 86.5892 61.8867 86.7767 62.2207C86.9642 62.5488 87.058 62.9062 87.058 63.293C87.058 63.7383 86.973 64.1309 86.8031 64.4707C86.639 64.8105 86.3988 65.0947 86.0824 65.3232C85.766 65.5459 85.3822 65.7158 84.931 65.833C84.4798 65.9443 83.9701 66 83.4017 66ZM103.756 61.4121V61.5967C103.756 62.2646 103.683 62.8799 103.536 63.4424C103.39 63.999 103.17 64.4824 102.877 64.8926C102.59 65.3027 102.233 65.6221 101.805 65.8506C101.377 66.0732 100.882 66.1846 100.32 66.1846C99.8567 66.1846 99.4495 66.123 99.0979 66C98.7463 65.8711 98.4475 65.6865 98.2014 65.4463C97.9612 65.2061 97.7678 64.9189 97.6213 64.585C97.4807 64.2451 97.384 63.8643 97.3313 63.4424V59.2236C97.384 58.7725 97.4807 58.3682 97.6213 58.0107C97.7678 57.6533 97.9612 57.3486 98.2014 57.0967C98.4475 56.8447 98.7434 56.6514 99.0891 56.5166C99.4348 56.3818 99.8391 56.3145 100.302 56.3145C100.759 56.3145 101.169 56.3965 101.532 56.5605C101.902 56.7188 102.224 56.9473 102.499 57.2461C102.781 57.5449 103.012 57.9053 103.194 58.3271C103.381 58.7432 103.522 59.2119 103.615 59.7334C103.709 60.2549 103.756 60.8145 103.756 61.4121ZM102.13 61.5967V61.4121C102.13 61.002 102.101 60.6123 102.042 60.2432C101.989 59.8682 101.905 59.5254 101.787 59.2148C101.676 58.8984 101.53 58.623 101.348 58.3887C101.166 58.1543 100.947 57.9727 100.689 57.8438C100.437 57.7148 100.147 57.6504 99.8186 57.6504C99.467 57.6504 99.1741 57.6943 98.9397 57.7822C98.7112 57.8701 98.5325 57.9873 98.4036 58.1338C98.2747 58.2744 98.1809 58.4238 98.1223 58.582V64.0928C98.1926 64.2217 98.2952 64.3447 98.4299 64.4619C98.5647 64.5732 98.7463 64.667 98.9748 64.7432C99.2034 64.8135 99.4905 64.8486 99.8362 64.8486C100.246 64.8486 100.595 64.7666 100.882 64.6025C101.175 64.4326 101.412 64.1982 101.594 63.8994C101.781 63.6006 101.916 63.2549 101.998 62.8623C102.086 62.4697 102.13 62.0479 102.13 61.5967ZM92.4622 61.5967V61.4121C92.4622 60.8145 92.509 60.2549 92.6028 59.7334C92.6965 59.2119 92.8372 58.7432 93.0247 58.3271C93.2122 57.9053 93.4436 57.5449 93.719 57.2461C94.0002 56.9473 94.3225 56.7188 94.6858 56.5605C95.0549 56.3965 95.468 56.3145 95.925 56.3145C96.3762 56.3145 96.7688 56.3818 97.1028 56.5166C97.4426 56.6514 97.7297 56.8447 97.9641 57.0967C98.1985 57.3486 98.386 57.6533 98.5266 58.0107C98.6672 58.3682 98.7668 58.7725 98.8254 59.2236V63.2754C98.7727 63.7207 98.676 64.1221 98.5354 64.4795C98.3948 64.8369 98.2073 65.1445 97.9729 65.4023C97.7385 65.6543 97.4485 65.8477 97.1028 65.9824C96.7629 66.1172 96.3645 66.1846 95.9075 66.1846C95.345 66.1846 94.8498 66.0732 94.4221 65.8506C93.9944 65.6221 93.634 65.3027 93.3411 64.8926C93.0539 64.4824 92.8342 63.999 92.6819 63.4424C92.5354 62.8799 92.4622 62.2646 92.4622 61.5967ZM94.0969 61.4121V61.5967C94.0969 62.0479 94.135 62.4697 94.2112 62.8623C94.2932 63.2549 94.4192 63.6006 94.5891 63.8994C94.7649 64.1982 94.9934 64.4326 95.2747 64.6025C95.5559 64.7666 95.9016 64.8486 96.3118 64.8486C96.6633 64.8486 96.9534 64.8047 97.1819 64.7168C97.4104 64.6289 97.592 64.5146 97.7268 64.374C97.8616 64.2334 97.9641 64.0869 98.0344 63.9346V58.582C97.9758 58.4238 97.8791 58.2744 97.7444 58.1338C97.6155 57.9873 97.4368 57.8701 97.2082 57.7822C96.9797 57.6943 96.6868 57.6504 96.3293 57.6504C95.9192 57.6504 95.5705 57.75 95.2834 57.9492C94.9963 58.1484 94.7649 58.4209 94.5891 58.7666C94.4192 59.1123 94.2932 59.5137 94.2112 59.9707C94.135 60.4219 94.0969 60.9023 94.0969 61.4121ZM97.2258 69.6562V52.5H98.8606V69.6562H97.2258ZM105.012 61.3506V61.1484C105.012 60.4629 105.112 59.8271 105.311 59.2412C105.51 58.6494 105.798 58.1367 106.173 57.7031C106.548 57.2637 107.002 56.9238 107.535 56.6836C108.068 56.4375 108.666 56.3145 109.328 56.3145C109.996 56.3145 110.596 56.4375 111.13 56.6836C111.669 56.9238 112.126 57.2637 112.501 57.7031C112.882 58.1367 113.172 58.6494 113.371 59.2412C113.57 59.8271 113.67 60.4629 113.67 61.1484V61.3506C113.67 62.0361 113.57 62.6719 113.371 63.2578C113.172 63.8438 112.882 64.3564 112.501 64.7959C112.126 65.2295 111.672 65.5693 111.138 65.8154C110.611 66.0557 110.013 66.1758 109.345 66.1758C108.677 66.1758 108.077 66.0557 107.544 65.8154C107.01 65.5693 106.553 65.2295 106.173 64.7959C105.798 64.3564 105.51 63.8438 105.311 63.2578C105.112 62.6719 105.012 62.0361 105.012 61.3506ZM106.638 61.1484V61.3506C106.638 61.8252 106.694 62.2734 106.805 62.6953C106.917 63.1113 107.084 63.4805 107.306 63.8027C107.535 64.125 107.819 64.3799 108.159 64.5674C108.499 64.749 108.894 64.8398 109.345 64.8398C109.791 64.8398 110.18 64.749 110.514 64.5674C110.854 64.3799 111.135 64.125 111.358 63.8027C111.581 63.4805 111.748 63.1113 111.859 62.6953C111.976 62.2734 112.035 61.8252 112.035 61.3506V61.1484C112.035 60.6797 111.976 60.2373 111.859 59.8213C111.748 59.3994 111.578 59.0273 111.349 58.7051C111.127 58.377 110.845 58.1191 110.506 57.9316C110.172 57.7441 109.779 57.6504 109.328 57.6504C108.882 57.6504 108.49 57.7441 108.15 57.9316C107.816 58.1191 107.535 58.377 107.306 58.7051C107.084 59.0273 106.917 59.3994 106.805 59.8213C106.694 60.2373 106.638 60.6797 106.638 61.1484ZM116.895 58.3184V69.6562H115.26V56.4902H116.754L116.895 58.3184ZM123.302 61.166V61.3506C123.302 62.042 123.22 62.6836 123.056 63.2754C122.892 63.8613 122.651 64.3711 122.335 64.8047C122.025 65.2383 121.641 65.5752 121.184 65.8154C120.727 66.0557 120.202 66.1758 119.61 66.1758C119.007 66.1758 118.474 66.0762 118.011 65.877C117.548 65.6777 117.155 65.3877 116.833 65.0068C116.511 64.626 116.253 64.1689 116.06 63.6357C115.872 63.1025 115.743 62.502 115.673 61.834V60.8496C115.743 60.1465 115.875 59.5166 116.068 58.96C116.262 58.4033 116.517 57.9287 116.833 57.5361C117.155 57.1377 117.545 56.8359 118.002 56.6309C118.459 56.4199 118.986 56.3145 119.584 56.3145C120.182 56.3145 120.712 56.4316 121.175 56.666C121.638 56.8945 122.027 57.2227 122.344 57.6504C122.66 58.0781 122.898 58.5908 123.056 59.1885C123.22 59.7803 123.302 60.4395 123.302 61.166ZM121.667 61.3506V61.166C121.667 60.6914 121.617 60.2461 121.518 59.8301C121.418 59.4082 121.263 59.0391 121.052 58.7227C120.847 58.4004 120.583 58.1484 120.261 57.9668C119.939 57.7793 119.555 57.6855 119.109 57.6855C118.699 57.6855 118.342 57.7559 118.037 57.8965C117.738 58.0371 117.484 58.2275 117.273 58.4678C117.062 58.7021 116.889 58.9717 116.754 59.2764C116.625 59.5752 116.528 59.8857 116.464 60.208V62.4844C116.581 62.8945 116.745 63.2812 116.956 63.6445C117.167 64.002 117.448 64.292 117.8 64.5146C118.151 64.7314 118.594 64.8398 119.127 64.8398C119.567 64.8398 119.944 64.749 120.261 64.5674C120.583 64.3799 120.847 64.125 121.052 63.8027C121.263 63.4805 121.418 63.1113 121.518 62.6953C121.617 62.2734 121.667 61.8252 121.667 61.3506ZM130.403 63.8379L133.637 56.4902H135.202L130.965 66H129.84L125.622 56.4902H127.186L130.403 63.8379ZM126.711 56.4902V66H125.086V56.4902H126.711ZM134.042 66V56.4902H135.676V66H134.042ZM143.463 64.374V59.4785C143.463 59.1035 143.387 58.7783 143.234 58.5029C143.088 58.2217 142.865 58.0049 142.566 57.8525C142.268 57.7002 141.898 57.624 141.459 57.624C141.049 57.624 140.688 57.6943 140.378 57.835C140.073 57.9756 139.833 58.1602 139.657 58.3887C139.487 58.6172 139.402 58.8633 139.402 59.127H137.776C137.776 58.7871 137.864 58.4502 138.04 58.1162C138.216 57.7822 138.468 57.4805 138.796 57.2109C139.13 56.9355 139.528 56.7188 139.991 56.5605C140.46 56.3965 140.981 56.3145 141.556 56.3145C142.247 56.3145 142.856 56.4316 143.384 56.666C143.917 56.9004 144.333 57.2549 144.632 57.7295C144.937 58.1982 145.089 58.7871 145.089 59.4961V63.9258C145.089 64.2422 145.115 64.5791 145.168 64.9365C145.227 65.2939 145.312 65.6016 145.423 65.8594V66H143.727C143.645 65.8125 143.58 65.5635 143.533 65.2529C143.486 64.9365 143.463 64.6436 143.463 64.374ZM143.744 60.2344L143.762 61.377H142.118C141.655 61.377 141.242 61.415 140.879 61.4912C140.516 61.5615 140.211 61.6699 139.965 61.8164C139.719 61.9629 139.531 62.1475 139.402 62.3701C139.273 62.5869 139.209 62.8418 139.209 63.1348C139.209 63.4336 139.276 63.7061 139.411 63.9521C139.546 64.1982 139.748 64.3945 140.018 64.541C140.293 64.6816 140.63 64.752 141.028 64.752C141.526 64.752 141.966 64.6465 142.347 64.4355C142.728 64.2246 143.029 63.9668 143.252 63.6621C143.48 63.3574 143.604 63.0615 143.621 62.7744L144.315 63.5566C144.274 63.8027 144.163 64.0752 143.981 64.374C143.8 64.6729 143.557 64.96 143.252 65.2354C142.953 65.5049 142.596 65.7305 142.18 65.9121C141.77 66.0879 141.307 66.1758 140.791 66.1758C140.146 66.1758 139.581 66.0498 139.095 65.7979C138.614 65.5459 138.239 65.209 137.97 64.7871C137.706 64.3594 137.574 63.8818 137.574 63.3545C137.574 62.8447 137.674 62.3965 137.873 62.0098C138.072 61.6172 138.359 61.292 138.734 61.0342C139.109 60.7705 139.561 60.5713 140.088 60.4365C140.615 60.3018 141.204 60.2344 141.854 60.2344H143.744ZM150.942 56.4902V66H149.307V56.4902H150.942ZM154.132 56.4902V57.8086H146.178V56.4902H154.132ZM158.535 66.1758C157.873 66.1758 157.272 66.0645 156.733 65.8418C156.2 65.6133 155.74 65.2939 155.353 64.8838C154.973 64.4736 154.68 63.9873 154.474 63.4248C154.269 62.8623 154.167 62.2471 154.167 61.5791V61.21C154.167 60.4365 154.281 59.748 154.51 59.1445C154.738 58.5352 155.049 58.0195 155.441 57.5977C155.834 57.1758 156.279 56.8564 156.777 56.6396C157.275 56.4229 157.791 56.3145 158.324 56.3145C159.004 56.3145 159.59 56.4316 160.082 56.666C160.58 56.9004 160.987 57.2285 161.304 57.6504C161.62 58.0664 161.854 58.5586 162.007 59.127C162.159 59.6895 162.235 60.3047 162.235 60.9727V61.7021H155.134V60.375H160.609V60.252C160.586 59.8301 160.498 59.4199 160.346 59.0215C160.199 58.623 159.965 58.2949 159.642 58.0371C159.32 57.7793 158.881 57.6504 158.324 57.6504C157.955 57.6504 157.615 57.7295 157.305 57.8877C156.994 58.04 156.727 58.2686 156.505 58.5732C156.282 58.8779 156.109 59.25 155.986 59.6895C155.863 60.1289 155.802 60.6357 155.802 61.21V61.5791C155.802 62.0303 155.863 62.4551 155.986 62.8535C156.115 63.2461 156.3 63.5918 156.54 63.8906C156.786 64.1895 157.082 64.4238 157.428 64.5938C157.779 64.7637 158.178 64.8486 158.623 64.8486C159.197 64.8486 159.683 64.7314 160.082 64.4971C160.48 64.2627 160.829 63.9492 161.128 63.5566L162.112 64.3389C161.907 64.6494 161.646 64.9453 161.33 65.2266C161.014 65.5078 160.624 65.7363 160.161 65.9121C159.704 66.0879 159.162 66.1758 158.535 66.1758ZM169.063 53.2031L172.139 58.1074L175.216 53.2031H177.193L173.15 59.54L177.29 66H175.295L172.139 60.999L168.984 66H166.989L171.129 59.54L167.086 53.2031H169.063ZM179.346 53.2031H180.989L185.182 63.6357L189.365 53.2031H191.018L185.815 66H184.531L179.346 53.2031ZM178.81 53.2031H180.26L180.497 61.0078V66H178.81V53.2031ZM190.095 53.2031H191.545V66H189.858V61.0078L190.095 53.2031ZM201.845 64.6201V66H195.447V64.6201H201.845ZM195.781 53.2031V66H194.085V53.2031H195.781Z" fill="#17120F"/>
<rect x="142.5" y="136.5" width="279" height="95" rx="15.5" stroke="#17120F"/>
<path d="M196.716 183.856H195.196V182.775H196.655C197.299 182.775 197.821 182.685 198.219 182.503C198.618 182.321 198.908 182.069 199.089 181.747C199.271 181.425 199.362 181.053 199.362 180.631C199.362 180.227 199.262 179.857 199.063 179.523C198.864 179.184 198.556 178.914 198.14 178.715C197.724 178.51 197.188 178.407 196.532 178.407C196.039 178.407 195.594 178.501 195.196 178.688C194.797 178.87 194.481 179.125 194.246 179.453C194.012 179.775 193.895 180.147 193.895 180.569H192.199C192.199 180.024 192.313 179.535 192.541 179.102C192.77 178.662 193.083 178.29 193.482 177.985C193.88 177.675 194.34 177.438 194.862 177.273C195.389 177.109 195.946 177.027 196.532 177.027C197.217 177.027 197.838 177.106 198.395 177.265C198.951 177.417 199.429 177.646 199.827 177.95C200.226 178.255 200.531 178.633 200.742 179.084C200.952 179.535 201.058 180.06 201.058 180.657C201.058 181.097 200.955 181.51 200.75 181.896C200.545 182.283 200.252 182.623 199.871 182.916C199.491 183.209 199.034 183.44 198.5 183.61C197.967 183.774 197.372 183.856 196.716 183.856ZM195.196 183.109H196.716C197.437 183.109 198.078 183.183 198.641 183.329C199.203 183.476 199.678 183.689 200.065 183.971C200.451 184.252 200.744 184.601 200.944 185.017C201.149 185.427 201.251 185.898 201.251 186.432C201.251 187.029 201.134 187.56 200.9 188.022C200.671 188.485 200.346 188.878 199.924 189.2C199.502 189.522 199.001 189.766 198.421 189.93C197.847 190.094 197.217 190.176 196.532 190.176C195.981 190.176 195.436 190.105 194.897 189.965C194.364 189.818 193.88 189.596 193.447 189.297C193.013 188.992 192.664 188.605 192.401 188.137C192.143 187.668 192.014 187.105 192.014 186.449H193.71C193.71 186.877 193.827 187.27 194.062 187.627C194.302 187.984 194.633 188.271 195.055 188.488C195.477 188.699 195.969 188.805 196.532 188.805C197.176 188.805 197.721 188.705 198.166 188.506C198.618 188.301 198.96 188.022 199.195 187.671C199.435 187.313 199.555 186.912 199.555 186.467C199.555 186.074 199.491 185.734 199.362 185.447C199.239 185.154 199.054 184.914 198.808 184.727C198.568 184.539 198.266 184.401 197.903 184.313C197.545 184.22 197.129 184.173 196.655 184.173H195.196V183.109ZM208.405 188.374V183.479C208.405 183.104 208.329 182.778 208.177 182.503C208.03 182.222 207.807 182.005 207.509 181.853C207.21 181.7 206.841 181.624 206.401 181.624C205.991 181.624 205.631 181.694 205.32 181.835C205.015 181.976 204.775 182.16 204.599 182.389C204.429 182.617 204.344 182.863 204.344 183.127H202.719C202.719 182.787 202.806 182.45 202.982 182.116C203.158 181.782 203.41 181.48 203.738 181.211C204.072 180.936 204.47 180.719 204.933 180.561C205.402 180.396 205.924 180.314 206.498 180.314C207.189 180.314 207.799 180.432 208.326 180.666C208.859 180.9 209.275 181.255 209.574 181.729C209.879 182.198 210.031 182.787 210.031 183.496V187.926C210.031 188.242 210.057 188.579 210.11 188.937C210.169 189.294 210.254 189.602 210.365 189.859V190H208.669C208.587 189.812 208.522 189.563 208.475 189.253C208.428 188.937 208.405 188.644 208.405 188.374ZM208.686 184.234L208.704 185.377H207.06C206.597 185.377 206.184 185.415 205.821 185.491C205.458 185.562 205.153 185.67 204.907 185.816C204.661 185.963 204.473 186.147 204.344 186.37C204.216 186.587 204.151 186.842 204.151 187.135C204.151 187.434 204.219 187.706 204.353 187.952C204.488 188.198 204.69 188.395 204.96 188.541C205.235 188.682 205.572 188.752 205.97 188.752C206.469 188.752 206.908 188.646 207.289 188.436C207.67 188.225 207.971 187.967 208.194 187.662C208.423 187.357 208.546 187.062 208.563 186.774L209.258 187.557C209.217 187.803 209.105 188.075 208.924 188.374C208.742 188.673 208.499 188.96 208.194 189.235C207.895 189.505 207.538 189.73 207.122 189.912C206.712 190.088 206.249 190.176 205.733 190.176C205.089 190.176 204.523 190.05 204.037 189.798C203.556 189.546 203.181 189.209 202.912 188.787C202.648 188.359 202.516 187.882 202.516 187.354C202.516 186.845 202.616 186.396 202.815 186.01C203.014 185.617 203.302 185.292 203.677 185.034C204.052 184.771 204.503 184.571 205.03 184.437C205.557 184.302 206.146 184.234 206.797 184.234H208.686ZM218.292 180.49V181.835H213.898V190H212.272V180.49H218.292ZM220.893 182.318V193.656H219.258V180.49H220.753L220.893 182.318ZM227.3 185.166V185.351C227.3 186.042 227.218 186.684 227.054 187.275C226.89 187.861 226.65 188.371 226.334 188.805C226.023 189.238 225.639 189.575 225.182 189.815C224.725 190.056 224.201 190.176 223.609 190.176C223.006 190.176 222.472 190.076 222.009 189.877C221.547 189.678 221.154 189.388 220.832 189.007C220.509 188.626 220.252 188.169 220.058 187.636C219.871 187.103 219.742 186.502 219.672 185.834V184.85C219.742 184.146 219.874 183.517 220.067 182.96C220.26 182.403 220.515 181.929 220.832 181.536C221.154 181.138 221.544 180.836 222.001 180.631C222.458 180.42 222.985 180.314 223.583 180.314C224.18 180.314 224.711 180.432 225.173 180.666C225.636 180.895 226.026 181.223 226.342 181.65C226.659 182.078 226.896 182.591 227.054 183.188C227.218 183.78 227.3 184.439 227.3 185.166ZM225.666 185.351V185.166C225.666 184.691 225.616 184.246 225.516 183.83C225.417 183.408 225.261 183.039 225.05 182.723C224.845 182.4 224.582 182.148 224.259 181.967C223.937 181.779 223.553 181.686 223.108 181.686C222.698 181.686 222.34 181.756 222.036 181.896C221.737 182.037 221.482 182.228 221.271 182.468C221.06 182.702 220.887 182.972 220.753 183.276C220.624 183.575 220.527 183.886 220.463 184.208V186.484C220.58 186.895 220.744 187.281 220.955 187.645C221.166 188.002 221.447 188.292 221.798 188.515C222.15 188.731 222.592 188.84 223.126 188.84C223.565 188.84 223.943 188.749 224.259 188.567C224.582 188.38 224.845 188.125 225.05 187.803C225.261 187.48 225.417 187.111 225.516 186.695C225.616 186.273 225.666 185.825 225.666 185.351ZM231.501 189.016L234.147 180.49H235.887L232.072 191.468C231.984 191.702 231.867 191.954 231.721 192.224C231.58 192.499 231.399 192.76 231.176 193.006C230.953 193.252 230.684 193.451 230.367 193.604C230.057 193.762 229.685 193.841 229.251 193.841C229.122 193.841 228.958 193.823 228.759 193.788C228.56 193.753 228.419 193.724 228.337 193.7L228.328 192.382C228.375 192.388 228.448 192.394 228.548 192.399C228.653 192.411 228.727 192.417 228.768 192.417C229.137 192.417 229.45 192.367 229.708 192.268C229.966 192.174 230.183 192.013 230.358 191.784C230.54 191.562 230.695 191.254 230.824 190.861L231.501 189.016ZM229.559 180.49L232.028 187.873L232.45 189.587L231.281 190.185L227.783 180.49H229.559ZM240.465 185.456H238.716V184.454H240.334C240.785 184.454 241.142 184.398 241.406 184.287C241.669 184.17 241.857 184.009 241.968 183.804C242.08 183.599 242.135 183.358 242.135 183.083C242.135 182.837 242.071 182.605 241.942 182.389C241.819 182.166 241.62 181.987 241.344 181.853C241.069 181.712 240.7 181.642 240.237 181.642C239.862 181.642 239.522 181.709 239.217 181.844C238.913 181.973 238.669 182.151 238.488 182.38C238.312 182.603 238.224 182.854 238.224 183.136H236.598C236.598 182.556 236.762 182.058 237.09 181.642C237.424 181.22 237.867 180.895 238.417 180.666C238.974 180.438 239.581 180.323 240.237 180.323C240.788 180.323 241.28 180.385 241.713 180.508C242.153 180.625 242.525 180.801 242.83 181.035C243.134 181.264 243.366 181.551 243.524 181.896C243.688 182.236 243.77 182.632 243.77 183.083C243.77 183.405 243.694 183.71 243.542 183.997C243.389 184.284 243.169 184.539 242.882 184.762C242.595 184.979 242.247 185.148 241.836 185.271C241.432 185.395 240.975 185.456 240.465 185.456ZM238.716 184.841H240.465C241.034 184.841 241.535 184.896 241.968 185.008C242.402 185.113 242.765 185.271 243.058 185.482C243.351 185.693 243.571 185.954 243.717 186.265C243.87 186.569 243.946 186.921 243.946 187.319C243.946 187.765 243.855 188.166 243.673 188.523C243.498 188.875 243.246 189.174 242.917 189.42C242.589 189.666 242.197 189.854 241.74 189.982C241.289 190.111 240.788 190.176 240.237 190.176C239.622 190.176 239.024 190.07 238.444 189.859C237.864 189.648 237.386 189.323 237.011 188.884C236.636 188.438 236.449 187.873 236.449 187.188H238.075C238.075 187.475 238.166 187.747 238.347 188.005C238.529 188.263 238.781 188.471 239.103 188.629C239.431 188.787 239.809 188.866 240.237 188.866C240.694 188.866 241.075 188.796 241.379 188.655C241.684 188.515 241.913 188.327 242.065 188.093C242.223 187.858 242.302 187.604 242.302 187.328C242.302 186.971 242.232 186.684 242.091 186.467C241.951 186.25 241.734 186.092 241.441 185.992C241.154 185.887 240.785 185.834 240.334 185.834H238.716V184.841ZM247.382 180.49V190H245.756V180.49H247.382ZM253.622 180.49L249.113 185.939H246.837L246.591 184.516H248.454L251.644 180.49H253.622ZM251.873 190L248.375 185.693L249.421 184.516L253.938 190H251.873ZM260.521 188.374V183.479C260.521 183.104 260.445 182.778 260.292 182.503C260.146 182.222 259.923 182.005 259.624 181.853C259.326 181.7 258.956 181.624 258.517 181.624C258.107 181.624 257.746 181.694 257.436 181.835C257.131 181.976 256.891 182.16 256.715 182.389C256.545 182.617 256.46 182.863 256.46 183.127H254.834C254.834 182.787 254.922 182.45 255.098 182.116C255.274 181.782 255.526 181.48 255.854 181.211C256.188 180.936 256.586 180.719 257.049 180.561C257.518 180.396 258.039 180.314 258.614 180.314C259.305 180.314 259.914 180.432 260.442 180.666C260.975 180.9 261.391 181.255 261.69 181.729C261.995 182.198 262.147 182.787 262.147 183.496V187.926C262.147 188.242 262.173 188.579 262.226 188.937C262.285 189.294 262.37 189.602 262.481 189.859V190H260.785C260.703 189.812 260.638 189.563 260.591 189.253C260.544 188.937 260.521 188.644 260.521 188.374ZM260.802 184.234L260.82 185.377H259.176C258.713 185.377 258.3 185.415 257.937 185.491C257.574 185.562 257.269 185.67 257.023 185.816C256.777 185.963 256.589 186.147 256.46 186.37C256.331 186.587 256.267 186.842 256.267 187.135C256.267 187.434 256.334 187.706 256.469 187.952C256.604 188.198 256.806 188.395 257.076 188.541C257.351 188.682 257.688 188.752 258.086 188.752C258.584 188.752 259.024 188.646 259.405 188.436C259.786 188.225 260.087 187.967 260.31 187.662C260.538 187.357 260.662 187.062 260.679 186.774L261.373 187.557C261.332 187.803 261.221 188.075 261.039 188.374C260.858 188.673 260.615 188.96 260.31 189.235C260.011 189.505 259.654 189.73 259.238 189.912C258.828 190.088 258.365 190.176 257.849 190.176C257.204 190.176 256.639 190.05 256.153 189.798C255.672 189.546 255.297 189.209 255.028 188.787C254.764 188.359 254.632 187.882 254.632 187.354C254.632 186.845 254.732 186.396 254.931 186.01C255.13 185.617 255.417 185.292 255.792 185.034C256.167 184.771 256.619 184.571 257.146 184.437C257.673 184.302 258.262 184.234 258.912 184.234H260.802ZM273.097 184.015H269.854L269.836 182.652H272.781C273.267 182.652 273.692 182.57 274.055 182.406C274.418 182.242 274.699 182.008 274.899 181.703C275.104 181.393 275.206 181.023 275.206 180.596C275.206 180.127 275.116 179.746 274.934 179.453C274.758 179.154 274.486 178.938 274.116 178.803C273.753 178.662 273.29 178.592 272.728 178.592H270.232V190H268.535V177.203H272.728C273.384 177.203 273.97 177.271 274.486 177.405C275.001 177.534 275.438 177.739 275.795 178.021C276.158 178.296 276.434 178.647 276.621 179.075C276.809 179.503 276.903 180.016 276.903 180.613C276.903 181.141 276.768 181.618 276.498 182.046C276.229 182.468 275.854 182.813 275.373 183.083C274.899 183.353 274.342 183.525 273.703 183.602L273.097 184.015ZM273.018 190H269.186L270.144 188.62H273.018C273.557 188.62 274.014 188.526 274.389 188.339C274.77 188.151 275.06 187.888 275.259 187.548C275.458 187.202 275.558 186.795 275.558 186.326C275.558 185.852 275.473 185.441 275.303 185.096C275.133 184.75 274.866 184.483 274.503 184.296C274.14 184.108 273.671 184.015 273.097 184.015H270.68L270.698 182.652H274.002L274.363 183.145C274.978 183.197 275.499 183.373 275.927 183.672C276.355 183.965 276.68 184.34 276.903 184.797C277.131 185.254 277.245 185.758 277.245 186.309C277.245 187.105 277.07 187.779 276.718 188.33C276.372 188.875 275.883 189.291 275.25 189.578C274.617 189.859 273.873 190 273.018 190ZM281.13 177.203V190H279.433V177.203H281.13ZM284.311 177.203H285.954L290.147 187.636L294.33 177.203H295.983L290.779 190H289.496L284.311 177.203ZM283.775 177.203H285.225L285.462 185.008V190H283.775V177.203ZM295.06 177.203H296.51V190H294.822V185.008L295.06 177.203ZM308.295 187.838L311.529 180.49H313.094L308.857 190H307.732L303.514 180.49H305.078L308.295 187.838ZM304.604 180.49V190H302.978V180.49H304.604ZM311.934 190V180.49H313.568V190H311.934ZM315.317 185.351V185.148C315.317 184.463 315.416 183.827 315.616 183.241C315.815 182.649 316.102 182.137 316.477 181.703C316.852 181.264 317.306 180.924 317.839 180.684C318.373 180.438 318.97 180.314 319.632 180.314C320.3 180.314 320.901 180.438 321.434 180.684C321.973 180.924 322.43 181.264 322.805 181.703C323.186 182.137 323.476 182.649 323.675 183.241C323.874 183.827 323.974 184.463 323.974 185.148V185.351C323.974 186.036 323.874 186.672 323.675 187.258C323.476 187.844 323.186 188.356 322.805 188.796C322.43 189.229 321.976 189.569 321.443 189.815C320.915 190.056 320.318 190.176 319.65 190.176C318.982 190.176 318.381 190.056 317.848 189.815C317.315 189.569 316.858 189.229 316.477 188.796C316.102 188.356 315.815 187.844 315.616 187.258C315.416 186.672 315.317 186.036 315.317 185.351ZM316.943 185.148V185.351C316.943 185.825 316.999 186.273 317.11 186.695C317.221 187.111 317.388 187.48 317.611 187.803C317.839 188.125 318.124 188.38 318.463 188.567C318.803 188.749 319.199 188.84 319.65 188.84C320.095 188.84 320.485 188.749 320.819 188.567C321.159 188.38 321.44 188.125 321.663 187.803C321.885 187.48 322.052 187.111 322.164 186.695C322.281 186.273 322.339 185.825 322.339 185.351V185.148C322.339 184.68 322.281 184.237 322.164 183.821C322.052 183.399 321.882 183.027 321.654 182.705C321.431 182.377 321.15 182.119 320.81 181.932C320.476 181.744 320.083 181.65 319.632 181.65C319.187 181.65 318.794 181.744 318.455 181.932C318.121 182.119 317.839 182.377 317.611 182.705C317.388 183.027 317.221 183.399 317.11 183.821C316.999 184.237 316.943 184.68 316.943 185.148ZM326.654 180.49H328.28L328.14 184.05C328.104 184.952 328.002 185.731 327.832 186.388C327.662 187.044 327.445 187.604 327.182 188.066C326.918 188.523 326.622 188.907 326.294 189.218C325.972 189.528 325.638 189.789 325.292 190H324.483L324.527 188.673L324.861 188.664C325.055 188.436 325.242 188.201 325.424 187.961C325.605 187.715 325.772 187.425 325.925 187.091C326.077 186.751 326.203 186.338 326.303 185.852C326.408 185.359 326.475 184.759 326.505 184.05L326.654 180.49ZM327.059 180.49H332.78V190H331.154V181.993H327.059V180.49ZM324.114 188.664H334.002V192.804H332.376V190H325.74V192.804H324.105L324.114 188.664ZM339.31 190.176C338.648 190.176 338.047 190.064 337.508 189.842C336.975 189.613 336.515 189.294 336.128 188.884C335.747 188.474 335.454 187.987 335.249 187.425C335.044 186.862 334.942 186.247 334.942 185.579V185.21C334.942 184.437 335.056 183.748 335.285 183.145C335.513 182.535 335.824 182.02 336.216 181.598C336.609 181.176 337.054 180.856 337.552 180.64C338.05 180.423 338.566 180.314 339.099 180.314C339.779 180.314 340.365 180.432 340.857 180.666C341.355 180.9 341.762 181.229 342.078 181.65C342.395 182.066 342.629 182.559 342.782 183.127C342.934 183.689 343.01 184.305 343.01 184.973V185.702H335.909V184.375H341.384V184.252C341.361 183.83 341.273 183.42 341.12 183.021C340.974 182.623 340.74 182.295 340.417 182.037C340.095 181.779 339.656 181.65 339.099 181.65C338.73 181.65 338.39 181.729 338.079 181.888C337.769 182.04 337.502 182.269 337.28 182.573C337.057 182.878 336.884 183.25 336.761 183.689C336.638 184.129 336.577 184.636 336.577 185.21V185.579C336.577 186.03 336.638 186.455 336.761 186.854C336.89 187.246 337.075 187.592 337.315 187.891C337.561 188.189 337.857 188.424 338.203 188.594C338.554 188.764 338.953 188.849 339.398 188.849C339.972 188.849 340.458 188.731 340.857 188.497C341.255 188.263 341.604 187.949 341.903 187.557L342.887 188.339C342.682 188.649 342.421 188.945 342.105 189.227C341.788 189.508 341.399 189.736 340.936 189.912C340.479 190.088 339.937 190.176 339.31 190.176ZM350.823 180.49V181.835H346.226V180.49H350.823ZM352.256 180.49V190H350.63V180.49H352.256ZM345.831 180.49H347.466L347.22 185.078C347.179 185.787 347.111 186.414 347.017 186.959C346.93 187.498 346.806 187.961 346.648 188.348C346.496 188.734 346.303 189.051 346.068 189.297C345.84 189.537 345.564 189.716 345.242 189.833C344.92 189.944 344.548 190 344.126 190H343.616V188.567L343.968 188.541C344.22 188.523 344.433 188.465 344.609 188.365C344.791 188.266 344.943 188.119 345.066 187.926C345.189 187.727 345.289 187.472 345.365 187.161C345.447 186.851 345.509 186.481 345.55 186.054C345.596 185.626 345.632 185.128 345.655 184.56L345.831 180.49ZM358.381 190.176C357.719 190.176 357.118 190.064 356.579 189.842C356.046 189.613 355.586 189.294 355.199 188.884C354.819 188.474 354.526 187.987 354.321 187.425C354.115 186.862 354.013 186.247 354.013 185.579V185.21C354.013 184.437 354.127 183.748 354.356 183.145C354.584 182.535 354.895 182.02 355.287 181.598C355.68 181.176 356.125 180.856 356.623 180.64C357.121 180.423 357.637 180.314 358.17 180.314C358.85 180.314 359.436 180.432 359.928 180.666C360.426 180.9 360.833 181.229 361.15 181.65C361.466 182.066 361.7 182.559 361.853 183.127C362.005 183.689 362.081 184.305 362.081 184.973V185.702H354.98V184.375H360.455V184.252C360.432 183.83 360.344 183.42 360.192 183.021C360.045 182.623 359.811 182.295 359.489 182.037C359.166 181.779 358.727 181.65 358.17 181.65C357.801 181.65 357.461 181.729 357.151 181.888C356.84 182.04 356.573 182.269 356.351 182.573C356.128 182.878 355.955 183.25 355.832 183.689C355.709 184.129 355.648 184.636 355.648 185.21V185.579C355.648 186.03 355.709 186.455 355.832 186.854C355.961 187.246 356.146 187.592 356.386 187.891C356.632 188.189 356.928 188.424 357.274 188.594C357.625 188.764 358.024 188.849 358.469 188.849C359.043 188.849 359.53 188.731 359.928 188.497C360.326 188.263 360.675 187.949 360.974 187.557L361.958 188.339C361.753 188.649 361.492 188.945 361.176 189.227C360.86 189.508 360.47 189.736 360.007 189.912C359.55 190.088 359.008 190.176 358.381 190.176ZM365.298 187.425L369.683 180.49H371.318V190H369.683V183.065L365.298 190H363.68V180.49H365.298V187.425ZM368.796 177.045H370.114C370.114 177.502 370.008 177.909 369.798 178.267C369.587 178.618 369.285 178.894 368.892 179.093C368.5 179.292 368.034 179.392 367.495 179.392C366.68 179.392 366.036 179.175 365.561 178.741C365.092 178.302 364.858 177.736 364.858 177.045H366.176C366.176 177.391 366.276 177.695 366.475 177.959C366.674 178.223 367.014 178.354 367.495 178.354C367.964 178.354 368.298 178.223 368.497 177.959C368.696 177.695 368.796 177.391 368.796 177.045Z" fill="#17120F"/>
<rect x="266.5" y="272.5" width="279" height="95" rx="15.5" stroke="#17120F"/>
<path d="M313.896 324.62V326H304.211V324.62H313.896ZM304.483 324.62V329.146H302.805L302.796 324.62H304.483ZM315.373 324.62L315.355 329.138H313.677V324.62H315.373ZM312.235 313.203V314.592H306.628V313.203H312.235ZM313.694 313.203V326H312.007V313.203H313.694ZM306.048 313.203H307.744L307.48 318.354C307.445 319.127 307.372 319.842 307.261 320.498C307.149 321.148 307.012 321.743 306.848 322.282C306.683 322.821 306.496 323.305 306.285 323.732C306.074 324.154 305.849 324.521 305.608 324.831C305.368 325.136 305.116 325.388 304.852 325.587C304.595 325.78 304.334 325.918 304.07 326H303.297V324.62H303.842C303.994 324.456 304.167 324.219 304.36 323.908C304.559 323.598 304.756 323.196 304.949 322.704C305.148 322.206 305.321 321.6 305.468 320.885C305.62 320.17 305.723 319.326 305.775 318.354L306.048 313.203ZM316.251 321.351V321.148C316.251 320.463 316.351 319.827 316.55 319.241C316.749 318.649 317.036 318.137 317.411 317.703C317.786 317.264 318.241 316.924 318.774 316.684C319.307 316.438 319.905 316.314 320.567 316.314C321.235 316.314 321.835 316.438 322.368 316.684C322.908 316.924 323.365 317.264 323.74 317.703C324.12 318.137 324.41 318.649 324.61 319.241C324.809 319.827 324.909 320.463 324.909 321.148V321.351C324.909 322.036 324.809 322.672 324.61 323.258C324.41 323.844 324.12 324.356 323.74 324.796C323.365 325.229 322.91 325.569 322.377 325.815C321.85 326.056 321.252 326.176 320.584 326.176C319.916 326.176 319.316 326.056 318.783 325.815C318.249 325.569 317.792 325.229 317.411 324.796C317.036 324.356 316.749 323.844 316.55 323.258C316.351 322.672 316.251 322.036 316.251 321.351ZM317.877 321.148V321.351C317.877 321.825 317.933 322.273 318.044 322.695C318.156 323.111 318.323 323.48 318.545 323.803C318.774 324.125 319.058 324.38 319.398 324.567C319.738 324.749 320.133 324.84 320.584 324.84C321.03 324.84 321.419 324.749 321.753 324.567C322.093 324.38 322.374 324.125 322.597 323.803C322.82 323.48 322.987 323.111 323.098 322.695C323.215 322.273 323.274 321.825 323.274 321.351V321.148C323.274 320.68 323.215 320.237 323.098 319.821C322.987 319.399 322.817 319.027 322.588 318.705C322.366 318.377 322.084 318.119 321.744 317.932C321.41 317.744 321.018 317.65 320.567 317.65C320.121 317.65 319.729 317.744 319.389 317.932C319.055 318.119 318.774 318.377 318.545 318.705C318.323 319.027 318.156 319.399 318.044 319.821C317.933 320.237 317.877 320.68 317.877 321.148ZM332.607 312.351H333.943C333.943 312.925 333.855 313.382 333.679 313.722C333.504 314.056 333.263 314.313 332.959 314.495C332.66 314.677 332.32 314.814 331.939 314.908C331.564 315.002 331.175 315.093 330.77 315.181C330.266 315.286 329.798 315.453 329.364 315.682C328.936 315.904 328.567 316.221 328.257 316.631C327.952 317.041 327.726 317.574 327.58 318.23C327.439 318.887 327.401 319.698 327.466 320.665V321.474H326.13V320.665C326.13 319.581 326.232 318.635 326.437 317.826C326.648 317.018 326.944 316.335 327.325 315.778C327.706 315.222 328.157 314.779 328.678 314.451C329.206 314.123 329.786 313.897 330.419 313.774C330.876 313.687 331.268 313.593 331.596 313.493C331.925 313.388 332.174 313.247 332.344 313.071C332.519 312.896 332.607 312.655 332.607 312.351ZM330.682 317.035C331.303 317.035 331.857 317.144 332.344 317.36C332.83 317.577 333.243 317.879 333.583 318.266C333.923 318.652 334.18 319.109 334.356 319.637C334.538 320.158 334.629 320.727 334.629 321.342V321.535C334.629 322.197 334.532 322.812 334.339 323.381C334.151 323.943 333.873 324.436 333.504 324.857C333.14 325.273 332.695 325.599 332.168 325.833C331.646 326.067 331.052 326.185 330.384 326.185C329.716 326.185 329.118 326.067 328.591 325.833C328.069 325.599 327.624 325.273 327.255 324.857C326.886 324.436 326.604 323.943 326.411 323.381C326.223 322.812 326.13 322.197 326.13 321.535V321.342C326.13 321.195 326.156 321.052 326.209 320.911C326.261 320.771 326.326 320.627 326.402 320.48C326.484 320.334 326.557 320.179 326.622 320.015C326.839 319.487 327.135 318.998 327.51 318.547C327.89 318.096 328.344 317.732 328.872 317.457C329.405 317.176 330.009 317.035 330.682 317.035ZM330.366 318.362C329.768 318.362 329.276 318.5 328.889 318.775C328.509 319.051 328.224 319.417 328.037 319.874C327.849 320.325 327.756 320.814 327.756 321.342V321.535C327.756 321.98 327.808 322.402 327.914 322.801C328.019 323.199 328.178 323.554 328.388 323.864C328.605 324.169 328.878 324.409 329.206 324.585C329.54 324.761 329.932 324.849 330.384 324.849C330.835 324.849 331.224 324.761 331.553 324.585C331.881 324.409 332.15 324.169 332.361 323.864C332.572 323.554 332.73 323.199 332.836 322.801C332.941 322.402 332.994 321.98 332.994 321.535V321.342C332.994 320.943 332.941 320.565 332.836 320.208C332.73 319.851 332.569 319.534 332.352 319.259C332.141 318.983 331.869 318.767 331.535 318.608C331.207 318.444 330.817 318.362 330.366 318.362ZM341.642 324.374V319.479C341.642 319.104 341.566 318.778 341.413 318.503C341.267 318.222 341.044 318.005 340.745 317.853C340.446 317.7 340.077 317.624 339.638 317.624C339.228 317.624 338.867 317.694 338.557 317.835C338.252 317.976 338.012 318.16 337.836 318.389C337.666 318.617 337.581 318.863 337.581 319.127H335.955C335.955 318.787 336.043 318.45 336.219 318.116C336.395 317.782 336.647 317.48 336.975 317.211C337.309 316.936 337.707 316.719 338.17 316.561C338.639 316.396 339.16 316.314 339.735 316.314C340.426 316.314 341.035 316.432 341.563 316.666C342.096 316.9 342.512 317.255 342.811 317.729C343.115 318.198 343.268 318.787 343.268 319.496V323.926C343.268 324.242 343.294 324.579 343.347 324.937C343.405 325.294 343.49 325.602 343.602 325.859V326H341.905C341.823 325.812 341.759 325.563 341.712 325.253C341.665 324.937 341.642 324.644 341.642 324.374ZM341.923 320.234L341.941 321.377H340.297C339.834 321.377 339.421 321.415 339.058 321.491C338.695 321.562 338.39 321.67 338.144 321.816C337.898 321.963 337.71 322.147 337.581 322.37C337.452 322.587 337.388 322.842 337.388 323.135C337.388 323.434 337.455 323.706 337.59 323.952C337.725 324.198 337.927 324.395 338.196 324.541C338.472 324.682 338.809 324.752 339.207 324.752C339.705 324.752 340.145 324.646 340.526 324.436C340.906 324.225 341.208 323.967 341.431 323.662C341.659 323.357 341.782 323.062 341.8 322.774L342.494 323.557C342.453 323.803 342.342 324.075 342.16 324.374C341.979 324.673 341.736 324.96 341.431 325.235C341.132 325.505 340.775 325.73 340.359 325.912C339.948 326.088 339.486 326.176 338.97 326.176C338.325 326.176 337.76 326.05 337.274 325.798C336.793 325.546 336.418 325.209 336.149 324.787C335.885 324.359 335.753 323.882 335.753 323.354C335.753 322.845 335.853 322.396 336.052 322.01C336.251 321.617 336.538 321.292 336.913 321.034C337.288 320.771 337.739 320.571 338.267 320.437C338.794 320.302 339.383 320.234 340.033 320.234H341.923ZM349.85 321.816H346.73L346.713 320.516H349.261C349.765 320.516 350.184 320.466 350.518 320.366C350.858 320.267 351.113 320.117 351.283 319.918C351.453 319.719 351.538 319.473 351.538 319.18C351.538 318.951 351.488 318.752 351.388 318.582C351.295 318.406 351.151 318.263 350.958 318.151C350.764 318.034 350.524 317.949 350.237 317.896C349.956 317.838 349.625 317.809 349.244 317.809H347.161V326H345.535V316.49H349.244C349.847 316.49 350.389 316.543 350.87 316.648C351.356 316.754 351.769 316.915 352.109 317.132C352.455 317.343 352.718 317.612 352.9 317.94C353.082 318.269 353.173 318.655 353.173 319.101C353.173 319.388 353.114 319.66 352.997 319.918C352.88 320.176 352.707 320.404 352.478 320.604C352.25 320.803 351.968 320.967 351.634 321.096C351.3 321.219 350.917 321.298 350.483 321.333L349.85 321.816ZM349.85 326H346.141L346.95 324.682H349.85C350.301 324.682 350.676 324.626 350.975 324.515C351.274 324.397 351.497 324.233 351.643 324.022C351.796 323.806 351.872 323.548 351.872 323.249C351.872 322.95 351.796 322.695 351.643 322.484C351.497 322.268 351.274 322.104 350.975 321.992C350.676 321.875 350.301 321.816 349.85 321.816H347.381L347.398 320.516H350.483L351.072 321.008C351.593 321.049 352.036 321.178 352.399 321.395C352.762 321.611 353.038 321.887 353.225 322.221C353.413 322.549 353.506 322.906 353.506 323.293C353.506 323.738 353.422 324.131 353.252 324.471C353.088 324.811 352.847 325.095 352.531 325.323C352.214 325.546 351.831 325.716 351.38 325.833C350.928 325.944 350.419 326 349.85 326ZM361.601 316.49V317.835H357.004V316.49H361.601ZM363.033 316.49V326H361.407V316.49H363.033ZM356.608 316.49H358.243L357.997 321.078C357.956 321.787 357.889 322.414 357.795 322.959C357.707 323.498 357.584 323.961 357.426 324.348C357.274 324.734 357.08 325.051 356.846 325.297C356.617 325.537 356.342 325.716 356.02 325.833C355.697 325.944 355.325 326 354.903 326H354.394V324.567L354.745 324.541C354.997 324.523 355.211 324.465 355.387 324.365C355.568 324.266 355.721 324.119 355.844 323.926C355.967 323.727 356.066 323.472 356.143 323.161C356.225 322.851 356.286 322.481 356.327 322.054C356.374 321.626 356.409 321.128 356.433 320.56L356.608 316.49ZM369.159 326.176C368.497 326.176 367.896 326.064 367.357 325.842C366.824 325.613 366.364 325.294 365.977 324.884C365.596 324.474 365.303 323.987 365.098 323.425C364.893 322.862 364.791 322.247 364.791 321.579V321.21C364.791 320.437 364.905 319.748 365.133 319.145C365.362 318.535 365.672 318.02 366.065 317.598C366.458 317.176 366.903 316.856 367.401 316.64C367.899 316.423 368.415 316.314 368.948 316.314C369.627 316.314 370.213 316.432 370.706 316.666C371.204 316.9 371.611 317.229 371.927 317.65C372.244 318.066 372.478 318.559 372.63 319.127C372.783 319.689 372.859 320.305 372.859 320.973V321.702H365.757V320.375H371.233V320.252C371.209 319.83 371.122 319.42 370.969 319.021C370.823 318.623 370.588 318.295 370.266 318.037C369.944 317.779 369.504 317.65 368.948 317.65C368.579 317.65 368.239 317.729 367.928 317.888C367.618 318.04 367.351 318.269 367.128 318.573C366.906 318.878 366.733 319.25 366.61 319.689C366.487 320.129 366.425 320.636 366.425 321.21V321.579C366.425 322.03 366.487 322.455 366.61 322.854C366.739 323.246 366.923 323.592 367.164 323.891C367.41 324.189 367.706 324.424 368.051 324.594C368.403 324.764 368.801 324.849 369.247 324.849C369.821 324.849 370.307 324.731 370.706 324.497C371.104 324.263 371.453 323.949 371.751 323.557L372.736 324.339C372.531 324.649 372.27 324.945 371.954 325.227C371.637 325.508 371.248 325.736 370.785 325.912C370.328 326.088 369.786 326.176 369.159 326.176ZM380.769 320.612V321.931H375.741V320.612H380.769ZM376.084 316.49V326H374.458V316.49H376.084ZM382.087 316.49V326H380.452V316.49H382.087ZM386.024 323.425L390.41 316.49H392.044V326H390.41V319.065L386.024 326H384.407V316.49H386.024V323.425ZM398.161 326.176C397.499 326.176 396.898 326.064 396.359 325.842C395.826 325.613 395.366 325.294 394.979 324.884C394.598 324.474 394.306 323.987 394.1 323.425C393.895 322.862 393.793 322.247 393.793 321.579V321.21C393.793 320.437 393.907 319.748 394.136 319.145C394.364 318.535 394.675 318.02 395.067 317.598C395.46 317.176 395.905 316.856 396.403 316.64C396.901 316.423 397.417 316.314 397.95 316.314C398.63 316.314 399.216 316.432 399.708 316.666C400.206 316.9 400.613 317.229 400.93 317.65C401.246 318.066 401.48 318.559 401.633 319.127C401.785 319.689 401.861 320.305 401.861 320.973V321.702H394.76V320.375H400.235V320.252C400.212 319.83 400.124 319.42 399.972 319.021C399.825 318.623 399.591 318.295 399.268 318.037C398.946 317.779 398.507 317.65 397.95 317.65C397.581 317.65 397.241 317.729 396.931 317.888C396.62 318.04 396.353 318.269 396.131 318.573C395.908 318.878 395.735 319.25 395.612 319.689C395.489 320.129 395.428 320.636 395.428 321.21V321.579C395.428 322.03 395.489 322.455 395.612 322.854C395.741 323.246 395.926 323.592 396.166 323.891C396.412 324.189 396.708 324.424 397.054 324.594C397.405 324.764 397.804 324.849 398.249 324.849C398.823 324.849 399.309 324.731 399.708 324.497C400.106 324.263 400.455 323.949 400.754 323.557L401.738 324.339C401.533 324.649 401.272 324.945 400.956 325.227C400.639 325.508 400.25 325.736 399.787 325.912C399.33 326.088 398.788 326.176 398.161 326.176ZM411.15 324.84C411.537 324.84 411.894 324.761 412.222 324.603C412.551 324.444 412.82 324.228 413.031 323.952C413.242 323.671 413.362 323.352 413.391 322.994H414.938C414.909 323.557 414.718 324.081 414.367 324.567C414.021 325.048 413.567 325.438 413.005 325.736C412.442 326.029 411.824 326.176 411.15 326.176C410.435 326.176 409.811 326.05 409.278 325.798C408.751 325.546 408.311 325.2 407.96 324.761C407.614 324.321 407.353 323.817 407.177 323.249C407.008 322.675 406.923 322.068 406.923 321.43V321.061C406.923 320.422 407.008 319.818 407.177 319.25C407.353 318.676 407.614 318.169 407.96 317.729C408.311 317.29 408.751 316.944 409.278 316.692C409.811 316.44 410.435 316.314 411.15 316.314C411.894 316.314 412.545 316.467 413.101 316.771C413.658 317.07 414.094 317.48 414.411 318.002C414.733 318.518 414.909 319.104 414.938 319.76H413.391C413.362 319.367 413.251 319.013 413.057 318.696C412.87 318.38 412.612 318.128 412.284 317.94C411.962 317.747 411.584 317.65 411.15 317.65C410.652 317.65 410.233 317.75 409.893 317.949C409.559 318.143 409.293 318.406 409.093 318.74C408.9 319.068 408.759 319.435 408.672 319.839C408.59 320.237 408.549 320.645 408.549 321.061V321.43C408.549 321.846 408.59 322.256 408.672 322.66C408.754 323.064 408.891 323.431 409.085 323.759C409.284 324.087 409.551 324.351 409.884 324.55C410.224 324.743 410.646 324.84 411.15 324.84ZM415.896 321.351V321.148C415.896 320.463 415.995 319.827 416.194 319.241C416.394 318.649 416.681 318.137 417.056 317.703C417.431 317.264 417.885 316.924 418.418 316.684C418.951 316.438 419.549 316.314 420.211 316.314C420.879 316.314 421.48 316.438 422.013 316.684C422.552 316.924 423.009 317.264 423.384 317.703C423.765 318.137 424.055 318.649 424.254 319.241C424.453 319.827 424.553 320.463 424.553 321.148V321.351C424.553 322.036 424.453 322.672 424.254 323.258C424.055 323.844 423.765 324.356 423.384 324.796C423.009 325.229 422.555 325.569 422.022 325.815C421.494 326.056 420.897 326.176 420.229 326.176C419.561 326.176 418.96 326.056 418.427 325.815C417.894 325.569 417.437 325.229 417.056 324.796C416.681 324.356 416.394 323.844 416.194 323.258C415.995 322.672 415.896 322.036 415.896 321.351ZM417.522 321.148V321.351C417.522 321.825 417.577 322.273 417.689 322.695C417.8 323.111 417.967 323.48 418.19 323.803C418.418 324.125 418.702 324.38 419.042 324.567C419.382 324.749 419.777 324.84 420.229 324.84C420.674 324.84 421.064 324.749 421.398 324.567C421.737 324.38 422.019 324.125 422.241 323.803C422.464 323.48 422.631 323.111 422.742 322.695C422.86 322.273 422.918 321.825 422.918 321.351V321.148C422.918 320.68 422.86 320.237 422.742 319.821C422.631 319.399 422.461 319.027 422.233 318.705C422.01 318.377 421.729 318.119 421.389 317.932C421.055 317.744 420.662 317.65 420.211 317.65C419.766 317.65 419.373 317.744 419.033 317.932C418.699 318.119 418.418 318.377 418.19 318.705C417.967 319.027 417.8 319.399 417.689 319.821C417.577 320.237 417.522 320.68 417.522 321.148ZM429.835 316.49V326H428.2V316.49H429.835ZM433.025 316.49V317.809H425.071V316.49H433.025ZM435.811 318.318V329.656H434.176V316.49H435.67L435.811 318.318ZM442.218 321.166V321.351C442.218 322.042 442.136 322.684 441.972 323.275C441.808 323.861 441.567 324.371 441.251 324.805C440.94 325.238 440.557 325.575 440.1 325.815C439.643 326.056 439.118 326.176 438.526 326.176C437.923 326.176 437.39 326.076 436.927 325.877C436.464 325.678 436.071 325.388 435.749 325.007C435.427 324.626 435.169 324.169 434.976 323.636C434.788 323.103 434.659 322.502 434.589 321.834V320.85C434.659 320.146 434.791 319.517 434.984 318.96C435.178 318.403 435.433 317.929 435.749 317.536C436.071 317.138 436.461 316.836 436.918 316.631C437.375 316.42 437.902 316.314 438.5 316.314C439.098 316.314 439.628 316.432 440.091 316.666C440.554 316.895 440.943 317.223 441.26 317.65C441.576 318.078 441.814 318.591 441.972 319.188C442.136 319.78 442.218 320.439 442.218 321.166ZM440.583 321.351V321.166C440.583 320.691 440.533 320.246 440.434 319.83C440.334 319.408 440.179 319.039 439.968 318.723C439.763 318.4 439.499 318.148 439.177 317.967C438.855 317.779 438.471 317.686 438.025 317.686C437.615 317.686 437.258 317.756 436.953 317.896C436.654 318.037 436.399 318.228 436.189 318.468C435.978 318.702 435.805 318.972 435.67 319.276C435.541 319.575 435.444 319.886 435.38 320.208V322.484C435.497 322.895 435.661 323.281 435.872 323.645C436.083 324.002 436.364 324.292 436.716 324.515C437.067 324.731 437.51 324.84 438.043 324.84C438.482 324.84 438.86 324.749 439.177 324.567C439.499 324.38 439.763 324.125 439.968 323.803C440.179 323.48 440.334 323.111 440.434 322.695C440.533 322.273 440.583 321.825 440.583 321.351ZM446.418 325.016L449.064 316.49H450.804L446.99 327.468C446.902 327.702 446.785 327.954 446.638 328.224C446.498 328.499 446.316 328.76 446.093 329.006C445.871 329.252 445.601 329.451 445.285 329.604C444.974 329.762 444.602 329.841 444.168 329.841C444.04 329.841 443.875 329.823 443.676 329.788C443.477 329.753 443.336 329.724 443.254 329.7L443.246 328.382C443.292 328.388 443.366 328.394 443.465 328.399C443.571 328.411 443.644 328.417 443.685 328.417C444.054 328.417 444.368 328.367 444.625 328.268C444.883 328.174 445.1 328.013 445.276 327.784C445.457 327.562 445.613 327.254 445.742 326.861L446.418 325.016ZM444.476 316.49L446.946 323.873L447.368 325.587L446.199 326.185L442.701 316.49H444.476ZM453.054 316.49H454.68L454.539 320.05C454.504 320.952 454.401 321.731 454.231 322.388C454.061 323.044 453.845 323.604 453.581 324.066C453.317 324.523 453.021 324.907 452.693 325.218C452.371 325.528 452.037 325.789 451.691 326H450.883L450.927 324.673L451.261 324.664C451.454 324.436 451.642 324.201 451.823 323.961C452.005 323.715 452.172 323.425 452.324 323.091C452.477 322.751 452.602 322.338 452.702 321.852C452.808 321.359 452.875 320.759 452.904 320.05L453.054 316.49ZM453.458 316.49H459.18V326H457.554V317.993H453.458V316.49ZM450.514 324.664H460.401V328.804H458.775V326H452.14V328.804H450.505L450.514 324.664ZM468.214 320.612V321.931H463.187V320.612H468.214ZM463.53 316.49V326H461.904V316.49H463.53ZM469.533 316.49V326H467.898V316.49H469.533ZM473.47 323.425L477.855 316.49H479.49V326H477.855V319.065L473.47 326H471.852V316.49H473.47V323.425ZM483.427 316.49V326H481.801V316.49H483.427ZM489.667 316.49L485.158 321.939H482.882L482.636 320.516H484.499L487.69 316.49H489.667ZM487.918 326L484.42 321.693L485.466 320.516L489.984 326H487.918ZM490.335 321.351V321.148C490.335 320.463 490.434 319.827 490.633 319.241C490.833 318.649 491.12 318.137 491.495 317.703C491.87 317.264 492.324 316.924 492.857 316.684C493.39 316.438 493.988 316.314 494.65 316.314C495.318 316.314 495.919 316.438 496.452 316.684C496.991 316.924 497.448 317.264 497.823 317.703C498.204 318.137 498.494 318.649 498.693 319.241C498.892 319.827 498.992 320.463 498.992 321.148V321.351C498.992 322.036 498.892 322.672 498.693 323.258C498.494 323.844 498.204 324.356 497.823 324.796C497.448 325.229 496.994 325.569 496.461 325.815C495.933 326.056 495.336 326.176 494.668 326.176C494 326.176 493.399 326.056 492.866 325.815C492.333 325.569 491.876 325.229 491.495 324.796C491.12 324.356 490.833 323.844 490.633 323.258C490.434 322.672 490.335 322.036 490.335 321.351ZM491.961 321.148V321.351C491.961 321.825 492.016 322.273 492.128 322.695C492.239 323.111 492.406 323.48 492.629 323.803C492.857 324.125 493.141 324.38 493.481 324.567C493.821 324.749 494.216 324.84 494.668 324.84C495.113 324.84 495.503 324.749 495.837 324.567C496.176 324.38 496.458 324.125 496.68 323.803C496.903 323.48 497.07 323.111 497.181 322.695C497.299 322.273 497.357 321.825 497.357 321.351V321.148C497.357 320.68 497.299 320.237 497.181 319.821C497.07 319.399 496.9 319.027 496.672 318.705C496.449 318.377 496.168 318.119 495.828 317.932C495.494 317.744 495.101 317.65 494.65 317.65C494.205 317.65 493.812 317.744 493.472 317.932C493.138 318.119 492.857 318.377 492.629 318.705C492.406 319.027 492.239 319.399 492.128 319.821C492.016 320.237 491.961 320.68 491.961 321.148ZM505.056 321.816H501.936L501.918 320.516H504.467C504.971 320.516 505.39 320.466 505.724 320.366C506.064 320.267 506.318 320.117 506.488 319.918C506.658 319.719 506.743 319.473 506.743 319.18C506.743 318.951 506.693 318.752 506.594 318.582C506.5 318.406 506.357 318.263 506.163 318.151C505.97 318.034 505.73 317.949 505.443 317.896C505.161 317.838 504.83 317.809 504.449 317.809H502.366V326H500.74V316.49H504.449C505.053 316.49 505.595 316.543 506.075 316.648C506.562 316.754 506.975 316.915 507.315 317.132C507.66 317.343 507.924 317.612 508.106 317.94C508.287 318.269 508.378 318.655 508.378 319.101C508.378 319.388 508.319 319.66 508.202 319.918C508.085 320.176 507.912 320.404 507.684 320.604C507.455 320.803 507.174 320.967 506.84 321.096C506.506 321.219 506.122 321.298 505.689 321.333L505.056 321.816ZM505.056 326H501.347L502.155 324.682H505.056C505.507 324.682 505.882 324.626 506.181 324.515C506.48 324.397 506.702 324.233 506.849 324.022C507.001 323.806 507.077 323.548 507.077 323.249C507.077 322.95 507.001 322.695 506.849 322.484C506.702 322.268 506.48 322.104 506.181 321.992C505.882 321.875 505.507 321.816 505.056 321.816H502.586L502.604 320.516H505.689L506.277 321.008C506.799 321.049 507.241 321.178 507.605 321.395C507.968 321.611 508.243 321.887 508.431 322.221C508.618 322.549 508.712 322.906 508.712 323.293C508.712 323.738 508.627 324.131 508.457 324.471C508.293 324.811 508.053 325.095 507.736 325.323C507.42 325.546 507.036 325.716 506.585 325.833C506.134 325.944 505.624 326 505.056 326Z" fill="#17120F"/>
<rect x="408.5" y="408.5" width="279" height="95" rx="15.5" stroke="#17120F"/>
<path d="M534.035 457.931H535.723C535.635 458.739 535.403 459.463 535.028 460.102C534.653 460.74 534.123 461.247 533.438 461.622C532.752 461.991 531.897 462.176 530.871 462.176C530.121 462.176 529.439 462.035 528.823 461.754C528.214 461.473 527.69 461.074 527.25 460.559C526.811 460.037 526.471 459.413 526.231 458.687C525.996 457.954 525.879 457.14 525.879 456.243V454.969C525.879 454.072 525.996 453.261 526.231 452.534C526.471 451.802 526.814 451.175 527.259 450.653C527.71 450.132 528.252 449.73 528.885 449.449C529.518 449.168 530.23 449.027 531.021 449.027C531.987 449.027 532.805 449.209 533.473 449.572C534.141 449.936 534.659 450.439 535.028 451.084C535.403 451.723 535.635 452.464 535.723 453.308H534.035C533.953 452.71 533.801 452.197 533.578 451.77C533.356 451.336 533.039 451.002 532.629 450.768C532.219 450.533 531.683 450.416 531.021 450.416C530.452 450.416 529.951 450.524 529.518 450.741C529.09 450.958 528.73 451.266 528.437 451.664C528.15 452.062 527.933 452.54 527.786 453.097C527.64 453.653 527.567 454.271 527.567 454.951V456.243C527.567 456.87 527.631 457.459 527.76 458.01C527.895 458.561 528.097 459.044 528.366 459.46C528.636 459.876 528.979 460.204 529.395 460.444C529.811 460.679 530.303 460.796 530.871 460.796C531.592 460.796 532.166 460.682 532.594 460.453C533.022 460.225 533.344 459.896 533.561 459.469C533.783 459.041 533.942 458.528 534.035 457.931ZM541.224 452.49V462H539.589V452.49H541.224ZM544.415 452.49V453.809H536.46V452.49H544.415ZM551.041 460.374V455.479C551.041 455.104 550.965 454.778 550.812 454.503C550.666 454.222 550.443 454.005 550.145 453.853C549.846 453.7 549.477 453.624 549.037 453.624C548.627 453.624 548.267 453.694 547.956 453.835C547.651 453.976 547.411 454.16 547.235 454.389C547.065 454.617 546.98 454.863 546.98 455.127H545.354C545.354 454.787 545.442 454.45 545.618 454.116C545.794 453.782 546.046 453.48 546.374 453.211C546.708 452.936 547.106 452.719 547.569 452.561C548.038 452.396 548.56 452.314 549.134 452.314C549.825 452.314 550.435 452.432 550.962 452.666C551.495 452.9 551.911 453.255 552.21 453.729C552.515 454.198 552.667 454.787 552.667 455.496V459.926C552.667 460.242 552.693 460.579 552.746 460.937C552.805 461.294 552.89 461.602 553.001 461.859V462H551.305C551.223 461.812 551.158 461.563 551.111 461.253C551.064 460.937 551.041 460.644 551.041 460.374ZM551.322 456.234L551.34 457.377H549.696C549.233 457.377 548.82 457.415 548.457 457.491C548.094 457.562 547.789 457.67 547.543 457.816C547.297 457.963 547.109 458.147 546.98 458.37C546.852 458.587 546.787 458.842 546.787 459.135C546.787 459.434 546.854 459.706 546.989 459.952C547.124 460.198 547.326 460.395 547.596 460.541C547.871 460.682 548.208 460.752 548.606 460.752C549.104 460.752 549.544 460.646 549.925 460.436C550.306 460.225 550.607 459.967 550.83 459.662C551.059 459.357 551.182 459.062 551.199 458.774L551.894 459.557C551.853 459.803 551.741 460.075 551.56 460.374C551.378 460.673 551.135 460.96 550.83 461.235C550.531 461.505 550.174 461.73 549.758 461.912C549.348 462.088 548.885 462.176 548.369 462.176C547.725 462.176 547.159 462.05 546.673 461.798C546.192 461.546 545.817 461.209 545.548 460.787C545.284 460.359 545.152 459.882 545.152 459.354C545.152 458.845 545.252 458.396 545.451 458.01C545.65 457.617 545.937 457.292 546.312 457.034C546.687 456.771 547.139 456.571 547.666 456.437C548.193 456.302 548.782 456.234 549.433 456.234H551.322ZM556.411 454.318V465.656H554.776V452.49H556.27L556.411 454.318ZM562.818 457.166V457.351C562.818 458.042 562.736 458.684 562.572 459.275C562.408 459.861 562.167 460.371 561.851 460.805C561.54 461.238 561.157 461.575 560.7 461.815C560.243 462.056 559.718 462.176 559.126 462.176C558.523 462.176 557.99 462.076 557.527 461.877C557.064 461.678 556.671 461.388 556.349 461.007C556.027 460.626 555.769 460.169 555.576 459.636C555.388 459.103 555.259 458.502 555.189 457.834V456.85C555.259 456.146 555.391 455.517 555.584 454.96C555.778 454.403 556.033 453.929 556.349 453.536C556.671 453.138 557.061 452.836 557.518 452.631C557.975 452.42 558.502 452.314 559.1 452.314C559.698 452.314 560.228 452.432 560.691 452.666C561.154 452.895 561.543 453.223 561.86 453.65C562.176 454.078 562.414 454.591 562.572 455.188C562.736 455.78 562.818 456.439 562.818 457.166ZM561.183 457.351V457.166C561.183 456.691 561.133 456.246 561.034 455.83C560.934 455.408 560.779 455.039 560.568 454.723C560.363 454.4 560.099 454.148 559.777 453.967C559.455 453.779 559.071 453.686 558.625 453.686C558.215 453.686 557.858 453.756 557.553 453.896C557.254 454.037 556.999 454.228 556.789 454.468C556.578 454.702 556.405 454.972 556.27 455.276C556.141 455.575 556.044 455.886 555.98 456.208V458.484C556.097 458.895 556.261 459.281 556.472 459.645C556.683 460.002 556.964 460.292 557.316 460.515C557.667 460.731 558.11 460.84 558.643 460.84C559.082 460.84 559.46 460.749 559.777 460.567C560.099 460.38 560.363 460.125 560.568 459.803C560.779 459.48 560.934 459.111 561.034 458.695C561.133 458.273 561.183 457.825 561.183 457.351ZM567.625 452.49V462H565.99V452.49H567.625ZM570.815 452.49V453.809H562.861V452.49H570.815Z" fill="#17120F"/>
<path fill-rule="evenodd" clip-rule="evenodd" d="M69.5 95V170C69.5 178.56 76.4396 185.5 85 185.5H140.118L134.757 182.434C134.517 182.297 134.434 181.992 134.571 181.752C134.708 181.512 135.014 181.429 135.253 181.566L142.133 185.5H143V186.5H142.11L135.21 189.695C134.959 189.811 134.662 189.702 134.546 189.451C134.43 189.201 134.539 188.903 134.79 188.787L139.73 186.5H85C75.8873 186.5 68.5 179.113 68.5 170V95H69.5Z" fill="#17120F"/>
<path fill-rule="evenodd" clip-rule="evenodd" d="M193 231V306C193 314.56 199.94 321.5 208.5 321.5H264.001L258.27 318.441C258.026 318.311 257.934 318.008 258.064 317.765C258.194 317.521 258.497 317.429 258.741 317.559L266.125 321.5H266.5V321.989C266.5 321.996 266.5 322.004 266.5 322.011V322.5H266.103L258.698 325.7C258.445 325.81 258.15 325.693 258.041 325.439C257.931 325.186 258.048 324.892 258.301 324.782L263.582 322.5H208.5C199.387 322.5 192 315.113 192 306V231H193Z" fill="#17120F"/>
<path fill-rule="evenodd" clip-rule="evenodd" d="M335 368V443C335 451.56 341.94 458.5 350.5 458.5H406.001L400.27 455.441C400.026 455.311 399.934 455.008 400.064 454.765C400.194 454.521 400.497 454.429 400.741 454.559L408.125 458.5H408.5V458.989C408.5 458.996 408.5 459.004 408.5 459.011V459.5H408.103L400.698 462.7C400.445 462.81 400.15 462.693 400.041 462.439C399.931 462.186 400.048 461.892 400.301 461.782L405.582 459.5H350.5C341.387 459.5 334 452.113 334 443V368H335Z" fill="#17120F"/>
</svg>
